<svg xmlns="http://www.w3.org/2000/svg" viewBox="0 0 500 500"><g id="freepik--Background--inject-728"><path d="M83.78,172.67c-18,25.08-31.58,53-39.19,82.36-5.9,22.79-33.36,153.88,154.07,184.19,202.77,32.78,245-56,257.38-133.93,21.71-137-43-216.32-135.47-237.3-41.13-9.33-84.94-6-123,11.1C153.08,99.05,112.78,132.17,83.78,172.67Z" style="fill:#37474f"></path></g><g id="freepik--Shadows--inject-728"><ellipse cx="364.65" cy="378.23" rx="20.73" ry="11.97" style="opacity:0.2"></ellipse><ellipse cx="185.88" cy="381.46" rx="47.37" ry="27.35" style="opacity:0.2"></ellipse><ellipse cx="282.52" cy="313.46" rx="98.59" ry="56.92" style="opacity:0.2"></ellipse><polygon points="162.31 324.79 107.26 293.01 162.31 261.23 217.36 293.01 162.31 324.79" style="opacity:0.2"></polygon></g><g id="freepik--side-table--inject-728"><polygon points="121.64 239.66 121.64 294.68 161.74 271.53 161.74 216.51 121.64 239.66" style="fill:#BA68C8"></polygon><polygon points="121.64 239.66 121.64 294.68 161.74 271.53 161.74 216.51 121.64 239.66" style="opacity:0.4"></polygon><polygon points="118.47 237.91 118.47 292.92 121.64 294.68 121.64 239.66 118.47 237.91" style="fill:#BA68C8"></polygon><polygon points="158.57 261.06 158.57 316.08 198.68 292.92 198.68 237.91 158.57 261.06" style="fill:#BA68C8"></polygon><polygon points="158.57 261.06 158.57 316.08 198.68 292.92 198.68 237.91 158.57 261.06" style="opacity:0.4"></polygon><polygon points="155.4 259.3 155.4 314.32 158.57 316.08 158.57 261.06 155.4 259.3" style="fill:#BA68C8"></polygon><polygon points="158.57 265.44 118.47 242.29 118.47 237.91 158.57 261.06 158.57 265.44" style="fill:#BA68C8"></polygon><polygon points="158.57 316.08 118.47 292.92 118.47 261.32 158.57 284.48 158.57 316.08" style="fill:#BA68C8"></polygon><polygon points="158.57 261.06 118.47 237.91 158.57 214.75 198.68 237.91 158.57 261.06" style="fill:#BA68C8"></polygon><polygon points="158.57 261.06 118.47 237.91 158.57 214.75 198.68 237.91 158.57 261.06" style="opacity:0.2"></polygon><polygon points="155.4 283.46 121.64 263.97 121.64 244.11 155.4 263.6 155.4 283.46" style="fill:#BA68C8"></polygon><polygon points="155.4 283.46 121.64 263.97 121.64 244.11 155.4 263.6 155.4 283.46" style="fill:#fff;opacity:0.6000000000000001"></polygon><circle cx="136.4" cy="262.14" r="2.46" style="fill:#fff"></circle><polygon points="155.4 308.19 121.64 288.69 121.64 268.83 155.4 288.32 155.4 308.19" style="fill:#BA68C8"></polygon><polygon points="155.4 308.19 121.64 288.69 121.64 268.83 155.4 288.32 155.4 308.19" style="fill:#fff;opacity:0.6000000000000001"></polygon><circle cx="136.4" cy="286.86" r="2.46" style="fill:#fff"></circle></g><g id="freepik--Lamp--inject-728"><circle cx="159.75" cy="195.91" r="38.25" transform="translate(-91.74 170.34) rotate(-45)" style="fill:#BA68C8;opacity:0.2"></circle><circle cx="159.75" cy="196.54" r="32.49" style="fill:#BA68C8;opacity:0.2"></circle><circle cx="159.75" cy="196.87" r="25.8" style="fill:#BA68C8;opacity:0.2"></circle><path d="M169.08,234.16a6.06,6.06,0,0,0-2.43-2.35,15.29,15.29,0,0,0-13.79,0,6.09,6.09,0,0,0-2.44,2.35H150v1.64h0c0,1.44.95,2.88,2.86,4a15.23,15.23,0,0,0,13.79,0c1.91-1.1,2.86-2.54,2.86-4h0v-1.64Z" style="fill:#263238"></path><path d="M166.65,238.14a15.23,15.23,0,0,1-13.79,0c-3.81-2.2-3.81-5.77,0-8a15.29,15.29,0,0,1,13.79,0C170.46,232.37,170.46,235.94,166.65,238.14Z" style="fill:#37474f"></path><path d="M157.64,187.49h4.23a0,0,0,0,1,0,0v44.61a2.05,2.05,0,0,1-2.05,2.05h-.13a2.05,2.05,0,0,1-2.05-2.05V187.49A0,0,0,0,1,157.64,187.49Z" style="fill:#263238"></path><path d="M178.66,205.18h0c-.06-.24-.14-.47-.22-.7l-6-19H147.05l-6,19c-.08.23-.16.46-.22.7h0c-.83,3.32,1,6.82,5.4,9.38,7.46,4.31,19.55,4.31,27,0C177.69,212,179.49,208.5,178.66,205.18Z" style="fill:#BA68C8"></path><path d="M178.66,205.18h0c-.06-.24-.14-.47-.22-.7l-6-19H147.05l-6,19c-.08.23-.16.46-.22.7h0c-.83,3.32,1,6.82,5.4,9.38,7.46,4.31,19.55,4.31,27,0C177.69,212,179.49,208.5,178.66,205.18Z" style="fill:#fff;opacity:0.4"></path><path d="M168.83,191.77c-5,2.89-13.14,2.89-18.15,0s-5-7.59,0-10.48,13.14-2.9,18.15,0S173.84,188.87,168.83,191.77Z" style="fill:#BA68C8"></path><path d="M159.75,179.11v1.51a17,17,0,0,1,8.33,2c1.93,1.12,3,2.52,3,3.94s-1.07,2.81-3,3.93a18.58,18.58,0,0,1-16.65,0c-1.94-1.12-3-2.52-3-3.93s1.06-2.82,3-3.94a17,17,0,0,1,8.32-2v-1.51m0,0a18.5,18.5,0,0,0-9.07,2.18c-5,2.89-5,7.58,0,10.48a20.06,20.06,0,0,0,18.15,0c5-2.9,5-7.59,0-10.48a18.54,18.54,0,0,0-9.08-2.18Z" style="fill:#BA68C8"></path><path d="M159.75,179.11v1.51a17,17,0,0,1,8.33,2c1.93,1.12,3,2.52,3,3.94s-1.07,2.81-3,3.93a18.58,18.58,0,0,1-16.65,0c-1.94-1.12-3-2.52-3-3.93s1.06-2.82,3-3.94a17,17,0,0,1,8.32-2v-1.51m0,0a18.5,18.5,0,0,0-9.07,2.18c-5,2.89-5,7.58,0,10.48a20.06,20.06,0,0,0,18.15,0c5-2.9,5-7.59,0-10.48a18.54,18.54,0,0,0-9.08-2.18Z" style="fill:#fff;opacity:0.2"></path></g><g id="freepik--Character--inject-728"><path d="M376.74,266.2c0,44.15-36.36,96.52-104.87,94.1-.66,0-1.34,0-2-.08-1.42-.07-2.85-.16-4.29-.28C193,354,181,309.39,181,289.18s15.77-38.9,25.57-46.87,22.06-17.15,31.25-38.89c8.35-19.77,24.55-33.34,51.47-35.65q1.18-.11,2.4-.18c1.94-.11,4-.17,6-.17C297.71,167.42,376.74,165.12,376.74,266.2Z" style="fill:#BA68C8"></path><path d="M376.74,266.2c0,44.15-36.36,96.52-104.87,94.1-.66,0-1.34,0-2-.08-1.42-.07-2.85-.16-4.29-.28C193,354,181,309.39,181,289.18s15.77-38.9,25.57-46.87,22.06-17.15,31.25-38.89c8.35-19.77,24.55-33.34,51.47-35.65q1.18-.11,2.4-.18c1.94-.11,4-.17,6-.17C297.71,167.42,376.74,165.12,376.74,266.2Z" style="fill:#fff;opacity:0.6000000000000001"></path><path d="M183,304.23c-.37-11.54,3.78-24.29,8.26-27.87,14.8-11.84,47.68-20.74,47.68-20.74-2.85-9.22-15.24-12.15-15.24-12.15,9.51-2.28,21.57,1.58,21.57,1.58l27.55-45.92a23.74,23.74,0,0,1,30.4-9.28c7.18,3.38,15,7.72,21,12.78,14.94,12.61,4.84,53.16.73,67.6-2.85,10-5.51,13.85-6.88,15.27a1.22,1.22,0,0,0,0,1.74c13.19,13.05,8.77,24.16,8.77,24.16-1.58-9.51-13-14.66-19.22-16.79a3.79,3.79,0,0,0-4.82,2.44c-1.44,4.47-5.59,12.26-17.49,18.93-17.86,10-31.64,3.16-40.38,3.81-5.88.44-8.35,21.7-10.5,34.32C200.47,343.43,187.36,321.58,183,304.23Z" style="fill:#BA68C8"></path><path d="M183,304.23c-.37-11.54,3.78-24.29,8.26-27.87,14.8-11.84,47.68-20.74,47.68-20.74-2.85-9.22-15.24-12.15-15.24-12.15,9.51-2.28,21.57,1.58,21.57,1.58l27.55-45.92a23.74,23.74,0,0,1,30.4-9.28c7.18,3.38,15,7.72,21,12.78,14.94,12.61,4.84,53.16.73,67.6-2.85,10-5.51,13.85-6.88,15.27a1.22,1.22,0,0,0,0,1.74c13.19,13.05,8.77,24.16,8.77,24.16-1.58-9.51-13-14.66-19.22-16.79a3.79,3.79,0,0,0-4.82,2.44c-1.44,4.47-5.59,12.26-17.49,18.93-17.86,10-31.64,3.16-40.38,3.81-5.88.44-8.35,21.7-10.5,34.32C200.47,343.43,187.36,321.58,183,304.23Z" style="fill:#fff;opacity:0.4"></path><path d="M359.91,266.2c0,42.27-30.47,92.08-88,94.1-.66,0-1.34,0-2-.08,56.16-3.18,85.87-52.28,85.87-94,0-83.49-49.27-96.44-66.42-98.43-1.58-.19-2.89-.28-3.86-.32.74,0,1.48,0,2.24,0a37.19,37.19,0,0,1,4,.17C306.89,168.89,359.91,179.6,359.91,266.2Z" style="fill:#BA68C8"></path><path d="M359.91,266.2c0,42.27-30.47,92.08-88,94.1-.66,0-1.34,0-2-.08,56.16-3.18,85.87-52.28,85.87-94,0-83.49-49.27-96.44-66.42-98.43-1.58-.19-2.89-.28-3.86-.32.74,0,1.48,0,2.24,0a37.19,37.19,0,0,1,4,.17C306.89,168.89,359.91,179.6,359.91,266.2Z" style="fill:#fff;opacity:0.4"></path><path d="M263.43,146.45s-3.71,1.87-.71,10.59-3.79,13.07-5.56,9.64c0,0,.11,5.53,6.82,5.53s7.91-5.55,7.91-5.55,2.42,2.64,2.42,10.08-7.1,35.37,17.73,35.37S316.42,191,316.42,191s6.37.12,6.37-9.41c0,0-9.68,6-9.68-7.41s2.21-30.43-8-30.43c0,0,3.52-7.3-3.49-12s-28.07,1.69-28.07,1.69-6.32-3.8-10.85.69C257.16,139.57,263.43,146.45,263.43,146.45Z" style="fill:#263238"></path><path d="M218.41,332.62,198.2,359.48l5.6,4.43s8.09-1.7,11-12.39A129.09,129.09,0,0,0,218.41,332.62Z" style="fill:#ffa8a7"></path><path d="M220.23,330.79s5.61,5.09,3.13,9.65-6.78,8.21-6.91,14.21-3.13,16.69-9.78,18.39-13.17-.63-13-3,4.57-10.57,4.57-10.57,6.1,3.78,10.61.13,5.55-19,5.55-19Z" style="fill:#BA68C8"></path><path d="M220.23,330.79s5.61,5.09,3.13,9.65-6.78,8.21-6.91,14.21-3.13,16.69-9.78,18.39-13.17-.63-13-3,4.57-10.57,4.57-10.57,6.1,3.78,10.61.13,5.55-19,5.55-19Z" style="opacity:0.2"></path><path d="M254.69,247.64s-45,19-48.67,20.91-10,5.17-9.39,19.82,4.32,51,4.32,51l24.69-47.47,63.74-30.33Z" style="fill:#BA68C8"></path><path d="M254.69,247.64s-45,19-48.67,20.91-10,5.17-9.39,19.82,4.32,51,4.32,51l24.69-47.47,63.74-30.33Z" style="opacity:0.5"></path><path d="M199.14,320.58C200.1,331,201,339.4,201,339.4l24.69-47.47,45.44-21.62-10.33-8.08c-14.52,7.28-35.62,17.87-41.92,21.1-8,4.11-10.5,15.73-17.41,31.88Z" style="fill:#BA68C8"></path><path d="M199.14,320.58C200.1,331,201,339.4,201,339.4l24.69-47.47,45.44-21.62-10.33-8.08c-14.52,7.28-35.62,17.87-41.92,21.1-8,4.11-10.5,15.73-17.41,31.88Z" style="opacity:0.7000000000000001"></path><polygon points="258.43 257.34 263.07 264.37 259.43 264.92 258.43 257.34" style="fill:#BA68C8"></polygon><polygon points="258.43 257.34 263.07 264.37 259.43 264.92 258.43 257.34" style="opacity:0.7000000000000001"></polygon><path d="M198.47,370.05s.64,1.08.64,6.51-2.12,6.52-4.86,7.49-10.66,6.75-12.86,9.29-11,5.19-19.7,3.62-10.55-7.26-6.36-10.95,16.12-10.39,16.12-10.39Z" style="fill:#BA68C8"></path><path d="M302.7,258.88l-19.36-4.48s-53.79,27-61.8,31.08-10.5,15.73-17.41,31.88c-5.2,12.15-12,28.81-16.46,38.83,0,0,3.18,8.45,13.27,6.32h0c3.42-7.46,9.46-14.15,18.24-26,7.61-10.27,10.58-19.34,11.73-24.78a8.72,8.72,0,0,1,6.45-6.67c8.88-2.15,27-6.83,46.07-13.42C310.33,282.4,302.7,258.88,302.7,258.88Z" style="fill:#BA68C8"></path><path d="M302.7,258.88l-19.36-4.48s-53.79,27-61.8,31.08-10.5,15.73-17.41,31.88c-5.2,12.15-12,28.81-16.46,38.83,0,0,3.18,8.45,13.27,6.32h0c3.42-7.46,9.46-14.15,18.24-26,7.61-10.27,10.58-19.34,11.73-24.78a8.72,8.72,0,0,1,6.45-6.67c8.88-2.15,27-6.83,46.07-13.42C310.33,282.4,302.7,258.88,302.7,258.88Z" style="opacity:0.5"></path><path d="M187.67,356.19c-1.48,3.3-2.7,5.87-3.54,7.33-3.37,5.86-13.22,12.22-16.67,15.22s-4.21,4.14-.89,6.68c8.38,6.43,15.65-.58,20.35-5.08a58.89,58.89,0,0,1,10.3-7.54,2.1,2.1,0,0,0,1-1.48,34.78,34.78,0,0,1,2.73-8.8h0C190.85,364.64,187.67,356.19,187.67,356.19Z" style="fill:#ffa8a7"></path><polygon points="282.17 277.27 248.3 296.82 192 264.26 225.86 244.31 282.17 277.27" style="fill:#ebebeb"></polygon><polygon points="251.95 271.7 239.24 264.37 247.21 259.77 259.91 267.11 251.95 271.7" style="fill:#e0e0e0"></polygon><polygon points="246.86 291.94 263.98 281.86 230.53 261.62 246.86 291.94" style="fill:#e0e0e0"></polygon><path d="M247.86,231.53l-13.54,6.35a119.31,119.31,0,0,0-12,3.7s-9.42,3.85-9.85,6.38,7.07,8.61,13.66,5.65a21.38,21.38,0,0,1,5.5-2c1.77-.19,7-1,10.83-4.65l10.95-3S259.09,233.1,247.86,231.53Z" style="fill:#ffa8a7"></path><path d="M239.09,250.42c-1.57,1.68-6,5.92-7,7.15s-3.28-1.93.76-6.62a37.92,37.92,0,0,0,9.76-5.31A39.16,39.16,0,0,1,239.09,250.42Z" style="fill:#ffa8a7"></path><path d="M275.58,184.43h0a13.31,13.31,0,0,0-14.72,8.92,58.12,58.12,0,0,0-2.75,13.31c-1.17,14-1.5,20.93-1.5,20.93l-14,6.35s7.57.37,7.06,11.06l17.46-4.41Z" style="fill:#ffa8a7"></path><path d="M256.61,227.59a9.71,9.71,0,0,1,4.14,2.54s-1.69-3.21-4.06-4.2Z" style="fill:#f28f8f"></path><path d="M297.69,190l9.84,4.19V223a64,64,0,0,0-4.92,23.28v14.27s-20.11,7.17-35.7-.58c-7.55-3.76-12.22-12.32-12.22-12.32s8.31-4.89,8.31-10.86a83.11,83.11,0,0,0-1.66-13.89,16.68,16.68,0,0,1-4.8-14c1.11-9.52,19-24.48,19-24.48l6.67.91Z" style="fill:#BA68C8"></path><polygon points="297.69 189.97 282.25 185.34 282.25 166.66 297.69 166.66 297.69 189.97" style="fill:#ffa8a7"></polygon><path d="M282.25,185.34a24.83,24.83,0,0,0,14.19-13.49v-5.19H282.25Z" style="fill:#f28f8f"></path><path d="M278.66,141.35s-14.13.82-12.38,25c.81,11.16,3.42,16.94,12,16.52,9.74-.48,23.57-7.17,22.66-26.28S278.66,141.35,278.66,141.35Z" style="fill:#ffa8a7"></path><path d="M297.69,166.66s-3.87,1-3.87-4.53c0,0-17.2-1.16-21-18.23,0,0,1.7-5.11,12.44-5.11s19.76,9.49,17,22.55Z" style="fill:#263238"></path><polygon points="276.63 161.47 276.63 169.77 271.77 168.28 276.63 161.47" style="fill:#f28f8f"></polygon><path d="M283.94,162.36a1.69,1.69,0,1,1-1.69-1.69A1.69,1.69,0,0,1,283.94,162.36Z" style="fill:#263238"></path><path d="M272.82,161.18a1.69,1.69,0,1,1-1.69-1.69A1.69,1.69,0,0,1,272.82,161.18Z" style="fill:#263238"></path><path d="M269.07,157.66l3.31-2s-1.27-1.32-2.54-.52A2.31,2.31,0,0,0,269.07,157.66Z" style="fill:#263238"></path><path d="M277.05,172.52a8.62,8.62,0,0,0,5.45-1.45s.37,2.86-2,3.41S277.05,172.52,277.05,172.52Z" style="fill:#f28f8f"></path><path d="M296.32,167.29a9.42,9.42,0,0,1,.77-4.1,4.31,4.31,0,0,1,3.75-2.94c4.34-.12,4.93,4.06,4.87,5.54-.16,3.91-3.32,8.12-9.2,8.28Z" style="fill:#ffa8a7"></path><path d="M282.25,185.34l-4.55,5.92a5.76,5.76,0,0,0,1.89,8.61h0a9.83,9.83,0,0,0,12.23-2.56l5.87-7.34Z" style="fill:#ffa8a7"></path><path d="M282.17,256.53l-12.91,7a40,40,0,0,0-5.94,0c-2.28.28-8.34,1.38-9.9,1.45s-.07,3,4,2.74c0,0-9.26,4.24-9.59,6.78s7.43,8.32,13.89,5.08a21.35,21.35,0,0,1,5.41-2.21c1.76-.26,7-1.31,10.63-5.09l10.82-3.45S293.44,257.64,282.17,256.53Z" style="fill:#ffa8a7"></path><path d="M307.53,194.16s-7.84,5.41-6.53,22.06a196.53,196.53,0,0,1,0,30.34l-18.85,10a14.4,14.4,0,0,1,6.45,12.33s27.08-5.58,28.7-11.89,2.2-36.46,2.2-41.7S317.36,198.35,307.53,194.16Z" style="fill:#ffa8a7"></path><path d="M301,246.56a15.2,15.2,0,0,1,6.05,1.11,12.89,12.89,0,0,0-5.93-2.61Z" style="fill:#f28f8f"></path><path d="M184.15,227,190,265.49a.07.07,0,0,0,0,.06l58.48,33.92a.09.09,0,0,0,.13-.09L243,262a5.55,5.55,0,0,0-2.58-3.89l-53.64-32.89A1.73,1.73,0,0,0,184.15,227Z" style="fill:#fafafa"></path><path d="M248.56,299.47l31.24-18.09a4.77,4.77,0,0,0,2.37-4.11h0L248.3,296.82Z" style="fill:#e0e0e0"></path><path d="M218,264.09c0,2.75-1.94,3.87-4.32,2.49a9.53,9.53,0,0,1-4.31-7.47c0-2.76,1.93-3.87,4.31-2.49A9.54,9.54,0,0,1,218,264.09Z" style="fill:#e0e0e0"></path><path d="M275.58,225s11.8,3.21,18.06-5.66C293.64,219.31,289.59,230.76,275.58,225Z" style="opacity:0.2"></path><path d="M201.38,223.67h0a1,1,0,0,1-1-1L200.5,210a1,1,0,0,1,1-1h0a1,1,0,0,1,1,1l-.12,12.71A1,1,0,0,1,201.38,223.67Z" style="fill:#fafafa"></path><path d="M210.43,228.26a1,1,0,0,1-.54-1.84l9.9-6.36a1,1,0,0,1,1.08,1.68L211,228.1A1,1,0,0,1,210.43,228.26Z" style="fill:#fafafa"></path><path d="M206,225.73a1,1,0,0,1-.83-1.56l6.31-9.56a1,1,0,1,1,1.67,1.11l-6.31,9.56A1,1,0,0,1,206,225.73Z" style="fill:#fafafa"></path></g><g id="freepik--Plant--inject-728"><path d="M365.05,339.8s-16.7-16.31-7.19-43.63c5.33-15.32,23-26.56,33-27.62,0,0-5.45,6.29-7.85,13.25l-12.67,8.42L382,286.57l-2.48,10s-10.82,6.55-12.42,8l11.66-3.05S377.88,329.66,365.05,339.8Z" style="fill:#BA68C8"></path><path d="M365.05,339.8s-16.7-16.31-7.19-43.63c5.33-15.32,23-26.56,33-27.62,0,0-5.45,6.29-7.85,13.25l-12.67,8.42L382,286.57l-2.48,10s-10.82,6.55-12.42,8l11.66-3.05S377.88,329.66,365.05,339.8Z" style="opacity:0.4"></path><path d="M365.05,339.8s-8.64-34.13,4.15-54C369.2,285.76,354.2,303.33,365.05,339.8Z" style="fill:#fff"></path><path d="M384.17,344.42l-20.44-.25h-.21l-20.43.25s-.23,25.18,7.53,35.43h0c2.14,2.72,7.16,4.63,13,4.63s10.89-1.92,13-4.65C384.4,369.58,384.17,344.42,384.17,344.42Z" style="fill:#263238"></path><ellipse cx="363.63" cy="344.42" rx="20.54" ry="11.03" style="fill:#455a64"></ellipse><path d="M363.63,341.5c7.07,0,13.05,2.27,15.16,5.4a4.45,4.45,0,0,0,.82-2.48c0-4.35-7.16-7.88-16-7.88s-16,3.53-16,7.88a4.38,4.38,0,0,0,.82,2.48C350.58,343.77,356.56,341.5,363.63,341.5Z" style="fill:#37474f"></path><path d="M363.63,341.5c-7.07,0-13.05,2.27-15.16,5.4,2.11,3.14,8.09,5.41,15.16,5.41s13.05-2.27,15.16-5.41C376.68,343.77,370.7,341.5,363.63,341.5Z" style="fill:#e0e0e0"></path><path d="M363.88,348.27S356,348,349.17,337.45c-2.8-4.34-4.15-6.62-4.15-6.62l11-.82-12.35-3.09L337.86,318l10.26-.76s-7.64-2.68-13.1-2.72c0,0-9.47-16.71-12.23-19.1A53.69,53.69,0,0,1,360.17,314C375.73,332.38,366.19,348.74,363.88,348.27Z" style="fill:#BA68C8"></path><path d="M363.88,348.27s4.95-29.83-26.65-47.76C337.23,300.51,370,316.26,363.88,348.27Z" style="fill:#fff"></path><path d="M363.88,348.27s7.17.46,14.29-8.38c2.93-3.65,4.37-5.58,4.37-5.58l-9.88-1.78,11.44-1.62,6.11-7.51L381,321.75s7.15-1.7,12.08-1.22c0,0,10.11-14.19,12.83-16.08a48.66,48.66,0,0,0-35.47,13.24C354.69,332.82,361.75,348.47,363.88,348.27Z" style="fill:#BA68C8"></path><path d="M363.88,348.27s7.17.46,14.29-8.38c2.93-3.65,4.37-5.58,4.37-5.58l-9.88-1.78,11.44-1.62,6.11-7.51L381,321.75s7.15-1.7,12.08-1.22c0,0,10.11-14.19,12.83-16.08a48.66,48.66,0,0,0-35.47,13.24C354.69,332.82,361.75,348.47,363.88,348.27Z" style="opacity:0.2"></path><path d="M363.88,348.27s-1.66-27.38,28.54-40.59C392.42,307.68,361.35,318.81,363.88,348.27Z" style="fill:#fff"></path></g><g id="freepik--Moon--inject-728"><path d="M121.5,93.62a34.8,34.8,0,0,1,12-39.84,34.77,34.77,0,1,0,22.81,62.65A34.8,34.8,0,0,1,121.5,93.62Z" style="fill:#BA68C8"></path></g><g id="freepik--Stars--inject-728"><path d="M140,68.19l1.32,2a1.1,1.1,0,0,0,.91.52l2.45.07a1.13,1.13,0,0,1,.84,1.84L144,74.57a1.13,1.13,0,0,0-.21,1l.69,2.35A1.13,1.13,0,0,1,143,79.3l-2.28-.88a1.13,1.13,0,0,0-1,.12l-2,1.38a1.13,1.13,0,0,1-1.76-1l.14-2.44a1.14,1.14,0,0,0-.44-1L133.65,74a1.13,1.13,0,0,1,.4-2l2.36-.62a1.16,1.16,0,0,0,.78-.71l.82-2.3A1.13,1.13,0,0,1,140,68.19Z" style="fill:#e0e0e0"></path><path d="M154.14,89.46l.67,1a.61.61,0,0,0,.46.26l1.24,0a.57.57,0,0,1,.42.93l-.78,1a.55.55,0,0,0-.1.52l.34,1.19a.57.57,0,0,1-.75.69l-1.15-.45a.62.62,0,0,0-.53.06l-1,.7a.57.57,0,0,1-.89-.5l.07-1.24a.58.58,0,0,0-.22-.48l-1-.76a.57.57,0,0,1,.2-1l1.2-.31a.59.59,0,0,0,.39-.36l.42-1.17A.57.57,0,0,1,154.14,89.46Z" style="fill:#e0e0e0"></path><path d="M82.78,85.64l.67,1a.55.55,0,0,0,.46.26l1.24,0a.57.57,0,0,1,.42.93l-.78,1a.54.54,0,0,0-.1.52L85,90.57a.56.56,0,0,1-.75.69l-1.15-.44a.56.56,0,0,0-.53.06l-1,.69a.57.57,0,0,1-.89-.5l.07-1.23a.58.58,0,0,0-.22-.49l-1-.75a.57.57,0,0,1,.2-1l1.2-.32a.56.56,0,0,0,.39-.36l.42-1.16A.56.56,0,0,1,82.78,85.64Z" style="fill:#e0e0e0"></path><circle cx="214.19" cy="112.8" r="2.12" style="fill:#e0e0e0"></circle><path d="M345.89,139.79a2.12,2.12,0,1,1-2.12-2.12A2.12,2.12,0,0,1,345.89,139.79Z" style="fill:#e0e0e0"></path><path d="M318.44,101.23a2.12,2.12,0,1,1-2.12-2.12A2.12,2.12,0,0,1,318.44,101.23Z" style="fill:#e0e0e0"></path><circle cx="392.33" cy="165.13" r="2.12" style="fill:#e0e0e0"></circle><circle cx="220.03" cy="120.64" r="1.06" style="fill:#e0e0e0"></circle><circle cx="200.48" cy="131.05" r="1.06" style="fill:#e0e0e0"></circle><path d="M263.25,88.65a1.06,1.06,0,0,1-2.12,0,1.06,1.06,0,0,1,2.12,0Z" style="fill:#e0e0e0"></path><circle cx="373.21" cy="133.94" r="1.06" style="fill:#e0e0e0"></circle><circle cx="407.37" cy="160.31" r="1.06" style="fill:#e0e0e0"></circle><circle cx="392.33" cy="173.09" r="1.06" style="fill:#e0e0e0"></circle><circle cx="327.91" cy="107.78" r="1.06" style="fill:#e0e0e0"></circle><circle cx="246.59" cy="103.35" r="1.06" style="fill:#e0e0e0"></circle><path d="M364.05,120.64a1.06,1.06,0,1,1-2.12,0,1.06,1.06,0,1,1,2.12,0Z" style="fill:#e0e0e0"></path><circle cx="286.05" cy="107.78" r="1.06" style="fill:#e0e0e0"></circle></g><g id="freepik--Clouds--inject-728"><path d="M103.42,127.35a5.47,5.47,0,0,0-2.28.5,7.34,7.34,0,1,0-14.56-1.79,4.39,4.39,0,0,0-7,3.51,4.33,4.33,0,0,0,.28,1.53h-4a3.65,3.65,0,1,0,0,7.3h27.6a5.53,5.53,0,0,0,0-11.05Zm-15.35,3.71,0,0h0Z" style="fill:#e0e0e0"></path><path d="M191.43,65.86a4.2,4.2,0,0,0-1.77.39,5.23,5.23,0,0,0,.09-1,5.71,5.71,0,0,0-11.4-.42,3.4,3.4,0,0,0-5.45,2.72,3.58,3.58,0,0,0,.21,1.19H170a2.84,2.84,0,1,0,0,5.67h21.44a4.29,4.29,0,0,0,0-8.58Zm-11.92,2.88,0,0h0Z" style="fill:#e0e0e0"></path></g></svg>