<svg xmlns="http://www.w3.org/2000/svg" viewBox="0 0 500 500"><g id="freepik--Floor--inject-479"><ellipse id="freepik--floor--inject-479" cx="248.06" cy="353.24" rx="227.47" ry="131.33" style="fill:#f5f5f5"></ellipse></g><g id="freepik--Shadow--inject-479"><ellipse id="freepik--shadow--inject-479" cx="115.1" cy="386.77" rx="70.54" ry="40.73" style="fill:#e0e0e0"></ellipse></g><g id="freepik--speech-bubble-2--inject-479"><g id="freepik--speech-bubble--inject-479"><g id="freepik--speech-bubble--inject-479"><polygon points="240.87 416.61 232.74 411.92 232.74 341.56 378.98 257.13 387.1 261.82 387.1 332.18 240.87 416.61" style="fill:#BA68C8"></polygon><polygon points="240.87 416.61 232.74 411.92 232.74 341.56 378.98 257.13 387.1 261.82 387.1 332.18 240.87 416.61" style="opacity:0.2"></polygon><polygon points="240.87 346.25 387.1 261.82 387.1 332.18 240.87 416.61 240.87 346.25" style="fill:#BA68C8"></polygon><path d="M322.11,299.35l-8.13-4.7a39,39,0,0,1-14.05-3.35,40.38,40.38,0,0,1-6.26-5.74c-12.37-14,0-40.15,0-40.15l-6.57-3.8c-25.38,22.87-34.05,51.74-17.8,78.84l8.13,4.69Z" style="fill:#BA68C8"></path><path d="M322.11,299.35l-8.13-4.7a39,39,0,0,1-14.05-3.35,40.38,40.38,0,0,1-6.26-5.74c-12.37-14,0-40.15,0-40.15l-6.57-3.8c-25.38,22.87-34.05,51.74-17.8,78.84l8.13,4.69Z" style="opacity:0.2"></path><path d="M277.43,325.14c-16.25-27.1-9.14-56.87,16.24-79.73,0,0-12.37,26.16,0,40.15a41.16,41.16,0,0,0,28.44,13.79Z" style="fill:#BA68C8"></path></g><path d="M289.81,359.76a5.6,5.6,0,0,1,2-.75,2,2,0,0,1,1.49.3,2.63,2.63,0,0,1,1,1.39,7.58,7.58,0,0,1,.34,2.5,11.73,11.73,0,0,1-.34,2.91,10.21,10.21,0,0,1-1,2.48,9.25,9.25,0,0,1-3.46,3.56l-2.2,1.26v5.39a1.24,1.24,0,0,1-.14.58.9.9,0,0,1-.32.4l-2.25,1.3a.24.24,0,0,1-.32,0,.51.51,0,0,1-.14-.42V363.57a1.27,1.27,0,0,1,.14-.58,1,1,0,0,1,.32-.4Zm-2.2,9.54,2.11-1.22a3.36,3.36,0,0,0,1.19-1.18,3.44,3.44,0,0,0,.48-1.87c0-.74-.16-1.18-.48-1.33a1.34,1.34,0,0,0-1.19.2l-2.11,1.22Z" style="fill:#455a64"></path><path d="M304.61,365.47a.26.26,0,0,1,.33,0,.57.57,0,0,1,.13.42v2.8a1.36,1.36,0,0,1-.13.58,1,1,0,0,1-.33.4l-7.94,4.59a.25.25,0,0,1-.33,0,.57.57,0,0,1-.13-.42V356.78a1.36,1.36,0,0,1,.13-.58.85.85,0,0,1,.33-.4l2.25-1.3a.24.24,0,0,1,.32,0,.57.57,0,0,1,.14.42V368.5Z" style="fill:#455a64"></path><path d="M315.14,359.39a.25.25,0,0,1,.33,0,.57.57,0,0,1,.13.42v2.8a1.36,1.36,0,0,1-.13.58.85.85,0,0,1-.33.4L307,368.31a.25.25,0,0,1-.33,0,.57.57,0,0,1-.13-.42V350.81a1.36,1.36,0,0,1,.13-.58,1,1,0,0,1,.33-.4l8-4.61a.24.24,0,0,1,.33,0,.57.57,0,0,1,.14.42v2.8a1.37,1.37,0,0,1-.14.58.85.85,0,0,1-.33.4l-5.28,3.05v2.85l4.91-2.83a.25.25,0,0,1,.32,0,.58.58,0,0,1,.14.43v2.79a1.42,1.42,0,0,1-.14.59.86.86,0,0,1-.32.39l-4.91,2.84v2.95Z" style="fill:#455a64"></path><path d="M323.92,340.07c.23-.14.41-.14.53,0a1,1,0,0,1,.24.44L328.43,355a1.18,1.18,0,0,1,.07.35,1.2,1.2,0,0,1-.11.48.63.63,0,0,1-.27.32L326,357.37c-.23.13-.39.15-.49.06a.62.62,0,0,1-.17-.33l-.49-1.92-4.56,2.64-.48,2.47a1.89,1.89,0,0,1-.18.54,1.18,1.18,0,0,1-.49.5l-2.16,1.25a.2.2,0,0,1-.26,0,.43.43,0,0,1-.12-.34,2.87,2.87,0,0,1,.07-.44L320.37,343a4,4,0,0,1,.25-.73,1.25,1.25,0,0,1,.52-.59Zm-2.78,13.14,2.78-1.61-1.39-5.53Z" style="fill:#455a64"></path><path d="M334.13,333.91a4.57,4.57,0,0,1,2-.68,3,3,0,0,1,1.59.34,2.76,2.76,0,0,1,1,1.09,3.35,3.35,0,0,1,.39,1.54,1.12,1.12,0,0,1-.11.47.73.73,0,0,1-.25.32l-2.25,1.3a.6.6,0,0,1-.38.11.59.59,0,0,1-.3-.14s-.09-.09-.17-.17a.79.79,0,0,0-.31-.2,1.2,1.2,0,0,0-.52-.05,2.11,2.11,0,0,0-.75.3,4.31,4.31,0,0,0-.63.42,3.27,3.27,0,0,0-.53.52,2.64,2.64,0,0,0-.38.63,2,2,0,0,0-.14.74.81.81,0,0,0,.16.57.75.75,0,0,0,.55.17,4.62,4.62,0,0,0,1-.15l1.58-.41a5.46,5.46,0,0,1,1.64-.22,2,2,0,0,1,1.18.45,2.4,2.4,0,0,1,.7,1.18,7.06,7.06,0,0,1,.23,2,9.06,9.06,0,0,1-.39,2.63,10.56,10.56,0,0,1-1.11,2.45,10.68,10.68,0,0,1-1.68,2.11,10,10,0,0,1-2.12,1.62,5.25,5.25,0,0,1-2.12.76,3,3,0,0,1-1.66-.3,2.76,2.76,0,0,1-1.09-1.13,3.85,3.85,0,0,1-.41-1.74A1.2,1.2,0,0,1,329,350a.75.75,0,0,1,.25-.31l2.25-1.3a.81.81,0,0,1,.38-.13.54.54,0,0,1,.27.12l.21.23a1.13,1.13,0,0,0,.36.27,1.18,1.18,0,0,0,.59.1,2,2,0,0,0,.86-.31,6.45,6.45,0,0,0,1.52-1.18,2.07,2.07,0,0,0,.61-1.45.57.57,0,0,0-.22-.53,1.09,1.09,0,0,0-.67-.1,5.72,5.72,0,0,0-1.14.22c-.47.12-1,.27-1.64.42a2.49,2.49,0,0,1-2.58-.45,4.74,4.74,0,0,1-.82-3.16,9,9,0,0,1,.34-2.36,11.15,11.15,0,0,1,2.5-4.52A8.27,8.27,0,0,1,334.13,333.91Z" style="fill:#455a64"></path><path d="M349.82,339.37a.27.27,0,0,1,.33,0,.6.6,0,0,1,.13.43v2.8a1.39,1.39,0,0,1-.13.58.9.9,0,0,1-.33.4l-8.13,4.69a.24.24,0,0,1-.32,0,.54.54,0,0,1-.14-.43v-17a1.21,1.21,0,0,1,.14-.58.84.84,0,0,1,.32-.4l8-4.62a.25.25,0,0,1,.33,0,.54.54,0,0,1,.14.42v2.8a1.41,1.41,0,0,1-.14.58.9.9,0,0,1-.33.4l-5.28,3.05v2.85l4.91-2.83a.23.23,0,0,1,.32,0,.57.57,0,0,1,.14.42v2.8a1.34,1.34,0,0,1-.14.58.84.84,0,0,1-.32.4l-4.91,2.83v3Z" style="fill:#455a64"></path><path d="M355.19,334.11a1.41,1.41,0,0,1-.14.58,1,1,0,0,1-.32.4l-2.16,1.24a.24.24,0,0,1-.33,0,.57.57,0,0,1-.14-.42V324.51a1.34,1.34,0,0,1,.14-.58.8.8,0,0,1,.33-.4l2.16-1.25a.25.25,0,0,1,.32,0,.58.58,0,0,1,.14.43Zm0,5.68a1.41,1.41,0,0,1-.14.58.86.86,0,0,1-.32.39L352.57,342a.24.24,0,0,1-.33,0,.57.57,0,0,1-.14-.42V338.9a1.37,1.37,0,0,1,.14-.58.85.85,0,0,1,.33-.4l2.16-1.25a.24.24,0,0,1,.32,0,.54.54,0,0,1,.14.42Z" style="fill:#455a64"></path><path d="M360.37,331.12a1.41,1.41,0,0,1-.14.58,1,1,0,0,1-.32.4l-2.16,1.24a.24.24,0,0,1-.33,0,.57.57,0,0,1-.14-.42V321.52a1.34,1.34,0,0,1,.14-.58.8.8,0,0,1,.33-.4l2.16-1.25a.24.24,0,0,1,.32,0,.58.58,0,0,1,.14.43Zm0,5.68a1.41,1.41,0,0,1-.14.58.86.86,0,0,1-.32.39L357.75,339a.25.25,0,0,1-.33,0,.57.57,0,0,1-.14-.42v-2.67a1.37,1.37,0,0,1,.14-.58.85.85,0,0,1,.33-.4l2.16-1.25a.24.24,0,0,1,.32,0,.54.54,0,0,1,.14.42Z" style="fill:#455a64"></path><path d="M365.55,328.13a1.41,1.41,0,0,1-.14.58,1,1,0,0,1-.32.4l-2.16,1.24a.24.24,0,0,1-.33,0,.57.57,0,0,1-.14-.42V318.53a1.34,1.34,0,0,1,.14-.58.8.8,0,0,1,.33-.4l2.16-1.25a.24.24,0,0,1,.32,0,.58.58,0,0,1,.14.43Zm0,5.67a1.42,1.42,0,0,1-.14.59.86.86,0,0,1-.32.39L362.93,336a.25.25,0,0,1-.33,0,.57.57,0,0,1-.14-.42v-2.67a1.37,1.37,0,0,1,.14-.58.8.8,0,0,1,.33-.4l2.16-1.25a.24.24,0,0,1,.32,0,.54.54,0,0,1,.14.42Z" style="fill:#455a64"></path><path d="M277.18,339.16c.25-.15.44-.15.58,0a1.15,1.15,0,0,1,.27.48l4.15,16.06a1.41,1.41,0,0,1,.08.39,1.29,1.29,0,0,1-.13.53.84.84,0,0,1-.29.36l-2.4,1.38q-.37.22-.54.06a.59.59,0,0,1-.2-.36l-.53-2.13-5.06,2.92-.53,2.74a2.41,2.41,0,0,1-.21.6,1.17,1.17,0,0,1-.54.56l-2.39,1.39a.24.24,0,0,1-.3,0,.54.54,0,0,1-.12-.39,2.55,2.55,0,0,1,.07-.48l4.15-20.84a3.5,3.5,0,0,1,.28-.8,1.34,1.34,0,0,1,.58-.66Zm-3.08,14.57,3.08-1.77-1.54-6.14Z" style="fill:#455a64"></path><path d="M292.24,330.46a.27.27,0,0,1,.36,0,.63.63,0,0,1,.15.47v3.1a1.54,1.54,0,0,1-.15.65,1,1,0,0,1-.36.44l-3.35,1.93v15a1.54,1.54,0,0,1-.15.65,1,1,0,0,1-.36.44l-2.49,1.44a.27.27,0,0,1-.36,0,.63.63,0,0,1-.16-.47v-15L282,341.05a.27.27,0,0,1-.36,0,.59.59,0,0,1-.16-.47v-3.1a1.42,1.42,0,0,1,.16-.65,1,1,0,0,1,.36-.44Z" style="fill:#455a64"></path><path d="M304.24,323.54a.26.26,0,0,1,.36,0,.63.63,0,0,1,.15.47v3.1a1.54,1.54,0,0,1-.15.65,1,1,0,0,1-.36.44l-3.35,1.93v15a1.54,1.54,0,0,1-.15.65,1,1,0,0,1-.36.44l-2.49,1.44a.27.27,0,0,1-.36,0,.61.61,0,0,1-.15-.46v-15L294,334.12a.27.27,0,0,1-.36,0,.59.59,0,0,1-.16-.47v-3.1a1.42,1.42,0,0,1,.16-.65,1,1,0,0,1,.36-.44Z" style="fill:#455a64"></path><path d="M316,332.56a.27.27,0,0,1,.36,0,.61.61,0,0,1,.15.46v3.11a1.5,1.5,0,0,1-.15.64,1,1,0,0,1-.36.45l-9,5.2a.28.28,0,0,1-.36,0,.65.65,0,0,1-.15-.47V323a1.5,1.5,0,0,1,.15-.64A.94.94,0,0,1,307,322l8.86-5.11a.27.27,0,0,1,.36,0,.61.61,0,0,1,.16.47v3.1a1.42,1.42,0,0,1-.16.65,1,1,0,0,1-.36.44L310,324.9v3.17l5.44-3.14a.29.29,0,0,1,.37,0,.65.65,0,0,1,.15.47v3.1a1.54,1.54,0,0,1-.15.65,1,1,0,0,1-.37.44L310,332.75V336Z" style="fill:#455a64"></path><path d="M327.35,330.69c-.22.12-.39.14-.52,0a.89.89,0,0,1-.26-.26l-4.36-7.5v9.89a1.54,1.54,0,0,1-.15.65,1,1,0,0,1-.36.44l-2.49,1.44a.27.27,0,0,1-.36,0,.61.61,0,0,1-.15-.46V316a1.5,1.5,0,0,1,.15-.64.94.94,0,0,1,.36-.45l2-1.14c.21-.12.39-.14.52,0a1,1,0,0,1,.26.26l4.35,7.5v-9.89a1.54,1.54,0,0,1,.15-.65,1,1,0,0,1,.37-.44l2.49-1.44a.27.27,0,0,1,.36,0,.63.63,0,0,1,.15.47v18.91a1.54,1.54,0,0,1-.15.65,1,1,0,0,1-.36.44Z" style="fill:#455a64"></path><path d="M342.28,301.57a.27.27,0,0,1,.36,0,.63.63,0,0,1,.15.47v3.1a1.54,1.54,0,0,1-.15.65,1,1,0,0,1-.36.44l-3.35,1.93v15a1.54,1.54,0,0,1-.15.65,1,1,0,0,1-.36.44l-2.49,1.44a.27.27,0,0,1-.36,0,.58.58,0,0,1-.16-.47v-15l-3.34,1.94a.29.29,0,0,1-.37,0,.63.63,0,0,1-.15-.47v-3.1a1.54,1.54,0,0,1,.15-.65,1,1,0,0,1,.37-.44Z" style="fill:#455a64"></path><path d="M345,320.49a.27.27,0,0,1-.36,0,.61.61,0,0,1-.16-.46V301.08a1.51,1.51,0,0,1,.16-.64A.94.94,0,0,1,345,300l2.49-1.44a.27.27,0,0,1,.36,0,.63.63,0,0,1,.15.47V318a1.54,1.54,0,0,1-.15.65,1,1,0,0,1-.36.44Z" style="fill:#455a64"></path><path d="M350.25,304.62a16.87,16.87,0,0,1,.46-3.36,15.34,15.34,0,0,1,1.16-3.19,13.57,13.57,0,0,1,1.83-2.75,9.63,9.63,0,0,1,2.48-2.07,5,5,0,0,1,2.47-.79,2.76,2.76,0,0,1,1.84.63,4.12,4.12,0,0,1,1.16,1.85,10.12,10.12,0,0,1,.47,2.82c0,.83,0,1.7,0,2.62s0,1.78,0,2.6a16.89,16.89,0,0,1-.47,3.35,15.15,15.15,0,0,1-1.16,3.21,12.35,12.35,0,0,1-1.84,2.75,9.68,9.68,0,0,1-2.47,2,5.12,5.12,0,0,1-2.48.81,2.67,2.67,0,0,1-1.83-.64,4.18,4.18,0,0,1-1.16-1.86,10.14,10.14,0,0,1-.46-2.82c0-.79,0-1.64,0-2.56S350.22,305.47,350.25,304.62Zm8.35.24c0-.36,0-.76,0-1.19s0-.88,0-1.33,0-.88,0-1.29,0-.78,0-1.11a5.27,5.27,0,0,0-.2-1.23,1.86,1.86,0,0,0-.46-.81,1.11,1.11,0,0,0-.73-.29,2,2,0,0,0-1,.33,4,4,0,0,0-1,.86,5.16,5.16,0,0,0-.73,1.14,6.31,6.31,0,0,0-.45,1.33,7.78,7.78,0,0,0-.2,1.46c0,.35,0,.73,0,1.16s0,.85,0,1.3,0,.89,0,1.32,0,.8,0,1.14a3.27,3.27,0,0,0,.65,2.05c.39.42,1,.41,1.76-.05a4.11,4.11,0,0,0,1.75-2A8.45,8.45,0,0,0,358.6,304.86Z" style="fill:#455a64"></path><path d="M373,304.34a.48.48,0,0,1-.52,0,.91.91,0,0,1-.26-.27l-4.35-7.49v9.89a1.54,1.54,0,0,1-.15.65,1,1,0,0,1-.37.44L364.85,309a.27.27,0,0,1-.36,0,.63.63,0,0,1-.15-.47V289.63a1.54,1.54,0,0,1,.15-.65,1,1,0,0,1,.36-.44l2-1.14a.46.46,0,0,1,.53,0,1,1,0,0,1,.25.26l4.36,7.5v-9.9a1.53,1.53,0,0,1,.15-.64,1,1,0,0,1,.36-.44L375,282.7a.28.28,0,0,1,.36,0,.65.65,0,0,1,.16.47v18.92a1.51,1.51,0,0,1-.16.64.94.94,0,0,1-.36.45Z" style="fill:#455a64"></path><g id="freepik--Exclamation--inject-479"><path d="M257,383.57l-4,2.13a.84.84,0,0,1-1.35-.79L251,355.38a2.65,2.65,0,0,1,1.29-2.19l7.6-4c.73-.39,1.26,0,1.19.79l-2.72,31.44A3.08,3.08,0,0,1,257,383.57Z" style="fill:#fafafa"></path><path d="M254.41,399.34c-2.55,1.36-4-.56-3.9-3.17a9.52,9.52,0,0,1,4.28-7.53c2.57-1.36,4,.56,3.91,3.17A9.5,9.5,0,0,1,254.41,399.34Z" style="fill:#fafafa"></path></g><g id="freepik--Lines--inject-479"><path d="M213.2,359.63a1.23,1.23,0,0,1-.5-2.35l12.65-5.56a1.22,1.22,0,0,1,1,2.24l-12.65,5.56A1.24,1.24,0,0,1,213.2,359.63Z" style="fill:#455a64"></path><path d="M227.35,341.21a1.2,1.2,0,0,1-.45-.09l-14.07-5.56a1.23,1.23,0,1,1,.9-2.28l14.07,5.56a1.23,1.23,0,0,1-.45,2.37Z" style="fill:#455a64"></path><path d="M233.66,328.79a1.24,1.24,0,0,1-1.06-.59l-6.94-11.59a1.22,1.22,0,1,1,2.1-1.26l7,11.59a1.22,1.22,0,0,1-1.05,1.85Z" style="fill:#455a64"></path><path d="M396.09,321.3a1.21,1.21,0,0,1-1.09-.65,1.23,1.23,0,0,1,.51-1.66l12.69-6.66a1.23,1.23,0,1,1,1.14,2.17l-12.69,6.66A1.14,1.14,0,0,1,396.09,321.3Z" style="fill:#455a64"></path><path d="M409.55,338.09a1.24,1.24,0,0,1-.33,0L394.68,334a1.23,1.23,0,0,1,.66-2.36l14.54,4.07a1.23,1.23,0,0,1-.33,2.41Z" style="fill:#455a64"></path><path d="M396.52,357.43a1.21,1.21,0,0,1-1-.52L388,346.25a1.23,1.23,0,0,1,2-1.41l7.49,10.66a1.22,1.22,0,0,1-.3,1.71A1.21,1.21,0,0,1,396.52,357.43Z" style="fill:#455a64"></path></g></g></g><g id="freepik--speech-bubble-1--inject-479"><g id="freepik--Alert--inject-479"><g id="freepik--Bubble--inject-479"><path d="M182.63,22.27C187,19.78,193,20.16,199.69,24c13.38,7.73,24.24,26.52,24.24,42,0,7.72-2.71,13.15-7.09,15.68l-8.29,4.77c-4.38,2.52-10.43,2.16-17.12-1.7-13.38-7.73-24.24-26.53-24.24-42,0-7.71,2.7-13.13,7.07-15.67C176.09,26,180.77,23.32,182.63,22.27Z" style="fill:#BA68C8"></path><path d="M182.63,22.27C187,19.78,193,20.16,199.69,24c13.38,7.73,24.24,26.52,24.24,42,0,7.72-2.71,13.15-7.09,15.68l-8.29,4.77c-4.38,2.52-10.43,2.16-17.12-1.7-13.38-7.73-24.24-26.53-24.24-42,0-7.71,2.7-13.13,7.07-15.67C176.09,26,180.77,23.32,182.63,22.27Z" style="opacity:0.15"></path><path d="M204.9,86.77a18.25,18.25,0,0,0,6.06,6,16.9,16.9,0,0,0,9.1,2.29,1,1,0,0,0,.43-.1l8.24-4.75a.82.82,0,0,0,0-1.43,14.67,14.67,0,0,1-7.57-11.39Z" style="fill:#BA68C8"></path><path d="M204.9,86.77a18.25,18.25,0,0,0,6.06,6,16.9,16.9,0,0,0,9.1,2.29,1,1,0,0,0,.43-.1l8.24-4.75a.82.82,0,0,0,0-1.43,14.67,14.67,0,0,1-7.57-11.39Z" style="opacity:0.25"></path><ellipse cx="191.43" cy="56.74" rx="19.79" ry="34.28" transform="translate(-2.73 103.32) rotate(-30)" style="fill:#BA68C8"></ellipse><path d="M213,78.51a14.66,14.66,0,0,0,7.49,15,.83.83,0,0,1-.4,1.55,17,17,0,0,1-9.11-2.3c-6.44-4.08-7.25-8.91-7.25-8.91Z" style="fill:#BA68C8"></path></g><g id="freepik--alert--inject-479"><path d="M188.9,63.56,192,65.22a.65.65,0,0,0,1.05-.61l.43-23a2.08,2.08,0,0,0-1-1.71l-5.92-3.15c-.57-.3-1,0-.93.61l2.12,24.51A2.35,2.35,0,0,0,188.9,63.56Z" style="fill:#fafafa"></path><path d="M190.87,75.86c2,1.06,3.12-.44,3-2.47a7.42,7.42,0,0,0-3.35-5.87c-2-1.07-3.12.44-3,2.47A7.38,7.38,0,0,0,190.87,75.86Z" style="fill:#fafafa"></path></g></g></g><g id="freepik--Megaphone--inject-479"><g id="freepik--megaphone--inject-479"><circle cx="435.37" cy="80.81" r="34.66" style="fill:#455a64"></circle><path d="M452.71,85.19,413.6,107.78a34.66,34.66,0,0,0,50.51-46.35C467.21,70.27,465.29,77.93,452.71,85.19Z" style="fill:#37474f"></path><path d="M428.56,104.74l-24.15-14c7.42,27.88,11.57,69.72,9.66,100.39l9.66,5.58C429.38,178.3,430.65,140.64,428.56,104.74Z" style="fill:#37474f"></path><path d="M457.92,104.51l-10.18,13-.26,37.95a48.39,48.39,0,0,1-23.75,41.33h0c5.78-22,6.44-59.33,4.83-92Z" style="fill:#455a64"></path><path d="M425.79,147.74l.71.41a4.53,4.53,0,0,0,4.12,0l5.53-3.19c1.14-.66,2.06-.13,2.06,1.19V147a4.53,4.53,0,0,1-2.06,3.56l-5.62,3.26a4.49,4.49,0,0,1-4.1,0l-.66-.4a4.64,4.64,0,0,1-2-3.6v-.82C423.73,147.62,424.65,147.08,425.79,147.74Z" style="fill:#BA68C8"></path><path d="M424.92,160.17l.71.41a4.53,4.53,0,0,0,4.12,0l5.53-3.19c1.14-.66,2.06-.13,2.06,1.19v.81a4.54,4.54,0,0,1-2,3.56l-5.62,3.26a4.49,4.49,0,0,1-4.1,0l-.67-.4a4.68,4.68,0,0,1-2-3.6v-.82C422.86,160,423.78,159.51,424.92,160.17Z" style="fill:#BA68C8"></path><path d="M424.06,172.6l.71.41a4.53,4.53,0,0,0,4.12,0l5.53-3.19c1.14-.66,2.06-.13,2.06,1.19v.8a4.53,4.53,0,0,1-2.06,3.57l-5.62,3.26a4.49,4.49,0,0,1-4.1,0l-.66-.4a4.65,4.65,0,0,1-2-3.6v-.82C422,172.47,422.92,171.94,424.06,172.6Z" style="fill:#BA68C8"></path><path d="M390.19,60h0c4.63-2.66,10.88-2.56,17.81.83.73.35,1.46.74,2.21,1.17s1.74,1,2.6,1.64A43.47,43.47,0,0,1,417,66.8a56,56,0,0,1,7,7.13A68.29,68.29,0,0,1,436.7,98.25a47.84,47.84,0,0,1,1.88,12.84c0,8.82-3,15.08-7.93,18.13l17.46-10.06,0,0a22.57,22.57,0,0,0,10.29-19.47,47.37,47.37,0,0,0-1.72-12.26A68,68,0,0,0,443.72,62.5a56,56,0,0,0-7-7.13,41.89,41.89,0,0,0-4.13-3.19c-.86-.59-1.73-1.14-2.6-1.64a23.55,23.55,0,0,0-2.23-1.15,22.35,22.35,0,0,0-19.78.33h0l-.49.27c-.2.12-.42.24-.62.37Z" style="fill:#BA68C8"></path><path d="M448.11,119.16l0,0a22.57,22.57,0,0,0,10.29-19.47,47.37,47.37,0,0,0-1.72-12.26l-20,10.86a47.84,47.84,0,0,1,1.88,12.84c0,8.82-3,15.08-7.93,18.13Z" style="opacity:0.1"></path><path d="M381.87,78.34c0,18.09,12.69,40.08,28.35,49.12,7.87,4.55,15,5,20.15,1.92a2,2,0,0,0,.28-.16c4.91-3,7.93-9.31,7.93-18.13C438.58,93,425.89,71,410.23,62c-7.81-4.51-14.9-4.95-20-2S381.87,69.28,381.87,78.34Z" style="fill:#BA68C8"></path><path d="M381.87,78.34c0,18.09,12.69,40.08,28.35,49.12,7.87,4.55,15,5,20.15,1.92a2,2,0,0,0,.28-.16c4.91-3,7.93-9.31,7.93-18.13C438.58,93,425.89,71,410.23,62c-7.81-4.51-14.9-4.95-20-2S381.87,69.28,381.87,78.34Z" style="opacity:0.2"></path><path d="M294.92,73.66s28.61,14.69,53,57a193.1,193.1,0,0,1,11.6,23.59c12.27,30.11,11.25,50.84,11.25,50.84,8.53-20.88,19.13-42.5,36.81-59.06a268.42,268.42,0,0,1,21.75-18.18l0,0c4.68-2.72,7.41-8.62,7.42-16.75a49.1,49.1,0,0,0-3.21-16.66A65.6,65.6,0,0,0,428.72,84c-5-8.61-11.84-16.12-19.4-20.49-7-4.06-13.52-4.65-18.21-2v0a267.22,267.22,0,0,1-26.62,9.74C341.3,78.35,317.27,76.72,294.92,73.66Z" style="fill:#BA68C8"></path><path d="M294.92,73.66s28.61,14.69,53,57a193.1,193.1,0,0,1,11.6,23.59c12.27,30.11,11.25,50.84,11.25,50.84,8.53-20.88,19.13-42.5,36.81-59.06a268.42,268.42,0,0,1,21.75-18.18l0,0c4.68-2.72,7.41-8.62,7.42-16.75a49.1,49.1,0,0,0-3.21-16.66A65.6,65.6,0,0,0,428.72,84c-5-8.61-11.84-16.12-19.4-20.49-7-4.06-13.52-4.65-18.21-2v0a267.22,267.22,0,0,1-26.62,9.74C341.3,78.35,317.27,76.72,294.92,73.66Z" style="fill:#fff;opacity:0.6000000000000001"></path><path d="M359.56,154.26c12.27,30.11,11.25,50.84,11.25,50.84,8.53-20.88,19.13-42.5,36.81-59.06a268.42,268.42,0,0,1,21.75-18.18l0,0c4.68-2.72,7.41-8.62,7.42-16.75a49.1,49.1,0,0,0-3.21-16.66C411.88,105.28,376.81,125.3,359.56,154.26Z" style="opacity:0.1"></path><path d="M241,114.48c0,18.86,5.8,39.51,15.47,58.57h0c12.39,24.42,31.09,46.22,52,58.3,37.27,21.51,67.48,4.07,67.48-39a114.79,114.79,0,0,0-4.46-30.5c-7.12-25.45-22.12-50.94-40.89-69.3q-4-3.88-8.13-7.31c-1.16-1-2.33-1.88-3.51-2.77h0c-1.68-1.27-3.37-2.49-5.08-3.63s-3.58-2.32-5.4-3.36C271.25,54,241,71.45,241,114.48Z" style="fill:#BA68C8"></path><path d="M256.5,173.06c12.39,24.42,31.09,46.22,52,58.3,37.27,21.51,67.48,4.07,67.48-39a114.79,114.79,0,0,0-4.46-30.5h0c-2.52,5.56-11.58,13.51-15.63,7.94a103.43,103.43,0,0,1,3.91,27.06c0,12.36-2.76,22.34-8,28.87-4.45,5.57-10.56,8.4-18.16,8.38-7.38,0-16-2.71-24.83-7.81-17.8-10.27-34.17-28.74-45.77-49.66C263.07,176.68,260.75,178.64,256.5,173.06Z" style="opacity:0.1"></path><path d="M245.65,116.89c0,19,6.67,40.45,17.42,59.79,11.6,20.92,28,39.39,45.77,49.66,8.86,5.1,17.45,7.83,24.83,7.81,7.6,0,13.71-2.81,18.16-8.38,5.21-6.53,8-16.51,8-28.87a103.43,103.43,0,0,0-3.91-27.06c-1-3.49-2.07-7-3.35-10.5a149,149,0,0,0-8-18.06c-.63-1.22-1.27-2.42-1.93-3.61-1.08-2-2.21-4-3.39-5.88A151.34,151.34,0,0,0,326,113.07c-.05-.06-.12-.13-.17-.2a133.66,133.66,0,0,0-10.07-10.81c-2.51-2.41-5.08-4.65-7.7-6.75-1.09-.88-2.2-1.72-3.32-2.54-1.34-1-2.7-1.92-4.06-2.82s-2.68-1.69-4-2.47c-8.89-5.14-17.47-7.83-24.86-7.84C255.41,79.64,245.65,93.58,245.65,116.89Z" style="fill:#BA68C8"></path><path d="M245.65,116.89c0,19,6.67,40.45,17.42,59.79,11.6,20.92,28,39.39,45.77,49.66,8.86,5.1,17.45,7.83,24.83,7.81,7.6,0,13.71-2.81,18.16-8.38,5.21-6.53,8-16.51,8-28.87a103.43,103.43,0,0,0-3.91-27.06c-1-3.49-2.07-7-3.35-10.5a149,149,0,0,0-8-18.06c-.63-1.22-1.27-2.42-1.93-3.61-1.08-2-2.21-4-3.39-5.88A151.34,151.34,0,0,0,326,113.07c-.05-.06-.12-.13-.17-.2a133.66,133.66,0,0,0-10.07-10.81c-2.51-2.41-5.08-4.65-7.7-6.75-1.09-.88-2.2-1.72-3.32-2.54-1.34-1-2.7-1.92-4.06-2.82s-2.68-1.69-4-2.47c-8.89-5.14-17.47-7.83-24.86-7.84C255.41,79.64,245.65,93.58,245.65,116.89Z" style="opacity:0.4"></path><path d="M294.45,133.27l23,40.71c9.67-5.12,21.43-11.49,36.3-11.15-.38-1.16-.78-2.32-1.21-3.48a149.94,149.94,0,0,0-8-18.07q-.94-1.82-1.92-3.6c-1.09-2-2.22-4-3.39-5.89A152.92,152.92,0,0,0,326,113.07c0-.06-.12-.13-.17-.2-.71-.84-1.42-1.69-2.15-2.51C316.25,123.54,294.45,133.27,294.45,133.27Z" style="fill:#37474f"></path><path d="M314.27,174.63c5,0,8-4,8-10.85v-.21c0-10.67-7.53-23.7-16.77-29l-.18-.1a14.39,14.39,0,0,0-7-2.18c-5,0-8,4.06-8,10.85v.21c0,10.67,7.53,23.7,16.77,29l.18.11a14.48,14.48,0,0,0,7,2.17Z" style="fill:#BA68C8"></path></g></g><g id="freepik--Character--inject-479"><g id="freepik--character--inject-479"><g id="freepik--Bottom--inject-479"><path d="M150.29,361c.32-4.22,3.25-46.8,3.25-46.8L133,329.34c3,24.41,4.21,31,4.29,35h0a3.42,3.42,0,0,0-.11,1c0,4.83,5.46,7.43,9.72,10.65a78.85,78.85,0,0,0,11.49,7.51c3.09,1.55,9.36,1.69,10.14-.3-5.17-3.95-11.16-8.26-15.28-12.77C151.3,368.33,149.9,366.09,150.29,361Z" style="fill:#ffa8a7"></path><path d="M177.36,388.46c.26,0,.66,2.92-.78,4.17-1.66,1.43-6.54,3.78-13,2.95s-9.94-2.83-12.52-5-6.2-5.21-9.12-5.85c-2.71-.6-5.65-1.83-6.52-2.67s-.75-4.56-.75-4.56Z" style="fill:#263238"></path><path d="M137.26,363.18a1,1,0,0,0-1,.87c-.2,1-.41,4-.84,5.69a30.38,30.38,0,0,0-.64,9.05c.36,1.91,4.78,3.24,7.6,4.31a36.23,36.23,0,0,1,9.15,5.78c3,2.5,9.4,5.1,13.61,5.07,5,0,10.57-1.65,11.85-3.95,1.59-2.86.35-4.51-7-7.93-1.39-.64-6.3-3.55-8-4.6-4.52-2.85-9-6.81-11.08-11.84a2.8,2.8,0,0,0-1.06-1.54,2.32,2.32,0,0,0-1.43-.13,11.94,11.94,0,0,0-3.55,1.07c-1,.47-2.4,1-2.37,2.28a4.07,4.07,0,0,0,.27,1.29c.09.26.16.61-.07.76s-.49,0-.68-.19a19,19,0,0,1-2-2.39,7.32,7.32,0,0,0-1.17-1.19,10.9,10.9,0,0,1-1.26-.82C137.17,364.33,137.28,363.77,137.26,363.18Z" style="fill:#37474f"></path><path d="M151.55,388.88a48.37,48.37,0,0,0-4-3h0s8.68,5.27,12.18,2.88c2.26-1.54,1.19-3.41,1.13-4s5.52-3.17,7.71-3.43h0c.61.34,1.12.61,1.44.76,7.38,3.42,8.62,5.07,7,7.93-1.28,2.3-5.34,4.1-11.76,4.1C161,394.1,154.58,391.38,151.55,388.88Z" style="fill:#455a64"></path><path d="M160.23,383c4.58,1.84,2.62,2.69,1.34,2.88s-9-4.33-13.71-8.05c-4.91-3.89-8-8.14-9.83-9.56-.68-.54-1.41-1.19-2.06-1.8.12-1,.22-1.93.31-2.41a1,1,0,0,1,1-.87c0,.59-.09,1.15.36,1.59a10.9,10.9,0,0,0,1.26.82,7.32,7.32,0,0,1,1.17,1.19,19,19,0,0,0,2,2.39C146,374.25,155.64,381.16,160.23,383Z" style="fill:#263238"></path><path d="M161.24,385.19a.42.42,0,0,1-.28-.1.45.45,0,0,1-.07-.64,10.94,10.94,0,0,1,8.4-3.31.46.46,0,0,1,.41.5.45.45,0,0,1-.5.4,10.11,10.11,0,0,0-7.6,3A.46.46,0,0,1,161.24,385.19Z" style="fill:#f0f0f0"></path><path d="M157.24,382.73a.42.42,0,0,1-.28-.1.46.46,0,0,1-.07-.64,10.91,10.91,0,0,1,8.4-3.31.45.45,0,1,1-.09.9,10.11,10.11,0,0,0-7.6,3A.46.46,0,0,1,157.24,382.73Z" style="fill:#f0f0f0"></path><path d="M153.24,380.4a.48.48,0,0,1-.28-.1.45.45,0,0,1-.07-.64,10.87,10.87,0,0,1,8.4-3.31.45.45,0,1,1-.09.9,10.14,10.14,0,0,0-7.61,3A.44.44,0,0,1,153.24,380.4Z" style="fill:#f0f0f0"></path><path d="M149.54,377.73a.43.43,0,0,1-.29-.1.46.46,0,0,1-.07-.64,11,11,0,0,1,8.41-3.31.45.45,0,0,1,.4.5.45.45,0,0,1-.5.4,10.11,10.11,0,0,0-7.6,3A.44.44,0,0,1,149.54,377.73Z" style="fill:#f0f0f0"></path><path d="M145.9,375.07a.46.46,0,0,1-.28-.1.45.45,0,0,1-.07-.63c1.78-2.25,5.8-3.73,9.17-3.36a.45.45,0,1,1-.09.9c-3-.33-6.79,1-8.37,3A.46.46,0,0,1,145.9,375.07Z" style="fill:#f0f0f0"></path><path d="M101.48,327.13,83.2,319.39c-3.56,13.19-6,31.26-9.26,43.66-.62,2.34-4.68,18-5.21,23-.79,7.55,8,9.08,9.7,4.93s6.68-22.23,7.26-24.11C87.94,359,101.19,327.78,101.48,327.13Z" style="fill:#ffa8a7"></path><path d="M80.76,394.91c-1.06,4.25-2.27,7-4.27,9.22s-5,2.49-7.82,1.2-6.15-4-6.28-7.84.51-6.39,1.92-10.26Z" style="fill:#263238"></path><path d="M74.33,361.54c-1.22-.14-2.66,5.58-4.44,11.24-1.92,6.06-3.57,8.28-5.2,13.24-1.85,5.68-2,8.33-.66,12.23S72,407,76.47,402.59c3.67-3.56,4.65-8.09,5.47-13.95a138.81,138.81,0,0,1,3.2-14.93c1-4.31,2-7.84,1.09-8.52-.2.62-.43,1.42-.64,2s-.72,2.8-1.39,2.7a9.24,9.24,0,0,1,.29-1.64,2,2,0,0,0-.06-1.47A2.35,2.35,0,0,0,83.2,366c-1.14-.45-2.87-1.41-4-1.74a17.9,17.9,0,0,0-1.79-.42,10.46,10.46,0,0,0-2.24-.07,1.1,1.1,0,0,0-.76.47,1.87,1.87,0,0,0-.19.65A4.83,4.83,0,0,1,73.8,366c-.08.16-.24.35-.4.27a.34.34,0,0,1-.13-.38c.13-.71.31-1.2.5-2,.08-.37.24-.88.32-1.25S74.24,361.9,74.33,361.54Z" style="fill:#37474f"></path><path d="M65.28,384.42c-.28.82-2,6.24-.71,7.52s3.15-2.8,3.15-2.8,4.06-.46,9.19,3c-.46.85-.15,4,1.5,3.64s3.44-6.59,3.46-6.67c-.81,5.61-1.84,10-5.4,13.44C72,407,65.41,402.15,64,398.25s-1.19-6.55.66-12.23C64.88,385.46,65.08,384.93,65.28,384.42Z" style="fill:#455a64"></path><path d="M68.09,389.59c-.42,2.1-2.36,1-1.89-2s2.74-9.72,3.69-14.83c1.78-5.66,3.22-11.38,4.44-11.24a1.55,1.55,0,0,0,0,.21l-.72,2.91c-.11.42-.22.79-.3,1.25-.84,4.28-2.32,12.45-3.43,16.29A69.89,69.89,0,0,0,68.09,389.59Z" style="fill:#263238"></path><path d="M76.27,392a68.94,68.94,0,0,0,2.54-7.16c1.14-3.8,4.3-11.22,5.91-15.3a11,11,0,0,0,.87-2.32c.19-.57.41-1.3.6-1.9l0-.12c.69.5.3,2.83-.37,5.72-.47,1.65-1.48,3.41-2.33,5.86-2,4.8-3.37,11.86-4.59,14.62S75.49,394,76.27,392Z" style="fill:#263238"></path><path d="M77,392.37a.35.35,0,0,1-.16-.08,14.43,14.43,0,0,0-9.08-2.7.46.46,0,0,1-.49-.42.44.44,0,0,1,.42-.48,15.21,15.21,0,0,1,9.72,2.89.46.46,0,0,1,.07.64A.45.45,0,0,1,77,392.37Z" style="fill:#f0f0f0"></path><path d="M78.86,388a.37.37,0,0,1-.14-.07,17.84,17.84,0,0,0-10.17-3,.47.47,0,0,1-.48-.44.46.46,0,0,1,.44-.47,18.57,18.57,0,0,1,10.75,3.2.46.46,0,0,1-.4.8Z" style="fill:#f0f0f0"></path><path d="M69.65,380.63a.47.47,0,0,1-.32-.37.45.45,0,0,1,.39-.51c5.73-.82,10.55,2.93,10.75,3.09a.45.45,0,0,1,.07.64.46.46,0,0,1-.63.07s-4.73-3.67-10.06-2.9A.44.44,0,0,1,69.65,380.63Z" style="fill:#f0f0f0"></path><path d="M70.05,376.6a.44.44,0,0,1-.32-.36.45.45,0,0,1,.38-.52c6.33-1,11.47,2.93,11.66,3.1a.46.46,0,0,1-.61.68s-5-3.82-10.91-2.88A.46.46,0,0,1,70.05,376.6Z" style="fill:#f0f0f0"></path><path d="M71.28,372.08a.44.44,0,0,1-.32-.35.46.46,0,0,1,.37-.53c6-1,11.51,3.06,11.71,3.24a.44.44,0,0,1,0,.64.45.45,0,0,1-.64.05s-5.44-4-11-3A.38.38,0,0,1,71.28,372.08Z" style="fill:#ebebeb"></path><path d="M104.33,191.3c-4,8.92-7.67,13.41-9.62,32.92C91.23,259,89,284.83,89,284.83c-.8,3.62-3,12.14-6.51,26.67-3.27,13.38-6.89,40.27-6.89,40.27s9,2.73,17.53-.62c5.09-12.8,17.62-44.4,21.86-59.88,4.17-15.22,11.25-38.39,11.25-38.39l5,35.19s-1.16,14.06-.78,22.36c.44,9.65,4.65,42.52,4.65,42.52s9.23,4.6,16.56-.71c0,0,4.21-54.66,4.41-66.28.4-22.78,2.09-70.77-1.61-94.66Z" style="fill:#37474f"></path><path d="M76.49,345.52c3,2.78,11.71,6.46,16.65,5.63l-1.93,5.51s-1.59,1.23-7.87-.36-7.73-4.53-7.73-4.53Z" style="fill:#455a64"></path><path d="M134.6,349.07c3.68,1.74,12.84,2.3,17.3,0l-.11,5.62s-1.53,2.1-8,2.15-8.81-2-8.81-2Z" style="fill:#455a64"></path><path d="M126.25,252.88l4.19-25.3s15.14-1.63,20.7-6.85c0,0-7,9.71-17.32,11.19l-4.54,21,1.9,34.89Z" style="fill:#263238"></path></g><g id="freepik--Top--inject-479"><path d="M147,126.78c6.87-.14,8,1.16,11,3.08,2.47,1.58,33,27.87,33,27.87l-7.72,11c-7.22-2-12.34-5.11-19.05-10s-14-9.93-14-9.93Z" style="fill:#f28f8f"></path><path d="M128.41,120.69a8.32,8.32,0,0,0-1-1.38c-2.77-3-7.56-2.64-11.21-1.79-3.3.77-6.47,2.09-9.85,2.48a12.08,12.08,0,0,1-8.82-2.58c-.86-.67-1.83-1.5-2.88-1.22A2.69,2.69,0,0,0,93,118.08a9,9,0,0,0-.11,5.45,9.71,9.71,0,0,1-5.35-4.41,3.41,3.41,0,0,0-1.26-1.55,1.87,1.87,0,0,0-2.07.49,4.27,4.27,0,0,0-1,2A13.44,13.44,0,0,0,89,134.87a9.38,9.38,0,0,1-4-.49,2.1,2.1,0,0,0-2,.59,2.87,2.87,0,0,0-.33,2.7,11.57,11.57,0,0,0,5,6.46C98,150.82,115,148.92,124,140.66c4.33-4,6.89-10,5.88-15.84A11.84,11.84,0,0,0,128.41,120.69Z" style="fill:#37474f"></path><path d="M154.74,165.82c-.54,6-.29,25.48-.29,25.48-18.87,11.53-50.12,0-50.12,0,1.79-4.42,4.6-8.86,4.43-13.07l-4-23a49.73,49.73,0,0,0,6.81-28.1l13.46-1.4,12.86.36,9.12.65a58.12,58.12,0,0,1,11.51,15C163.19,150.67,161.61,158.63,154.74,165.82Z" style="fill:#BA68C8"></path><path d="M139.77,117.07c1.62-3.16,3.6-5,7.55-9.31,6.12-6.68,5.7-20.7.07-24.59-3.71-4.91-9.71-8.1-15.6-9.54-5.22-1.28-10.9,1-15.35,3.71A40.57,40.57,0,0,0,106.57,86a15.91,15.91,0,0,0-3.41,5.68,3.61,3.61,0,0,0,0,2.55,3,3,0,0,0,2.42,1.5,8.92,8.92,0,0,0,2.94-.36c-.66.16,1.31,3.37,1.76,3.62a8.66,8.66,0,0,0,4.26.75c1,0,1.94-.2,2.91-.27.75,0,1.93-.25,2.56.22a17.16,17.16,0,0,1,1.7,1.71l2,1.93,7.75,7.47C134.25,113.41,137,114.42,139.77,117.07Z" style="fill:#37474f"></path><path d="M149.29,98.66c-3.61-2.57-6.39-.5-7.91,1.93a4.35,4.35,0,0,1-1.25,1.58,1.6,1.6,0,0,1-1.43.11c-1.3-.52-1.66-2.31-1.92-3.5a16,16,0,0,1-.26-5.25,4,4,0,0,1-2.62,1.07,3.09,3.09,0,0,1-2.49-1.22,6.41,6.41,0,0,1-.72-3.59c-.05-1.44-.1-3.53-.81-4.82-.54-1-2.08-1.68-3-2.16-1.87-.94-4-2.12-6.11-2-1.21,0-2.43-.12-3.65-.07-1,.05-2.74-.06-3.66.41-3,1.54-6.07,4.58-5.43,19.87.51,12,3.76,17.69,5.81,18.74s4.56,1.29,8.55.88v6.8c-.07.41,6.74,10.37,16.52,12.73,3-3.33,4.16-7.83.79-13.67l.22-17.27a6.06,6.06,0,0,0,7.74-.06C151,106.49,152.24,100.76,149.29,98.66Z" style="fill:#ffa8a7"></path><path d="M147.65,100.45a2.74,2.74,0,0,0-2-.66,3,3,0,0,0-2.86,2.3.55.55,0,0,0,.44.62c.34.08.68.08,1,.15s.38.27.42.58a1.13,1.13,0,0,1-.4,1,1.29,1.29,0,0,1-1.05.28.88.88,0,0,0-1,.39,3.25,3.25,0,0,0-.26.76,1.47,1.47,0,0,0,0,.55,1.8,1.8,0,0,0,1.37,1.66,2.78,2.78,0,0,0,1.25.1,1.53,1.53,0,0,0,1.09-.57,2.34,2.34,0,0,1-1.82,0,1.85,1.85,0,0,1-.95-.71,1.06,1.06,0,0,1,.22-1.38,1.18,1.18,0,0,1,.36,0,1.89,1.89,0,0,0,.58,0,2.19,2.19,0,0,0,1.06-.59,1.93,1.93,0,0,0,.22-2.24,1.79,1.79,0,0,0-1.47-.77,2.37,2.37,0,0,1,2.15-1.35,2.58,2.58,0,0,1,1.48.37,2.36,2.36,0,0,1,.57.52,2.3,2.3,0,0,1,.34.6A2.06,2.06,0,0,0,147.65,100.45Z" style="fill:#f28f8f"></path><path d="M102.91,82.37c.26-.59.55-1.16.87-1.73,5-8.76,15.87-12,25.39-11.17,11.87,1,19.54,7.32,18.31,15.51l-6.09.37c-1.26.08-2.53-.13-3.76.07a14.81,14.81,0,0,0-5.55,2.35,49.93,49.93,0,0,1-6.55,4.07c-1.08.47-2.54.73-3.28-.19s-.2-2.28.37-3.32a15.33,15.33,0,0,1-7.08,3.37c-1.17.21-2.58.21-3.31-.73s-.36-2.44.18-3.59a10.58,10.58,0,0,1-6.77,1.5A4.14,4.14,0,0,1,102.29,87a4.53,4.53,0,0,1,.18-3.58C102.6,83.08,102.75,82.73,102.91,82.37Z" style="fill:#37474f"></path><path d="M125.16,99.17a1.83,1.83,0,0,0,1.75,1.82,1.71,1.71,0,0,0,1.8-1.68A1.82,1.82,0,0,0,127,97.49,1.71,1.71,0,0,0,125.16,99.17Z" style="fill:#263238"></path><path d="M109.45,96.48l3-3a2,2,0,0,0-2.93-.09A2.21,2.21,0,0,0,109.45,96.48Z" style="fill:#263238"></path><path d="M111,99.4a1.83,1.83,0,0,0,1.75,1.82,1.71,1.71,0,0,0,1.8-1.68,1.82,1.82,0,0,0-1.75-1.82A1.71,1.71,0,0,0,111,99.4Z" style="fill:#263238"></path><path d="M126.55,93.19,130,95.58a2,2,0,0,0-.47-2.9A2.21,2.21,0,0,0,126.55,93.19Z" style="fill:#263238"></path><polygon points="120.36 95.4 120.12 107.44 114.13 106.16 120.36 95.4" style="fill:#f28f8f"></polygon><path d="M122.34,120.61c4.21-.63,13.14-2.88,14.68-6.18a9.87,9.87,0,0,1-3.43,4.73c-2.7,2-11.25,3.85-11.25,3.85Z" style="fill:#f28f8f"></path><path d="M126.78,111.2a2.22,2.22,0,1,1-2.22-2.22A2.22,2.22,0,0,1,126.78,111.2Z" style="fill:#b16668"></path><path d="M124.27,113.15a2,2,0,0,0,0,.24,2.06,2.06,0,0,0,.26,0,2.22,2.22,0,0,0,2.22-2.22,1.9,1.9,0,0,0,0-.25l-.26,0A2.21,2.21,0,0,0,124.27,113.15Z" style="fill:#f28f8f"></path><path d="M160.15,99.68c-.89-1.18-2.14-2.69-2.49-3.21-.7-1-2.17.46-1.84,2a23,23,0,0,0,2.44,5.16c.75,1.27,1.31,5.84.92,8.55-.2,1.39-1.09,2.6-2.14,2s-2.4-3.36-3.71-4-2.76-.32-3.06.43,1.06,2,1.64,3.54,1,5.78,2,7.67a29.08,29.08,0,0,0,4.32,4.88,16.86,16.86,0,0,0,6.14-5.68C166.9,117,166.17,105.36,160.15,99.68Z" style="fill:#ffa8a7"></path><path d="M165,114.22c.16-.53.4-1.23.62-2.09-.47-4.45-2.17-9.34-5.46-12.45-.59-.79-1.35-1.73-1.89-2.42a8.14,8.14,0,0,0,1.14,3.49,18.88,18.88,0,0,1,1.95,4.39c.29,1,.64,3,1.07,4.75a56.11,56.11,0,0,1,.69,6.56S164.34,116.51,165,114.22Z" style="fill:#f28f8f"></path><path d="M163,97c-2.06-2.57-2.57-3.18-3-3.11-1.56.23-1.23,4.43-.11,6.32a16.9,16.9,0,0,1,2.1,5.19,26.85,26.85,0,0,1,.4,4.52s-1.4,6.43-1.84,8.38c0,0,4.49-2.4,5.14-4.69S168.77,106.16,163,97Z" style="fill:#ffa8a7"></path><path d="M166,112.52c.82-2.65,2-7.56-3-15.55l-.88-1.1a3,3,0,0,0-.38,2.21c.26,1.85,1.81,4.63,2.13,6a34,34,0,0,1,.73,4.67Z" style="fill:#f28f8f"></path><path d="M166.17,98.38c-1.29-2.07-1.51-3.27-2-3.66s-2,1.28-1.73,3.13a45.52,45.52,0,0,0,2,6.39c.45,1.89.36,6.74-.33,8.33,0,0,2.87.55,4-1.42S169,103.85,166.17,98.38Z" style="fill:#ffa8a7"></path><path d="M166.17,98.38l-.56-1h0c-.83.89-1,1.56-.44,3.73.68,2.57,1.77,5,1.64,7.08a5.39,5.39,0,0,1,1.86-1.1A21.31,21.31,0,0,0,166.17,98.38Z" style="fill:#f28f8f"></path><path d="M158.27,126.64c-2.64-3.15-.22-6,1-7.9,1.65-2.68,5.63-6.85,6.42-8.15a6.67,6.67,0,0,0,1.25-2.79c.26-1.38-.42-3.41-.88-5.26-1-4.06-.34-4.81.48-5s1.76,2.62,2.42,4,2.59,5.79,2.53,7.41a52.55,52.55,0,0,1-1.62,9.86c-.78,2.78,4.87,9.89,4.87,9.89l-11.39,7.87A79,79,0,0,0,158.27,126.64Z" style="fill:#ffa8a7"></path><path d="M165.31,110.7a24.79,24.79,0,0,1-4.35,4.8c-1.66,1.62-3.08,4.43-3.08,6.11a11.75,11.75,0,0,1,3.71-5.64A11.29,11.29,0,0,0,165.31,110.7Z" style="fill:#f28f8f"></path><path d="M161.18,131.93c2.7,6.24,8.65,23.11,10.85,27.29,3.37,6.42,12,11.38,15.38,9.51s4.79-9.55,2.63-16.42c-2.53-8.07-15.51-23-18.36-28Z" style="fill:#ffa8a7"></path><path d="M111.53,127.17c-12.4,0-15.74,5.52-19.49,14.64S80,175.2,80,175.2a86.72,86.72,0,0,0-6.4,13.67c-2,5.66-8.26,28.25-10.7,29.39s-13.18,1-17.25,2.07-9.38,4.71-12.17,7c-.44,1.38,1.48,1.75,2.84,1.56,2.51-.36,6.41-2.41,9.16-2.51a49.89,49.89,0,0,1,10.57.75c1.14.32.8,1.24-2.93,3.25s-4.4,4.24-4.07,5.38,1.79,0,4.4-1.14,7.16-2.44,11.24-4.24,6.51-1.95,8.79-4.56,2.94-5.31,5.7-10.69S87.74,200.61,90.09,196c3.25-6.35,4.67-11.52,8.09-18.45,4.06-8.21,12.68-26.22,12.68-26.22S116.2,135.33,111.53,127.17Z" style="fill:#ffa8a7"></path></g><path d="M171.27,94.41a.49.49,0,0,1-.34-.14.47.47,0,0,1,0-.67l6.84-6.43a.47.47,0,0,1,.67,0,.46.46,0,0,1,0,.66l-6.84,6.44A.52.52,0,0,1,171.27,94.41Z" style="fill:#e0e0e0"></path><path d="M172.9,97.88a.46.46,0,0,1-.45-.34.47.47,0,0,1,.32-.58l9-2.6a.47.47,0,0,1,.58.32.48.48,0,0,1-.32.59l-9,2.59Z" style="fill:#e0e0e0"></path><path d="M183.09,103.16H183L173.71,102a.47.47,0,0,1-.41-.53.49.49,0,0,1,.53-.41l9.32,1.17a.48.48,0,0,1,.41.53A.47.47,0,0,1,183.09,103.16Z" style="fill:#e0e0e0"></path></g></g></svg>