<svg xmlns="http://www.w3.org/2000/svg" viewBox="0 0 500 500"><g id="freepik--Trees--inject-584"><g id="freepik--Pines--inject-584"><g id="freepik--Pine--inject-584"><path d="M431.84,212.71c8.38,6.18,46.78,5.33,55.43,0,.76-3.34.37-10.8-.83-20.6l-10.3,5.54,9.32-13.05c-1.36-9.5-3.26-20.46-5.48-31.69l-6.38,3.55,5.45-8.18q-.65-3.17-1.31-6.32l-7.28,3.57,6.25-8.35c-1.86-8.49-3.83-16.81-5.81-24.44l-5.8,1.69s2.18-3.27,4.48-6.66c-2-7.52-4.06-14.19-6-19.48a4.31,4.31,0,0,0-8.11,0c-2.57,7.11-5.37,16.77-8.11,27.6l5.13,8.62-6-5.27c-1.24,5-2.46,10.22-3.63,15.5l8.23,14.72-9.91-6.94c-1.65,7.77-3.17,15.57-4.51,23l8.05,8-8.94-2.87c-.16.91-.31,1.81-.46,2.69l8.25,11.11-9.22-5C431.94,195.34,430.78,208.05,431.84,212.71Z" style="fill:#e0e0e0"></path><path d="M457.52,177.05l-11.69-22,11.89,14.58,1.83-68.3L461,142.87l8.33-12-8.07,19.54,1.45,42.1,15.86-14.63L462.9,198.6l1.33,75.91c0,2.45-8.33,2.45-8.33,0l1.62-97.46Z" style="fill:#f0f0f0"></path></g><g id="freepik--pine--inject-584"><path d="M236,151.17c7.33,5.41,40.9,4.66,48.46,0,.66-2.92.32-9.44-.72-18l-9,4.84,8.15-11.41c-1.19-8.31-2.85-17.89-4.8-27.71L272.55,102l4.77-7.16q-.57-2.76-1.15-5.52l-6.36,3.12,5.46-7.3c-1.62-7.42-3.35-14.69-5.08-21.36l-5.07,1.47S267,62.39,269,59.43c-1.78-6.57-3.55-12.4-5.23-17a3.77,3.77,0,0,0-7.09,0c-2.24,6.22-4.68,14.67-7.09,24.13l4.5,7.54-5.22-4.61c-1.08,4.37-2.15,8.93-3.17,13.55l7.2,12.86-8.67-6.05c-1.44,6.79-2.77,13.6-4,20.13l7,7-7.81-2.51c-.14.8-.27,1.58-.4,2.35l7.21,9.71-8.06-4.41C236.13,136,235.11,147.1,236,151.17Z" style="fill:#e0e0e0"></path><path d="M258.49,120l-10.22-19.25,10.4,12.75,1.6-59.72,1.25,36.34L268.8,79.6l-7.06,17.08,1.27,36.8,13.87-12.78-13.69,18.14,1.16,66.36c0,2.14-7.27,2.14-7.27,0L258.49,120Z" style="fill:#f0f0f0"></path></g><g id="freepik--pine--inject-584"><path d="M316.42,148.69c7.88,5.8,44,5,52.1,0,.57-2.45.47-7.26-.13-13.63L359,138.45l8.72-9.37c-1-8.19-2.57-18.09-4.5-28.54l-5.3,2.21,4.61-5.85c-.19-1-.4-2.06-.6-3.09l-12.6,6.41,10.9-14.84c-1.69-8.15-3.52-16.31-5.39-23.95l-8.19,6.83,7.08-11.2c-.51-2-1-4-1.55-6L345,55l5.93-8.7c-1.57-5.57-3.13-10.53-4.6-14.6a4.05,4.05,0,0,0-7.62,0c-2.21,6.11-4.58,14.19-7,23.3,2.06,4.78,3.69,8.51,3.69,8.51l-5.22-2.41c-.58,2.32-1.14,4.69-1.7,7.1C331,75.8,334,85.31,334,85.51c-.16-.3-3.81-6.83-6.75-12.09C320.18,105,314.52,140.38,316.42,148.69Z" style="fill:#e0e0e0"></path><path d="M340.56,115.16l-11-20.7,11.18,13.71L342.47,44,343.81,83l7.83-11.3-7.59,18.36,1.36,39.57,14.92-13.75-14.72,19.51,1.25,81.78c0,2.31-7.82,2.31-7.82,0l1.52-102Z" style="fill:#f0f0f0"></path></g><g id="freepik--pine--inject-584"><path d="M69.18,149.34c7.15,5.28,39.91,4.54,47.3,0a36.23,36.23,0,0,0,.14-9l-11.17,5.12,10.68-10.58c-.63-6-1.68-13.17-3-21l-4.08,2.2,3.72-4.3c-.77-4.41-1.62-9-2.54-13.63l-6.65,5.35,5.93-8.9c-.19-1-.39-1.93-.59-2.89l-9.09,7.51,7.7-14c-1.42-6.49-2.92-12.87-4.42-18.83l-5.94,4.51c.15-.25,2.51-4.29,4.89-8.49-2-7.44-3.92-14-5.76-19.12a3.68,3.68,0,0,0-6.92,0c-1.75,4.84-3.62,11-5.49,18h0l3.63,8-4.33-5.29c-1.16,4.48-2.32,9.24-3.44,14.12l7.77,17.12L78.32,84.31c-.14.67-.3,1.35-.43,2l3.74,8.84-4.35-6c-1.58,7.46-3,15-4.28,22.06l10.77,13-11.66-7.79c-.27,1.64-.52,3.25-.77,4.82l5.47,6.05-6.11-1.76C69.07,136.93,68.38,145.82,69.18,149.34Z" style="fill:#e0e0e0"></path><path d="M69.18,149.34c7.15,5.28,39.91,4.54,47.3,0a36.23,36.23,0,0,0,.14-9l-11.17,5.12,10.68-10.58c-.63-6-1.68-13.17-3-21l-4.08,2.2,3.72-4.3c-.77-4.41-1.62-9-2.54-13.63l-6.65,5.35,5.93-8.9c-.19-1-.39-1.93-.59-2.89l-9.09,7.51,7.7-14c-1.42-6.49-2.92-12.87-4.42-18.83l-5.94,4.51c.15-.25,2.51-4.29,4.89-8.49-2-7.44-3.92-14-5.76-19.12a3.68,3.68,0,0,0-6.92,0c-1.75,4.84-3.62,11-5.49,18h0l3.63,8-4.33-5.29c-1.16,4.48-2.32,9.24-3.44,14.12l7.77,17.12L78.32,84.31c-.14.67-.3,1.35-.43,2l3.74,8.84-4.35-6c-1.58,7.46-3,15-4.28,22.06l10.77,13-11.66-7.79c-.27,1.64-.52,3.25-.77,4.82l5.47,6.05-6.11-1.76C69.07,136.93,68.38,145.82,69.18,149.34Z" style="opacity:0.15"></path><path d="M91.1,118.92l-10-18.78,10.15,12.44,1.56-58.26,1.22,35.45,7.1-10.26L94.27,96.17l1.23,35.91L109,119.61l-13.36,17.7,1.14,101.4c0,2.09-7.1,2.09-7.1,0L91.1,118.92Z" style="fill:#e0e0e0"></path></g><g id="freepik--pine--inject-584"><path d="M17.8,205.56c8.24,5.08,44.86,5.88,52.85,0,.73-3.2.35-10.37-.79-19.78L59.5,190.2l9.55-10.61c-.92-6.45-2.1-13.65-3.47-21.17l-6.35,2.78,5.93-5q-.48-2.62-1-5.28L53.57,157l9.52-11.54c-1.18-5.85-2.44-11.73-3.75-17.48l-5.47,2.94,4.47-7.69c-1.36-5.6-4-15.64-5.33-20.56l-5.57,4.42,4.71-7.46c-1.38-4.8-2.76-9.09-4.06-12.71a4.11,4.11,0,0,0-7.73,0c-2,5.51-4.13,12.62-6.25,20.62h0l4.32,9.82L32.68,113c-1.49,5.9-3,12.16-4.4,18.56h0l7.25,18.27-8.69-11.62c-.51,2.44-1,4.89-1.51,7.33l5.16,10.14-5.91-6.35c-1.42,7.24-2.7,14.33-3.78,20.95v0l11.83,18.57-12.8-12.24c-.31,2-.58,3.94-.83,5.8l8.92,10.95-9.62-5.15C17.38,196.46,17.13,202.65,17.8,205.56Z" style="fill:#e0e0e0"></path><path d="M30.49,160.27,41.59,176l1.16-33.89-6-20.26L43,135.66l1.25-36.32,1.41,52.4,6.23-7.44-6,14.32.8,29.74,12.88-12.81L46.85,197.07,47.7,271c0,2.34-7.93,2.34-7.93,0l1.47-84.87Z" style="fill:#f0f0f0"></path></g><g id="freepik--pine--inject-584"><path d="M170,140.08c7.11,4.37,38.64,5.07,45.52,0,.62-2.74.31-8.82-.65-16.82l-8.95,5.27,8.1-11.67c-.92-6.42-2.14-13.66-3.57-21.15l-6.11,4.19,5.35-8.18c-.17-.85-.33-1.69-.51-2.54L201.7,94l6.52-9.45c-1.34-6.45-2.78-12.9-4.27-19L195.7,71,203,61.57c-.42-1.65-.83-3.26-1.25-4.84l-6,4.55,5-8.25c-1.59-5.82-3.17-11-4.66-15.12a3.54,3.54,0,0,0-6.66,0c-1.26,3.47-2.58,7.67-3.92,12.38h0L188.45,58l-3.64-5-.05-.07c-2,7.2-4,15.38-5.83,23.8l4.77,17-6.37-9.53C176.12,90,175,95.85,174,101.43h0l6.92,23.2-8.6-13.35C170.14,125,169.08,136.11,170,140.08Z" style="fill:#e0e0e0"></path><path d="M170,140.08c7.11,4.37,38.64,5.07,45.52,0,.62-2.74.31-8.82-.65-16.82l-8.95,5.27,8.1-11.67c-.92-6.42-2.14-13.66-3.57-21.15l-6.11,4.19,5.35-8.18c-.17-.85-.33-1.69-.51-2.54L201.7,94l6.52-9.45c-1.34-6.45-2.78-12.9-4.27-19L195.7,71,203,61.57c-.42-1.65-.83-3.26-1.25-4.84l-6,4.55,5-8.25c-1.59-5.82-3.17-11-4.66-15.12a3.54,3.54,0,0,0-6.66,0c-1.26,3.47-2.58,7.67-3.92,12.38h0L188.45,58l-3.64-5-.05-.07c-2,7.2-4,15.38-5.83,23.8l4.77,17-6.37-9.53C176.12,90,175,95.85,174,101.43h0l6.92,23.2-8.6-13.35C170.14,125,169.08,136.11,170,140.08Z" style="opacity:0.15"></path><path d="M180.92,101.07l9.55,13.53,1-29.19L186.32,68l5.35,11.92,1.07-31.28L194,93.73l5.37-6.41-5.21,12.33.69,25.62,11.1-11L195,132.77l.74,76.92c0,2-6.83,2-6.83,0l1.27-86.38Z" style="fill:#e0e0e0"></path></g><g id="freepik--pine--inject-584"><path d="M386.71,158.21c7.85,4.83,42.68,5.6,50.28,0,.68-3,.35-9.74-.72-18.57l-9.89,5.82,8.95-12.9c-1-7.09-2.36-15.08-3.94-23.36l-6.75,4.63,5.91-9c-.19-.94-.37-1.87-.56-2.81l-8.24,5.36L429,96.91c-1.48-7.12-3.07-14.24-4.71-21l-9.12,6,8-10.43q-.69-2.73-1.38-5.35l-6.66,5,5.57-9.11c-1.76-6.43-3.51-12.14-5.16-16.7a3.9,3.9,0,0,0-7.35,0c-1.39,3.83-2.85,8.47-4.32,13.67h0l3.25,8.54-4-5.48L403,62c-2.18,8-4.39,17-6.44,26.29l5.26,18.75-7-10.53c-1.33,6.4-2.57,12.82-3.68,19h0l7.65,25.63-9.5-14.75C386.89,141.59,385.72,153.82,386.71,158.21Z" style="fill:#e0e0e0"></path><path d="M386.71,158.21c7.85,4.83,42.68,5.6,50.28,0,.68-3,.35-9.74-.72-18.57l-9.89,5.82,8.95-12.9c-1-7.09-2.36-15.08-3.94-23.36l-6.75,4.63,5.91-9c-.19-.94-.37-1.87-.56-2.81l-8.24,5.36L429,96.91c-1.48-7.12-3.07-14.24-4.71-21l-9.12,6,8-10.43q-.69-2.73-1.38-5.35l-6.66,5,5.57-9.11c-1.76-6.43-3.51-12.14-5.16-16.7a3.9,3.9,0,0,0-7.35,0c-1.39,3.83-2.85,8.47-4.32,13.67h0l3.25,8.54-4-5.48L403,62c-2.18,8-4.39,17-6.44,26.29l5.26,18.75-7-10.53c-1.33,6.4-2.57,12.82-3.68,19h0l7.65,25.63-9.5-14.75C386.89,141.59,385.72,153.82,386.71,158.21Z" style="opacity:0.15"></path><path d="M398.8,115.13l10.55,14.94,1.11-32.24-5.7-19.27,5.91,13.16,1.18-34.54L413.19,107l5.93-7.08-5.75,13.62.76,28.29,12.25-12.19-12,20.47.81,85c0,2.22-7.54,2.22-7.54,0l1.4-95.41Z" style="fill:#e0e0e0"></path></g><g id="freepik--pine--inject-584"><path d="M282,152.58c6.78,4.16,36.84,4.83,43.4,0a23.38,23.38,0,0,0,.26-5.47l-7,3.12,6.51-10c-.41-4.14-1.06-9-1.89-14.31l-6.82,3.56,6-8.67c-.14-.84-.29-1.7-.44-2.56l-11,6.41,9.63-14.24c-1.48-7.86-3.2-16-5-23.8l-6.41,4.81,5.11-10.32c-.25-1-.49-2-.73-2.93l-6.32,5,4.84-10.76c-1.76-6.7-3.54-12.65-5.2-17.25a3.38,3.38,0,0,0-6.36,0c-1.59,4.41-3.29,10.06-5,16.43l1.9,11.58-3.64-4.84c-1.61,6.47-3.2,13.41-4.65,20.38l4.79,15-6.16-8.17c-1.41,7-2.65,14-3.63,20.26l2.77,6.78-3.47-2.11c-.25,1.68-.47,3.3-.65,4.84l6,10.06L282.27,140C281.65,145.94,281.52,150.4,282,152.58Z" style="fill:#e0e0e0"></path><path d="M282,152.58c6.78,4.16,36.84,4.83,43.4,0a23.38,23.38,0,0,0,.26-5.47l-7,3.12,6.51-10c-.41-4.14-1.06-9-1.89-14.31l-6.82,3.56,6-8.67c-.14-.84-.29-1.7-.44-2.56l-11,6.41,9.63-14.24c-1.48-7.86-3.2-16-5-23.8l-6.41,4.81,5.11-10.32c-.25-1-.49-2-.73-2.93l-6.32,5,4.84-10.76c-1.76-6.7-3.54-12.65-5.2-17.25a3.38,3.38,0,0,0-6.36,0c-1.59,4.41-3.29,10.06-5,16.43l1.9,11.58-3.64-4.84c-1.61,6.47-3.2,13.41-4.65,20.38l4.79,15-6.16-8.17c-1.41,7-2.65,14-3.63,20.26l2.77,6.78-3.47-2.11c-.25,1.68-.47,3.3-.65,4.84l6,10.06L282.27,140C281.65,145.94,281.52,150.4,282,152.58Z" style="opacity:0.15"></path><path d="M305.31,124.66l9.15-17.23-9.31,11.42-1.43-53.46L302.6,97.92l-6.52-9.42,6.32,15.29-1.13,33-12.42-11.45,12.25,16.24-1,69.34c0,1.92,6.51,1.92,6.51,0l-1.26-86.21Z" style="fill:#e0e0e0"></path></g><g id="freepik--pine--inject-584"><path d="M134.06,153.23c6.48,4,35.26,4.63,41.54,0,.48-2.1.35-6.39-.23-12.08l-6.44,1.23,6-5.19c-.28-2.21-.6-4.57-1-7L162,134.92l11.37-8.43c-1.21-7.59-2.78-16-4.55-24.47l-9.23,7.38L168,98c-.73-3.37-1.49-6.72-2.26-10l-7.5,4.69,6.61-8.44c-.72-2.92-1.44-5.75-2.16-8.45l-4.45,4.87,3-10.3c-1.13-3.92-2.24-7.44-3.3-10.37a3.24,3.24,0,0,0-6.09,0c-1.77,4.89-3.68,11.38-5.57,18.69h0l3.37,7.23-4.42-3.06c-1.41,5.7-2.79,11.74-4.08,17.83h0l6.78,14L140,106.09c-.59,2.93-1.16,5.84-1.68,8.7l4.38,6.58-5.05-3c-1.09,6.14-2,12-2.68,17.06h0l7,11.16-7.83-4.22C133.69,147.48,133.62,151.29,134.06,153.23Z" style="fill:#e0e0e0"></path><path d="M156.35,126.51l8.77-16.5-8.91,10.93-1.38-51.18-1.07,31.14-6.24-9,6,14.64-1.09,31.54-11.89-11,11.74,15.55-1,75.32c0,1.84,6.24,1.84,6.24,0l-1.22-91.47Z" style="fill:#f0f0f0"></path></g></g></g><g id="freepik--Bushes--inject-584"><g id="freepik--Bush--inject-584"><path d="M477.25,290.52c6.61-4.71,6.56-16.93-1.84-19.55,5.8-5.81,4-18.32-4.36-19.1,2.05-5.13,1-12.16-5.55-13.46,2.09-6.29-3.74-10.66-9.58-8.4-.25-6.63-9.65-7-11.77-2.34.12-2.57-3.73-7.33-6.2-7.34,4.26-3.33,3.09-10-.57-10.9,5-3.78,2.31-12.38-3.63-12.3,4-6.28-4.51-12.83-9.79-10.9,3-7.06-11-12.67-14-5.19.12-.3-1.17-1.53-1.38-1.73a9.37,9.37,0,0,0-1.81-1.33,11.19,11.19,0,0,0-4.37-1.31,14.59,14.59,0,0,0-9.13,2.17,10.83,10.83,0,0,0-3.53,3.53,8.32,8.32,0,0,0-.94,2.24c-.29,1.11,0,2.18-.3,3.26a7.1,7.1,0,0,0-8.62,4.92,19,19,0,0,0-2-4.83,8.18,8.18,0,0,0-3.16-3c-1.4-.74-2.61-1.64-4.3-1.53,5.07-6.51-5.22-14.08-10.68-8.91-2.54-6-11.62-4.72-11,2.29-2-3.65-6-3.4-9.22-1.45-4.48,2.7-3.88,7.5-1.41,11.38-1.87-2.22-7.54-3.45-8.41.23a4.44,4.44,0,0,0-6.4-.73c-2.23-8-13.53-1.71-11.58,1.31a7.46,7.46,0,0,0-11-1.23c1.51-4.13-2.12-9.22-6.52-9.13a9.31,9.31,0,0,0-3.43-8.38c-2.57-1.84-6.59-1.64-8.55.84a6.88,6.88,0,0,0-12.68,5.19,5.67,5.67,0,0,0-8.72-1.61c-1.22-2.83-3.41-5.42-6.36-6.33s-6.63.32-7.83,3.17c-.5-2.93-4.64-4.44-6.91-2.53.54-3.29-2-6.64-5.16-7.51a9.24,9.24,0,0,0-9,3,13.64,13.64,0,0,0-3.2,9.22,5.38,5.38,0,0,0-7.8-1.23c1.25-1.09-2.81-4-3.55-4.25a7.59,7.59,0,0,0-6.73,2,7.78,7.78,0,0,0-2.23,7A7.76,7.76,0,0,0,192,181.07a8.35,8.35,0,0,0-13.41,2c.54-1.05-3.55-2.08-4.09-2.05a5.3,5.3,0,0,0-4.15,2.37,5.68,5.68,0,0,0-8.84-4,4.8,4.8,0,0,0-1.73-4.46c-2.5-2-5.93-.76-7.38,1.86.6-7-8.48-8.27-11-2.29-5.47-5.17-15.75,2.4-10.68,8.91-1.7-.11-2.9.79-4.31,1.53a8.15,8.15,0,0,0-3.15,3,19,19,0,0,0-2,4.83,7.1,7.1,0,0,0-8.62-4.92c-.3-1.08,0-2.15-.29-3.26a9,9,0,0,0-.94-2.24,10.92,10.92,0,0,0-3.53-3.53,14.64,14.64,0,0,0-9.14-2.17A11.1,11.1,0,0,0,94.37,178a8.8,8.8,0,0,0-1.81,1.33c-.21.2-1.51,1.43-1.39,1.73-3-7.48-17-1.87-14,5.19-5.27-1.93-13.77,4.62-9.79,10.9-5.93-.08-8.6,8.52-3.63,12.3-3.65.88-4.83,7.57-.57,10.9-2.46,0-6.31,4.77-6.2,7.34C54.87,223,45.47,223.38,45.22,230c-5.85-2.26-11.67,2.11-9.58,8.4-6.6,1.3-7.61,8.33-5.55,13.46-8.41.78-10.16,13.29-4.36,19.1-8.4,2.62-8.45,14.84-1.84,19.55-4.38,2.09-4.81,12.25,2.32,15.05a6.38,6.38,0,0,0-.52.52C21.49,310.57,25,318,31.14,318H470c6.14,0,9.65-7.39,5.45-11.87a6.5,6.5,0,0,0-.53-.52C482.06,302.77,481.62,292.61,477.25,290.52Z" style="fill:#ebebeb"></path><g id="freepik--bush--inject-584"><path d="M85.67,201a6.67,6.67,0,0,1,10.74.93,6.73,6.73,0,0,1,10.9,3.86A8,8,0,0,0,94,207.4a5.58,5.58,0,0,1,0-1.15,7,7,0,0,1,.91-2.6,5.93,5.93,0,0,0-.7-.72A8,8,0,0,0,85,202,5.39,5.39,0,0,1,85.67,201Z" style="fill:#e0e0e0"></path><path d="M155.67,189.42a5.19,5.19,0,0,0-7.33-.43,5,5,0,0,0-1,1.15,5.18,5.18,0,0,0-8.4,3,6.23,6.23,0,0,1,3.94-2.16,6.16,6.16,0,0,1,6.33,3.38,4.37,4.37,0,0,0,0-.88,5.4,5.4,0,0,0-.7-2,6.92,6.92,0,0,1,.53-.56,6.16,6.16,0,0,1,7.14-.75A4.37,4.37,0,0,0,155.67,189.42Z" style="fill:#e0e0e0"></path><path d="M76.27,227.13c-.77-1-4.17-.63-5.27-.42a7.38,7.38,0,0,0-5.61,9.63,6,6,0,0,0-6.6,8.59c-4.33-1-11-.22-14.38,3.06-1.86,1.8-2.57,4.9-1.16,7.07-.26-.4-3.68-.44-6.49,1.3a6.53,6.53,0,0,0-2.9,5.13,10.66,10.66,0,0,0,2,6.46c-.23-.43-2.85,1.4-3.09,1.62a6.69,6.69,0,0,0-1.85,2.88,3.61,3.61,0,0,0,3.15,4.5,9.82,9.82,0,0,0-4.34,3.41,5.41,5.41,0,0,0-.48,5.32c1.13,2.19,3.79,3,6.18,3.59a6.79,6.79,0,0,0-1.7,6,4.69,4.69,0,0,0,4.81,3.55A6.48,6.48,0,0,0,41.6,310.8c-1.2-.08-2.11,2.44-2.42,3.23-.55,1.44-1.31,2.47-2,3.93h-6c-6.14,0-9.65-7.39-5.45-11.87a6.38,6.38,0,0,1,.52-.52c-7.13-2.8-6.7-13-2.32-15.05-6.61-4.71-6.56-16.93,1.84-19.55-5.8-5.81-4.05-18.32,4.36-19.1C28,246.74,29,239.71,35.64,238.41c-2.09-6.29,3.73-10.66,9.58-8.4.25-6.63,9.65-7,11.76-2.34-.11-2.57,3.74-7.33,6.2-7.34-4.26-3.33-3.08-10,.57-10.9-5-3.78-2.3-12.38,3.63-12.3-3.16-5,1.55-10.14,6.26-11.09-1.71,1.91-3.27,4.45-2,7.07,1.11,2.35,4.14,2.76,6.14,3.75-4.76,1.61-7,6.39-3.41,10.58-4.85.61-5.47,7.06-3.53,9.67,1.19-1,3.67-1.26,5.48-.92,2.43.46,3.74,1.69,5.93,4.14C77.91,217,73.53,223.38,76.27,227.13Z" style="fill:#e0e0e0"></path></g><path d="M303.71,196.7a6.67,6.67,0,0,0-10.74.93,6.73,6.73,0,0,0-10.9,3.86,8,8,0,0,1,13.31,1.59,5,5,0,0,0,0-1.15,6.71,6.71,0,0,0-.9-2.6,7.86,7.86,0,0,1,.69-.73,8,8,0,0,1,9.26-1A5,5,0,0,0,303.71,196.7Z" style="fill:#e0e0e0"></path><path d="M345.47,189.42a5.19,5.19,0,0,1,7.33-.43,4.93,4.93,0,0,1,.95,1.15,5.19,5.19,0,0,1,8.41,3,6.23,6.23,0,0,0-3.94-2.16,6.16,6.16,0,0,0-6.33,3.38,3.74,3.74,0,0,1,0-.88,5.07,5.07,0,0,1,.7-2,5.65,5.65,0,0,0-.54-.56,6.16,6.16,0,0,0-7.14-.75A3.92,3.92,0,0,1,345.47,189.42Z" style="fill:#e0e0e0"></path><path d="M171.79,193.77a5.15,5.15,0,0,1,8,2.17,5.18,5.18,0,0,1,7.74,4.41,6.17,6.17,0,0,0-10.32-.61,3.92,3.92,0,0,1,.19-.86,5,5,0,0,1,1-1.85,6.64,6.64,0,0,0-.43-.65,6.17,6.17,0,0,0-6.9-2A4.73,4.73,0,0,1,171.79,193.77Z" style="fill:#e0e0e0"></path><path d="M260.09,183.49a5.18,5.18,0,0,0-7.32-.43,4.74,4.74,0,0,0-1,1.15,5.18,5.18,0,0,0-8.4,3,6.17,6.17,0,0,1,10.26,1.22,3.74,3.74,0,0,0,0-.88,5.07,5.07,0,0,0-.7-2,7.07,7.07,0,0,1,.54-.56,6.16,6.16,0,0,1,7.14-.75A3.92,3.92,0,0,0,260.09,183.49Z" style="fill:#e0e0e0"></path><path d="M424.86,227.13c.77-1,4.18-.63,5.27-.42a7.37,7.37,0,0,1,5.61,9.63,6,6,0,0,1,6.6,8.59c4.34-1,11-.22,14.39,3.06,1.85,1.8,2.57,4.9,1.16,7.07.26-.4,3.67-.44,6.48,1.3a6.47,6.47,0,0,1,2.9,5.13,10.59,10.59,0,0,1-2,6.46c.22-.43,2.85,1.4,3.08,1.62a6.6,6.6,0,0,1,1.85,2.88,3.6,3.6,0,0,1-3.14,4.5,9.88,9.88,0,0,1,4.34,3.41,5.46,5.46,0,0,1,.48,5.32c-1.13,2.19-3.8,3-6.18,3.59a6.82,6.82,0,0,1,1.7,6,4.7,4.7,0,0,1-4.82,3.55,6.48,6.48,0,0,1-3.06,11.95c1.21-.08,2.12,2.44,2.42,3.23.56,1.44,1.31,2.47,2,3.93h6c6.14,0,9.65-7.39,5.45-11.87a6.5,6.5,0,0,0-.53-.52c7.14-2.8,6.7-13,2.33-15.05,6.61-4.71,6.56-16.93-1.84-19.55,5.8-5.81,4-18.32-4.36-19.1,2.05-5.13,1-12.16-5.55-13.46,2.09-6.29-3.74-10.66-9.58-8.4-.25-6.63-9.65-7-11.77-2.34.12-2.57-3.73-7.33-6.2-7.34,4.26-3.33,3.09-10-.57-10.9,5-3.78,2.31-12.38-3.63-12.3,3.16-5-1.54-10.14-6.25-11.09,1.71,1.91,3.26,4.45,2,7.07-1.12,2.35-4.14,2.76-6.14,3.75,4.76,1.61,6.94,6.39,3.4,10.58,4.85.61,5.48,7.06,3.54,9.67-1.2-1-3.67-1.26-5.48-.92-2.44.46-3.75,1.69-5.94,4.14C423.22,217,427.61,223.38,424.86,227.13Z" style="fill:#e0e0e0"></path></g></g><g id="freepik--Floor--inject-584"><g id="freepik--floor--inject-584"><path id="freepik--floor--inject-584" d="M87.31,248.92C-2.18,300.58-2.17,384.34,87.31,436s234.57,51.66,324.05,0,89.48-135.43,0-187.09S176.79,197.26,87.31,248.92Z" style="fill:#BA68C8"></path><path id="freepik--floor--inject-584" d="M87.31,248.92C-2.18,300.58-2.17,384.34,87.31,436s234.57,51.66,324.05,0,89.48-135.43,0-187.09S176.79,197.26,87.31,248.92Z" style="fill:#fff;opacity:0.7000000000000001"></path><g style="opacity:0.4"><path d="M139.4,422.32a7.71,7.71,0,0,0-1.17-2.37,8.83,8.83,0,0,0-1.12-1.17c-.26-.22-.66-.6-1-.5-.11,0-.11.24-.05.31.24.33.61.55.83.9a4.71,4.71,0,0,1,.39,1,17.56,17.56,0,0,1,.8,2.62,19.08,19.08,0,0,1,.33,2.49c0,.41.06.81.11,1.23a4.84,4.84,0,0,0,.28,1.12c0,.13.26.36.4.2a4.16,4.16,0,0,0,.75-3A10.19,10.19,0,0,0,139.4,422.32Z" style="fill:#BA68C8"></path><path d="M142.46,409.61c-1.77,2.18-1.78,5.34-1.8,8,0,1.62,0,3.24.05,4.86a19.08,19.08,0,0,0,.44,5.18c.06.18.43.55.56.21.51-1.42.32-3.3.35-4.8s0-3.18,0-4.77a38.75,38.75,0,0,1,.21-4.31c.16-1.35.46-2.68.63-4C142.91,409.82,142.64,409.39,142.46,409.61Z" style="fill:#BA68C8"></path><path d="M146.58,418.21c-.91.17-1.57,1.22-2,2a9.77,9.77,0,0,0-.81,2.21,16.69,16.69,0,0,0-.39,2.63,3.83,3.83,0,0,0,.38,2.81c.08.09.29.21.41.11.68-.57.51-1.7.57-2.51a19.65,19.65,0,0,1,.37-2.65,12.69,12.69,0,0,1,.73-2.18,9.48,9.48,0,0,0,.92-2.06C146.79,418.44,146.75,418.18,146.58,418.21Z" style="fill:#BA68C8"></path><path d="M350.75,421.93a6.68,6.68,0,0,0-1.05-2.1,7,7,0,0,0-1-1c-.23-.2-.59-.53-.92-.44-.1,0-.09.21,0,.27.22.29.54.49.73.8a4.52,4.52,0,0,1,.36.85,15.63,15.63,0,0,1,.7,2.33,18.06,18.06,0,0,1,.3,2.21c0,.37.05.72.09,1.09a5.63,5.63,0,0,0,.25,1c0,.11.23.31.36.18a3.64,3.64,0,0,0,.66-2.67A9,9,0,0,0,350.75,421.93Z" style="fill:#BA68C8"></path><path d="M353.46,410.65c-1.57,1.93-1.58,4.74-1.6,7.13,0,1.43,0,2.87.05,4.31a16.82,16.82,0,0,0,.39,4.6c.05.16.38.49.49.19a13.78,13.78,0,0,0,.31-4.26c0-1.41,0-2.83,0-4.24a35,35,0,0,1,.2-3.83c.13-1.2.41-2.38.55-3.57C353.86,410.83,353.62,410.45,353.46,410.65Z" style="fill:#BA68C8"></path><path d="M357.12,418.28c-.81.16-1.4,1.08-1.76,1.76a8.68,8.68,0,0,0-.71,2,14.37,14.37,0,0,0-.35,2.34,3.34,3.34,0,0,0,.33,2.49c.07.08.26.19.37.1.6-.51.45-1.5.5-2.22a16.76,16.76,0,0,1,.33-2.36,11,11,0,0,1,.66-1.93,8.47,8.47,0,0,0,.8-1.83C357.31,418.49,357.27,418.25,357.12,418.28Z" style="fill:#BA68C8"></path><path d="M262.41,444.94a7.14,7.14,0,0,1,1.06-2.14,8.36,8.36,0,0,1,1-1.05c.24-.21.6-.55.94-.46.1,0,.09.22,0,.28-.22.3-.55.5-.75.82a5,5,0,0,0-.36.86,16.29,16.29,0,0,0-.71,2.38,16.76,16.76,0,0,0-.31,2.24c0,.38-.05.74-.09,1.12a5,5,0,0,1-.26,1c0,.12-.23.32-.36.18a3.7,3.7,0,0,1-.67-2.71A9.11,9.11,0,0,1,262.41,444.94Z" style="fill:#BA68C8"></path><path d="M259.65,433.46c1.6,2,1.61,4.82,1.63,7.25,0,1.47,0,2.93,0,4.39a17.44,17.44,0,0,1-.4,4.69c-.05.17-.39.5-.5.19a13.93,13.93,0,0,1-.32-4.33c0-1.44,0-2.88,0-4.32a33.73,33.73,0,0,0-.2-3.9c-.14-1.22-.41-2.42-.56-3.64C259.24,433.65,259.49,433.26,259.65,433.46Z" style="fill:#BA68C8"></path><path d="M255.92,441.23c.82.16,1.42,1.1,1.79,1.79a9.06,9.06,0,0,1,.73,2,14.69,14.69,0,0,1,.35,2.38,3.35,3.35,0,0,1-.34,2.53c-.07.09-.26.2-.37.11-.61-.52-.46-1.54-.51-2.27a17.55,17.55,0,0,0-.34-2.4,11.12,11.12,0,0,0-.66-2,8.34,8.34,0,0,1-.83-1.86C255.73,441.44,255.76,441.2,255.92,441.23Z" style="fill:#BA68C8"></path><path d="M48.35,325.1a6.69,6.69,0,0,1,1-2,7.41,7.41,0,0,1,.95-1c.23-.19.57-.51.88-.43.1,0,.09.21,0,.27-.21.28-.51.46-.7.76a3.94,3.94,0,0,0-.34.82,14.69,14.69,0,0,0-.68,2.23,16.7,16.7,0,0,0-.28,2.11c0,.36,0,.7-.09,1a4.5,4.5,0,0,1-.24,1c0,.11-.22.3-.34.17a3.53,3.53,0,0,1-.64-2.56A8.63,8.63,0,0,1,48.35,325.1Z" style="fill:#BA68C8"></path><path d="M45.75,314.28c1.5,1.86,1.51,4.55,1.53,6.84,0,1.37,0,2.75,0,4.13a16.63,16.63,0,0,1-.38,4.41c0,.16-.36.47-.47.18a13.24,13.24,0,0,1-.3-4.08c0-1.36,0-2.71,0-4.07a34.68,34.68,0,0,0-.18-3.67c-.14-1.15-.4-2.27-.54-3.42C45.36,314.46,45.6,314.09,45.75,314.28Z" style="fill:#BA68C8"></path><path d="M42.24,321.6c.77.15,1.34,1,1.69,1.69a8.46,8.46,0,0,1,.68,1.88,13,13,0,0,1,.33,2.24,3.19,3.19,0,0,1-.32,2.39c-.06.07-.24.18-.34.09-.58-.49-.44-1.44-.49-2.13a15.57,15.57,0,0,0-.32-2.26,9.81,9.81,0,0,0-.62-1.85,8.59,8.59,0,0,1-.78-1.76C42.06,321.8,42.09,321.57,42.24,321.6Z" style="fill:#BA68C8"></path><path d="M203.93,393.88a6.25,6.25,0,0,0-1-2,7.18,7.18,0,0,0-.94-1c-.21-.19-.55-.51-.86-.42-.09,0-.08.2,0,.26a9.6,9.6,0,0,1,.69.74,3.66,3.66,0,0,1,.33.8,14.14,14.14,0,0,1,.66,2.19,14.36,14.36,0,0,1,.28,2.06c0,.35,0,.69.09,1a4.48,4.48,0,0,0,.24.94c0,.1.21.29.33.16a3.42,3.42,0,0,0,.62-2.5A8.34,8.34,0,0,0,203.93,393.88Z" style="fill:#BA68C8"></path><path d="M206.48,383.3C205,385.12,205,387.75,205,390c0,1.35,0,2.7,0,4a15.92,15.92,0,0,0,.37,4.31c.05.15.36.46.46.18a13,13,0,0,0,.29-4c0-1.33,0-2.66,0-4a33.06,33.06,0,0,1,.17-3.59c.13-1.12.39-2.23.53-3.35C206.85,383.48,206.63,383.12,206.48,383.3Z" style="fill:#BA68C8"></path><path d="M209.91,390.46c-.76.14-1.31,1-1.65,1.65a8.43,8.43,0,0,0-.67,1.84,13.46,13.46,0,0,0-.33,2.19,3.12,3.12,0,0,0,.32,2.33c.06.08.24.18.34.1.57-.48.42-1.41.47-2.09a16.55,16.55,0,0,1,.31-2.21,10.41,10.41,0,0,1,.61-1.81,7.52,7.52,0,0,0,.76-1.72C210.09,390.65,210.05,390.43,209.91,390.46Z" style="fill:#BA68C8"></path><path d="M452.73,325.29a6.87,6.87,0,0,0-1.09-2.18,7.52,7.52,0,0,0-1-1.08c-.25-.21-.61-.56-1-.47-.1,0-.09.22,0,.29.22.3.56.5.76.83a4.64,4.64,0,0,1,.37.89,15.68,15.68,0,0,1,.73,2.42,16.1,16.1,0,0,1,.31,2.3c0,.38.06.76.1,1.14a5.28,5.28,0,0,0,.26,1c0,.12.24.33.37.18a3.77,3.77,0,0,0,.69-2.78A9.54,9.54,0,0,0,452.73,325.29Z" style="fill:#BA68C8"></path><path d="M455.55,313.55c-1.63,2-1.64,4.93-1.66,7.42,0,1.49,0,3,.05,4.49a17.38,17.38,0,0,0,.4,4.79c.06.17.4.51.52.2a14.3,14.3,0,0,0,.32-4.44c0-1.47,0-2.94,0-4.42a37.75,37.75,0,0,1,.2-4c.15-1.25.43-2.48.58-3.72C456,313.74,455.72,313.34,455.55,313.55Z" style="fill:#BA68C8"></path><path d="M459.37,321.49c-.85.17-1.46,1.13-1.84,1.84a9.22,9.22,0,0,0-.74,2,14.36,14.36,0,0,0-.36,2.44,3.46,3.46,0,0,0,.35,2.59c.07.08.27.2.37.1.63-.53.48-1.57.53-2.31a16.94,16.94,0,0,1,.35-2.46,10.78,10.78,0,0,1,.67-2,9.05,9.05,0,0,0,.85-1.91C459.56,321.71,459.53,321.46,459.37,321.49Z" style="fill:#BA68C8"></path></g></g></g><g id="freepik--Shadows--inject-584"><path id="freepik--Shadow--inject-584" d="M441.58,334.89c-19.9-11.49-50.65-12.89-73.21-4.21L349.78,320c-4.25-2.45-11.33-2.71-15.74-.57l-74.47,36.11c-4.41,2.14-4.54,5.9-.3,8.35l10.27,5.93-21.14,12.3c-4.24,2.47-4.23,6.49,0,8.94l17.15,9.9a17.12,17.12,0,0,0,15.43,0l21.25-12.27,10.38,6a15.47,15.47,0,0,0,15.06-.59l24.54-16.87a46,46,0,0,0,7.26,5.11c22.67,13.09,59.43,13.09,82.1,0S464.25,348,441.58,334.89Z" style="fill:#BA68C8;opacity:0.4"></path><ellipse id="freepik--shadow--inject-584" cx="107.39" cy="365.08" rx="58.05" ry="33.52" style="fill:#BA68C8;opacity:0.4"></ellipse></g><g id="freepik--Tree--inject-584"><g id="freepik--tree--inject-584"><g id="freepik--Soil--inject-584"><path d="M272.84,329.52a7.08,7.08,0,0,0-3.34-2.67c-2.35-.9-4.94-.76-7.45-.6.63-7.09-6.52-11.79-12.92-11.79a8.92,8.92,0,0,0-5.22,1.93,20.29,20.29,0,0,0-7.1-4.83,22.25,22.25,0,0,0-12.39-1.7,17.41,17.41,0,0,0-11.4,7.43c-2.15-2.29-5.39-3.21-8.52-3.52a14,14,0,0,0-8,1.19c-2.42,1.31-4.25,4-3.89,6.71-3.16.25-6.53.95-8.71,3.26s-2.36,6.66.37,8.29c-2.89.26-4.35,4-3.27,6.74,1.22,3,4.2,4.67,7.13,5.41a17.29,17.29,0,0,0,5.54.61,13.87,13.87,0,0,0,5.05-1.32,7.53,7.53,0,0,0,10.82,1.84,11,11,0,0,0,18.22,3.12A11.84,11.84,0,0,0,248,347.13c3.52,2.75,7.84,2.72,11.75.91a10.11,10.11,0,0,0,4.47-4.14c.23-.41,1.63-5.31,1.21-5.21a17.77,17.77,0,0,0,5.17-1.82,6,6,0,0,0,3-4.36A4.74,4.74,0,0,0,272.84,329.52Z" style="fill:#b16668"></path><path d="M212.72,329.54a5.16,5.16,0,0,0-6.67-1.49,7.42,7.42,0,0,0-12.66,2.2,7.4,7.4,0,0,1,11.25-1.06,6.76,6.76,0,0,1,.71.8,3.3,3.3,0,0,1,.35-.28,4.78,4.78,0,0,1,1.08-.6,5.16,5.16,0,0,1,6.13,1.75,5,5,0,0,1,.78,1.61A5,5,0,0,0,212.72,329.54Z" style="fill:#9a4a4d"></path><path d="M236.62,324.64a4.79,4.79,0,0,1,6.19-1.38,6.9,6.9,0,0,1,11.75,2.05,6.88,6.88,0,0,0-10.44-1,7.85,7.85,0,0,0-.67.74l-.31-.25a4.81,4.81,0,0,0-6.7,1.06,4.91,4.91,0,0,0-.73,1.49A4.77,4.77,0,0,1,236.62,324.64Z" style="fill:#9a4a4d"></path><path d="M221.22,338.46a4.79,4.79,0,0,1,6.19-1.38,6.9,6.9,0,0,1,11.75,2.05,6.89,6.89,0,0,0-10.45-1,9.4,9.4,0,0,0-.66.74,2.72,2.72,0,0,0-.32-.25,4.55,4.55,0,0,0-1-.56,4.78,4.78,0,0,0-5.68,1.62,4.69,4.69,0,0,0-.73,1.49A4.7,4.7,0,0,1,221.22,338.46Z" style="fill:#9a4a4d"></path></g><path d="M243.86,168.05c2.87-6.79-2.67-15.51-2.12-21.49-9.12,5.43-15.22,14.17-14.3,21.87a20,20,0,0,0,4,9.35C236.62,177.51,241.6,173.4,243.86,168.05Z" style="fill:#BA68C8"></path><path d="M189.06,242.69c-4.21-3.62-3.4-11.36-5.77-15.21,8,.62,15,4.47,17,10a15.17,15.17,0,0,1,.41,7.65C197.11,246.64,192.37,245.54,189.06,242.69Z" style="fill:#BA68C8"></path><path d="M265.37,233.28c4.69-3,5-10.75,7.89-14.22-8-.54-15.5,2.26-18.22,7.42a15.09,15.09,0,0,0-1.51,7.51C256.83,236,261.68,235.62,265.37,233.28Z" style="fill:#BA68C8"></path><path d="M217.19,239.88c.39-3.38-3.2-6.52-3.74-9.24-3.33,3.59-4.9,8.26-3.49,11.55a9.29,9.29,0,0,0,3,3.61A7.12,7.12,0,0,0,217.19,239.88Z" style="fill:#BA68C8"></path><path d="M237.38,155.53a135.07,135.07,0,0,0-6.68,22.11,215.83,215.83,0,0,0-3.88,23.15c-1.81,15-2.11,30.24-2,45.37q0,6.27.17,12.56c.08,4.3-1.16,41.39-1.5,63.67,0,2,5.26,2.18,5.22,0-.4-22-1.09-66.12-1.17-73.66s-.05-14.91.14-22.36a315.53,315.53,0,0,1,4.07-45.31c.72-4.17,1.51-8.33,2.49-12.45,1-4.34,2.27-8.61,3.41-12.91C237.68,155.53,237.48,155.3,237.38,155.53Z" style="fill:#37474f"></path><path d="M210.55,253.8c-4.62-5.1-17.65-18.32-20.92-20.82-.08-.06,0,0,0,0,2.07,2.41,7.84,9.29,11.74,14.2,4.09,5.15,24.32,28.77,24.32,28.77l.25-4.67S214.6,258.27,210.55,253.8Z" style="fill:#37474f"></path><path d="M226.59,256.08v4.31c5.76-5.18,22-19.76,25.82-23.5,4.51-4.35,11.14-10.42,13.5-12.54-3.56,2.05-18.22,13.45-23.46,17.9C238.87,245.29,230.25,252.86,226.59,256.08Z" style="fill:#37474f"></path><path d="M218.5,263.5l-1.3,2.29A96.7,96.7,0,0,1,212.67,245a52.26,52.26,0,0,1,.05-7.56c0-.06.11,0,.11.05.09,2.07.17,4.13.4,6.19a62.36,62.36,0,0,0,1.08,6.35,78.87,78.87,0,0,0,3.54,11.86C218.06,262.43,218.28,263,218.5,263.5Z" style="fill:#37474f"></path><path d="M254.93,198.64c3.14-2.71,2.53-8.49,4.3-11.37-6,.46-11.22,3.34-12.68,7.45a11.37,11.37,0,0,0-.31,5.73C248.91,201.6,252.45,200.77,254.93,198.64Z" style="fill:#BA68C8"></path><path d="M251.33,211.84c2.54-.12,4.43-3.14,6.37-3.86-3-2-6.68-2.63-8.94-1.19a6.91,6.91,0,0,0-2.31,2.65A5.31,5.31,0,0,0,251.33,211.84Z" style="fill:#BA68C8"></path><path d="M238.85,206.94c3.46-3.8,13.21-13.69,15.65-15.56.06,0,0,0,0,0-1.55,1.8-5.86,7-8.78,10.62-3.06,3.85-18.19,21.51-18.19,21.51l-.18-3.5S235.82,210.29,238.85,206.94Z" style="fill:#37474f"></path><path d="M234.06,215.65l-1.85-.68a72.18,72.18,0,0,1,14.8-5.85,38.13,38.13,0,0,1,5.58-.86s0,.07,0,.08c-1.51.32-3,.62-4.52,1s-3.06,1-4.56,1.56a59.22,59.22,0,0,0-8.33,4C234.79,215.2,234.42,215.42,234.06,215.65Z" style="fill:#37474f"></path><path d="M210.4,167.88c-2.06-3.6.45-8.85-.25-12.16,5.46,2.43,9.46,6.91,9.46,11.27a11.29,11.29,0,0,1-1.63,5.5C215.08,172.68,212,170.72,210.4,167.88Z" style="fill:#BA68C8"></path><path d="M209.37,181.52c-2.36-1-3.12-4.44-4.71-5.77,3.56-.89,7.17-.24,8.82,1.87a6.91,6.91,0,0,1,1.29,3.27A5.3,5.3,0,0,1,209.37,181.52Z" style="fill:#BA68C8"></path><path d="M222.77,181.09c-2-4.75-7.86-17.33-9.53-19.91-.05-.06,0,0,0,0,.85,2.22,3.19,8.51,4.71,12.95,1.6,4.65,9.94,26.35,9.94,26.35l1.34-3.23S224.5,185.25,222.77,181.09Z" style="fill:#37474f"></path><path d="M224.37,190.9l2,0a72.42,72.42,0,0,0-12-10.46,38.39,38.39,0,0,0-5-2.69s0,.07,0,.09c1.32.81,2.65,1.59,3.91,2.49s2.57,1.94,3.78,3a58.62,58.62,0,0,1,6.49,6.6C223.83,190.22,224.1,190.56,224.37,190.9Z" style="fill:#37474f"></path><path d="M245.36,235.8c1.23-3.17-1.44-7.12-1.27-9.89-4.14,2.63-6.83,6.75-6.3,10.29a9.22,9.22,0,0,0,2,4.26A7.12,7.12,0,0,0,245.36,235.8Z" style="fill:#BA68C8"></path><path d="M240,246.31c0-.47,0-.95,0-1.42.1-2.15.27-4.29.58-6.42s.75-4.06,1.18-6.09c0,0-.07-.13-.09-.07a52.41,52.41,0,0,0-2,7.3c-.39,2.22-.65,4.5-.82,6.7Z" style="fill:#37474f"></path><path d="M245.05,247.85c3.27-.93,7,2.09,9.73,2.17-3,3.88-7.34,6.19-10.82,5.34A9.34,9.34,0,0,1,239.9,253,7.11,7.11,0,0,1,245.05,247.85Z" style="fill:#BA68C8"></path><path d="M234.09,252.27l1.42.1c2.14.1,4.3.12,6.44,0s4.12-.37,6.17-.62c0,0,.13.08.07.1a53.39,53.39,0,0,1-7.45,1.3c-2.25.18-4.54.23-6.75.2Z" style="fill:#37474f"></path><path d="M195.91,202.07c-3.66-3.07-3-9.75-5.12-13,6.87.45,13,3.69,14.72,8.41a12.94,12.94,0,0,1,.43,6.59C202.89,205.4,198.8,204.49,195.91,202.07Z" style="fill:#BA68C8"></path><path d="M226.44,226l-.49,3.67c-4.33-5.07-16.51-19.37-19.38-23-3.36-4.24-8.33-10.17-10.1-12.25,2.81,2.15,14,13.56,18,18C217.18,215.35,223.68,222.8,226.44,226Z" style="fill:#37474f"></path><path d="M215.24,208.58c-.69-2.85,2-5.92,2.21-8.3,3.23,2.72,5.07,6.54,4.21,9.5a7.93,7.93,0,0,1-2.18,3.41A6.13,6.13,0,0,1,215.24,208.58Z" style="fill:#BA68C8"></path><path d="M218.66,218.17c0-.4.09-.81.13-1.22.16-1.84.26-3.69.24-5.54s-.18-3.56-.32-5.34c0,0,.08-.1.09,0a44.37,44.37,0,0,1,.85,6.46c.08,1.94,0,3.92-.06,5.82Z" style="fill:#37474f"></path><path d="M206.5,213.19c-2.85-.68-5.92,2.06-8.3,2.23,2.73,3.23,6.55,5.06,9.51,4.19a8,8,0,0,0,3.41-2.19A6.13,6.13,0,0,0,206.5,213.19Z" style="fill:#BA68C8"></path><path d="M216.1,216.59l-1.22.13c-1.84.17-3.7.27-5.55.26s-3.56-.17-5.33-.31c0,0-.11.08-.05.09a45.69,45.69,0,0,0,6.46.84c1.94.07,3.91,0,5.81-.08Z" style="fill:#37474f"></path></g></g><g id="freepik--character-2--inject-584"><g id="freepik--Character--inject-584"><g id="freepik--Chartacter--inject-584"><g id="freepik--Bottom--inject-584"><path d="M390,332.1,391.5,317l-17.84-1.89s.77,11.92.7,17.39c0,2.58-1.74,7.43-1.74,7.43s7.05,3.8,10.69,2.22,6-7.63,5.93-8.73Z" style="fill:#ffa8a7"></path><path d="M352.31,358.32c-.25,0-.35,2.42,1.06,3.55a17.17,17.17,0,0,0,12.74,2.6c6-1.13,9.16-3.24,11.47-5.45s5.53-5.35,8.23-6.11a19.3,19.3,0,0,0,6.6-3.88c.77-.85.47-4.45.47-4.45Z" style="fill:#263238"></path><path d="M390.16,330.66s.33.16.53,1c.24,1,.59,3.85,1.08,5.46a30.45,30.45,0,0,1,1.06,8.72c-.24,1.86-4.94,4.34-7.52,5.52a33.35,33.35,0,0,0-8.27,6c-2.71,2.57-8.54,5.4-12.48,5.58-4.66.21-10-1.06-11.3-3.23-1.63-2.68-2.88-5.83,3.84-9.5,1.28-.7,5.72-3.75,7.23-4.85,4.08-3,6.93-5.66,8.62-10.63a2.72,2.72,0,0,1,.91-1.55,2.16,2.16,0,0,1,1.33-.19c1.16.1,5.78.51,6.86,1s2.29.87,2.34,2.1a4.2,4.2,0,0,1-.2,1.26c-.07.25-.11.59.11.72s.46,0,.63-.22a18.14,18.14,0,0,0,1.74-2.4,20,20,0,0,1,1.67-2.18,13.6,13.6,0,0,0,1.14-.86A2.88,2.88,0,0,0,390.16,330.66Z" style="fill:#455a64"></path><path d="M377,357.39c1.15-1.09,2.38-2.15,3.61-3.1h0s-7.85,5.53-11.25,3.39c-2.19-1.38-1.28-3.24-1.26-3.82s-7.66-4.27-9.72-4.42h0a15.11,15.11,0,0,1-1.32.81c-5.27,2.51-5.83,5.42-4.75,9,1.32,2.17,6.12,4.22,12.14,3.9C368.42,362.91,374.33,360,377,357.39Z" style="fill:#37474f"></path><path d="M368.62,352.13c-4.2,2-2.33,2.73-1.12,2.84s8.21-4.63,12.42-8.46c4.4-4,7.71-9.24,9.35-10.71.61-.55,1.26-1.21,1.84-1.84-.17-1-.31-1.85-.42-2.31-.2-.83-.53-1-.53-1a5.61,5.61,0,0,1-.68,1.75,13.6,13.6,0,0,1-1.14.86,20,20,0,0,0-1.67,2.18,18.14,18.14,0,0,1-1.74,2.4C381.44,343,372.81,350.13,368.62,352.13Z" style="fill:#37474f"></path><path d="M367.77,354.31a.47.47,0,0,0,.27-.12.45.45,0,0,0,0-.62c-1.3-1.47-7.23-4.8-10.37-4.27a.43.43,0,0,0-.35.5.43.43,0,0,0,.49.37c2.93-.49,8.57,2.83,9.6,4A.44.44,0,0,0,367.77,354.31Z" style="fill:#263238"></path><path d="M371.39,351.73a.47.47,0,0,0,.27-.12.45.45,0,0,0,0-.62c-1.29-1.46-7.22-4.79-10.36-4.27a.43.43,0,0,0-.35.5.42.42,0,0,0,.48.37c2.94-.48,8.58,2.83,9.61,4A.43.43,0,0,0,371.39,351.73Z" style="fill:#263238"></path><path d="M375,349.27a.38.38,0,0,0,.26-.11.44.44,0,0,0,0-.62c-1.29-1.47-7.23-4.8-10.37-4.27a.43.43,0,0,0-.35.5.44.44,0,0,0,.49.37c2.93-.49,8.58,2.83,9.6,4A.41.41,0,0,0,375,349.27Z" style="fill:#263238"></path><path d="M378.35,346.51a.36.36,0,0,0,.26-.11.44.44,0,0,0,0-.62c-1.29-1.47-7.24-4.8-10.36-4.27a.44.44,0,0,0,.13.87c2.93-.49,8.58,2.83,9.6,4A.42.42,0,0,0,378.35,346.51Z" style="fill:#263238"></path><path d="M381.61,343.76a.41.41,0,0,0,.26-.11.45.45,0,0,0,0-.62c-1.78-2.09-8-4.8-11.09-4.28a.44.44,0,0,0,.13.87c2.83-.47,8.74,2.14,10.32,4A.46.46,0,0,0,381.61,343.76Z" style="fill:#263238"></path><path d="M420.78,338.34l-4.11-18.56,17.45-2.94.39,18.34s1.36,4.92.39,6.62-11.46,3.53-12.43,2.41S420.78,338.34,420.78,338.34Z" style="fill:#ffa8a7"></path><path d="M422.69,367.6c.48,4.16,1.33,6.85,3.06,9.1s4.8,2.62,7.82,1.49,6.85-3.57,7.53-7.31a21.39,21.39,0,0,0-.52-10Z" style="fill:#263238"></path><path d="M434.51,335.18c1.27-.08.94,3.2,1.57,8.82.68,6.07,3.32,10.82,4.28,15.69,1.09,5.56.91,8.14-1.05,11.85S430,379.62,426,375.21c-3.25-3.6-3.61-8-3.63-13.72a133.32,133.32,0,0,0-.48-14.44c-.47-4.21-2.18-8.1-1.1-8.71.11.61,1.21,4.87,1.92,4.8a7.77,7.77,0,0,0-.07-1.6,1.92,1.92,0,0,1,.27-1.42,5.81,5.81,0,0,1,2-1.09c1.22-.4,3.42-.89,4.68-1.16.62-.14,1.25-.25,1.88-.33a5.43,5.43,0,0,1,1.61,0,1,1,0,0,1,.72.49,1.69,1.69,0,0,1,.1.64,4,4,0,0,0,.22,1.14c.05.16.19.35.36.28a.35.35,0,0,0,.19-.37C434.67,339,434.56,335.54,434.51,335.18Z" style="fill:#455a64"></path><path d="M440,358.12c.17.8,1.19,6.11-.34,7.3s-2.83-2.85-2.83-2.85-4.08-.61-9.82,2.56c.35.83-.4,3.85-2,3.45s-2.59-6.52-2.6-6.6c0,5.46.47,9.73,3.63,13.23,4,4.41,11.37,0,13.32-3.67s2.14-6.29,1.05-11.85C440.25,359.14,440.13,358.62,440,358.12Z" style="fill:#37474f"></path><path d="M436.38,363c.14,2,2.28,1.06,2.22-1.84s-1.55-10-2.13-14.71c-.41-6.83-.69-11.35-2-11.27,0,.07,0,.14,0,.21s.15,3.89.17,4.33c.25,4.18.35,12.29.94,16.06A60.22,60.22,0,0,1,436.38,363Z" style="fill:#37474f"></path><path d="M427.68,365a60.24,60.24,0,0,1-1.58-7c-.63-3.73-2.81-11.19-3.89-15.21-.34-.65-1.43-4.4-1.43-4.4-.88.26,0,3.84.44,5.51s.93,3.47,1.46,5.87c1.33,4.73,1.5,11.84,2.36,14.56S428.2,366.94,427.68,365Z" style="fill:#37474f"></path><path d="M426.89,365.31a.61.61,0,0,0,.17-.07,16.71,16.71,0,0,1,9.67-2.23.52.52,0,0,0,.55-.38.4.4,0,0,0-.36-.49,17.4,17.4,0,0,0-10.34,2.39.43.43,0,0,0-.16.61A.44.44,0,0,0,426.89,365.31Z" style="fill:#263238"></path><path d="M425.6,361a.52.52,0,0,0,.16-.06,20.56,20.56,0,0,1,10.82-2.49.52.52,0,0,0,.55-.4.41.41,0,0,0-.38-.48,21.34,21.34,0,0,0-11.44,2.64.45.45,0,0,0-.19.61A.44.44,0,0,0,425.6,361Z" style="fill:#263238"></path><path d="M436.05,354.27a.5.5,0,0,0,.38-.35.39.39,0,0,0-.32-.51c-5.75-1-11.19,2.38-11.42,2.53a.44.44,0,0,0-.17.61.46.46,0,0,0,.64.1s5.34-3.34,10.69-2.38Z" style="fill:#263238"></path><path d="M435.52,350.33a.54.54,0,0,0,.38-.34.4.4,0,0,0-.31-.52A16.22,16.22,0,0,0,423.93,352a.44.44,0,0,0-.13.62.48.48,0,0,0,.65.06c.05,0,5-3.51,10.86-2.35Z" style="fill:#263238"></path><path d="M434.9,345.9a.53.53,0,0,0,.38-.33.39.39,0,0,0-.31-.52c-5.93-1.26-11.5,2.5-11.73,2.66a.44.44,0,0,0-.14.62.45.45,0,0,0,.64.07c.06,0,5.44-3.66,10.95-2.5A.37.37,0,0,0,434.9,345.9Z" style="fill:#263238"></path><path d="M429.38,184.5c1.86,17.7,3.06,27.53,2.64,50.72-.17,8.79.14,18.55.22,27.34,0,2.5-.26,5.44.14,7.91.74,4.56,1.19,7.4,1.94,13,.46,3.38.69,7.68.92,11.1.34,5.12-.15,10.32.89,15.34a48.14,48.14,0,0,1,1.16,5.66,8.74,8.74,0,0,1-.22,3.1c-.27,1-2,3.44-2.35,4.35-.45,1.34,0,3.35,0,4.78,0,0-9.19,4.73-16.2,2.15-.32-1.27-.42-3.38-1.12-4.43-.5-.76-2.74-2.56-3.36-3.3a7,7,0,0,1-1.39-2.72,27.93,27.93,0,0,1-.37-4.3c-.3-3.38-1.8-6.51-2.85-9.73-2.86-8.68-2.36-17.9-4.12-26.78-2.38-12-3.52-19.57-4.87-28.11s-4.77,17-4.77,17a29,29,0,0,0,.22,4.65c.11,3,0,6,.42,9a65.52,65.52,0,0,1-.53,20c-.62,3.46-1.17,5.84-1,9.37.11,2.07.46,3.9-.32,5.82-.56,1.37-2,3.65-2.72,4.93-.29.52-.3,4.68-.61,4.88,0,0-9.71,5.78-17-.45-.1-1.21,0-3.61-.48-4.68-1.26-1.37-3.2-4-3.35-6.06s.44-3.37.45-5.33a64,64,0,0,0-.63-7.17,83.49,83.49,0,0,1-.38-10.25c0-3,.52-6.12.08-9a125.52,125.52,0,0,1-1-14.9c-.57-19.34-.78-58.7,1.26-83.67Z" style="fill:#455a64"></path><path d="M395.32,216.06,401,254.12c-.19-1.17-.37-2.35-.56-3.54-1.35-8.54-4.77,17-4.77,17l.87-16.7a71.42,71.42,0,0,0-1-15.59L392.16,219a18.8,18.8,0,0,1-11.3-9C385.24,214.34,395.32,216.06,395.32,216.06Z" style="fill:#263238"></path><path d="M434.89,328.48c-3.13,2.6-10.23,4.48-16.51,2.13l-1.29-5.54c4.73,1.65,12.43.91,17.65-2.5Z" style="fill:#263238"></path><path d="M391.11,326.91c-2.11,2.27-11.22,3.34-17-.2l-.46-5.57c4.41,2.56,13.82,2.91,18.11.25Z" style="fill:#263238"></path><path d="M431.91,239.14s.54,25.18.48,27-13.9,5.63-14.24,4.49c-.57-1.92-.45-6.19-1.68-26.78C427.14,242.35,431.91,239.14,431.91,239.14Z" style="fill:#37474f"></path><path d="M418.52,250.92a4.08,4.08,0,0,1,1.21-.11c.47,0,.95,0,1.42-.08a21.25,21.25,0,0,0,3-.49,23.23,23.23,0,0,0,3.25-1.05c.86-.35,1.68-.82,2.54-1.17.08,0,.09.13,0,.17a11.86,11.86,0,0,1-2.71,1.47,20.61,20.61,0,0,1-5.64,1.48c-.5.06-1,.1-1.5.13a3.12,3.12,0,0,1-1.58-.12C418.45,251.12,418.44,251,418.52,250.92Z" style="fill:#263238"></path><path d="M424,248.07a.7.7,0,0,0,.23.56.83.83,0,0,0,.92,0,1,1,0,0,0,.46-.94.84.84,0,0,0-.32-.56.91.91,0,0,0-.65-.17c-.28,0-.38.19-.5.45A1.53,1.53,0,0,0,424,248.07Zm.53-.57a.52.52,0,0,1,.36-.1c.41,0,.48.71.15.91a.51.51,0,0,1-.65-.12A.58.58,0,0,1,424.49,247.5Z" style="fill:#263238"></path></g><g id="freepik--Top--inject-584"><path d="M381.62,127.47c-8.2,1.9-12.1,7.91-15.32,20.5-2.33,9.12-5.67,21.26-5.67,21.26s-8.24,11.59-14.74,20.49l11.12,9c6-6.69,9.42-10,13.61-14.38,4.41-4.61,5.48-6,7.42-11.52s6.39-18.4,6.39-18.4Z" style="fill:#ffa8a7"></path><path d="M381.74,127.05c-8,2.47-11,5.75-13.16,11.75s-5.66,20.57-5.66,20.57.39,3,7.54,6.2,10,1.21,10,1.21l5-12.86Z" style="fill:#455a64"></path><path d="M427.83,129.34s6.93,6.24,5.86,19.72c-.82,10.32-2.82,21.79-3.13,26.21-.48,6.77.37,19.52.37,19.52-10.28,12.21-56.81,11.88-62.09.73,0,0,1.79-34.75,4.25-51.68,1.29-8.87,5.35-14.33,8.65-16.79l10.81-3.21,17.75-.23Z" style="fill:#BA68C8"></path><g id="freepik--Head--inject-584"><path d="M395,77.51c15.53-.66,20.62,6.72,22.29,13.93s-2.9,17-7.37,23.79l-28.73-19C378.26,88.82,383.1,78,395,77.51Z" style="fill:#37474f"></path><path d="M380.08,111.12c.37,3.88,2.09,8.2,7.09,9.19a29.55,29.55,0,0,0,5.15.25l.09,1.28.14,2c-3.13,4.16-1.23,7.63,1.93,8a15.75,15.75,0,0,0,15.82-7.74l-.07-12.91s1.06,1.75,3.93.66c2.2-.84,5.14-5,3.56-8.41a4.18,4.18,0,0,0-6.29-1.8c-1,1-1.24,2.68-2.77,2.43-.82-.13-1.61-1.42-1.36-4.25-1.85-2.48-2.48-4.71-1.87-8.82-7.47-4.83-20.35-4.15-23.95-1.41C380,95.15,379.53,105.37,380.08,111.12Z" style="fill:#ffa8a7"></path><path d="M392.32,120.56c5.09-.47,11.91-2.82,13.56-5.14a17.2,17.2,0,0,0,2.26-4.22,12.63,12.63,0,0,1-1.38,5.21c-1.25,2-6.33,5.54-14.31,6Z" style="fill:#f28f8f"></path><path d="M395.62,100.12a1.52,1.52,0,0,0,1.48,1.57,1.56,1.56,0,1,0-1.48-1.57Z" style="fill:#263238"></path><path d="M396.79,95.18l3.32,2.26a2.1,2.1,0,0,0-.56-2.86A2,2,0,0,0,396.79,95.18Z" style="fill:#263238"></path><path d="M382.57,96.13l3.56-1a1.78,1.78,0,0,0-2.21-1.33A1.93,1.93,0,0,0,382.57,96.13Z" style="fill:#263238"></path><path d="M383.65,99a1.5,1.5,0,1,0,3,0,1.5,1.5,0,1,0-3,0Z" style="fill:#263238"></path><path d="M390.62,107.84l-5.47-2.33c.74-1.06,4.8-8.21,7.14-8.76C392.3,96.74,390.62,107.84,390.62,107.84Z" style="fill:#f28f8f"></path><path d="M395.74,108.57l-5,1.87a2.61,2.61,0,0,0,3.38,1.64A2.79,2.79,0,0,0,395.74,108.57Z" style="fill:#b16668"></path><path d="M395.88,109.34a2.74,2.74,0,0,1-1.72,2.74,2.59,2.59,0,0,1-1.78,0A4.07,4.07,0,0,1,395.88,109.34Z" style="fill:#f28f8f"></path></g></g></g><path id="freepik--Fingers--inject-584" d="M340.19,217.5a4.9,4.9,0,0,0,1.65,1.49,3.16,3.16,0,0,0,4.49-2.11c1.53.22,3.34,0,4.13-1.36.53-.87.46-2,.84-2.93,1.17.45,2.44-.19,3.53-.81a2.15,2.15,0,0,0,1.32-2.24,6.56,6.56,0,0,0-.63-4.21,3.33,3.33,0,0,0-3.79-1.23,6,6,0,0,0-1.61,1,73.78,73.78,0,0,0-6.31,5.41c-1,1-2,2-3,3a7.38,7.38,0,0,0-1.52,1.69C338.91,216.09,339.66,216.8,340.19,217.5Z" style="fill:#f28f8f"></path><g id="freepik--Wheelbarrow--inject-584"><path d="M345.67,204.47h0a1,1,0,0,1,1.21.07A5,5,0,0,1,349,207.9a1.37,1.37,0,0,1-.34,1.31h0L338.91,217l-3-4.74Z" style="fill:#BA68C8"></path><path d="M335.94,210.46a1.53,1.53,0,0,1,1.78.11,7.57,7.57,0,0,1,3.2,5,2.1,2.1,0,0,1-.47,1.92c-.05.05-.64.5-.72.55a1.6,1.6,0,0,1-1.73-.16,7.6,7.6,0,0,1-3.19-5,2.09,2.09,0,0,1,.45-1.9C335.32,210.92,335.89,210.5,335.94,210.46Z" style="fill:#BA68C8"></path><path d="M335.94,210.46a1.53,1.53,0,0,1,1.78.11,7.57,7.57,0,0,1,3.2,5,2.1,2.1,0,0,1-.47,1.92c-.05.05-.64.5-.72.55a1.6,1.6,0,0,1-1.73-.16,7.6,7.6,0,0,1-3.19-5,2.09,2.09,0,0,1,.45-1.9C335.32,210.92,335.89,210.5,335.94,210.46Z" style="opacity:0.15"></path><path d="M340.28,216.05a7.57,7.57,0,0,0-3.18-5c-1.51-.87-2.54-.05-2.29,1.84a7.57,7.57,0,0,0,3.18,5C339.5,218.76,340.52,217.94,340.28,216.05Z" style="fill:#BA68C8"></path><path d="M257.07,373.09a.64.64,0,0,0,.42-.18l48.39-43.35a.9.9,0,0,0,.28-.68l.66-41.23a9.13,9.13,0,0,1,1.12-4.35l23.46-62.61,6.6-5.28c.36-.29-.7-1.94-1.06-1.65l-6.71,5.37a.83.83,0,0,0-.19.23L306.5,282.1a11.27,11.27,0,0,0-1.36,5.3l-.65,40.8-48.11,43.11a1.07,1.07,0,0,0-.07,1.37A.87.87,0,0,0,257.07,373.09Z" style="fill:#ebebeb"></path><polygon points="260.07 370.44 272.4 330.91 270.81 330.07 258.48 369.6 260.07 370.44" style="fill:#ebebeb"></polygon><path d="M288.35,361.42l3.29-6.55-7.84-4.54h0c-2.5-1.43-5.82-1.27-9.47.84-7.75,4.47-14,16-14,25.78,0,5.11,1.73,8.72,4.48,10.36h0l.11.06h0l8,4.65,3.48-6.91C283,380.07,288.09,370.13,288.35,361.42Z" style="fill:#37474f"></path><path d="M288.35,361.42l3.29-6.55-7.84-4.54h0c-2.5-1.43-5.82-1.27-9.47.84-7.75,4.47-14,16-14,25.78,0,5.11,1.73,8.72,4.48,10.36h0l.11.06h0l8,4.65,3.48-6.91C283,380.07,288.09,370.13,288.35,361.42Z" style="fill:#263238"></path><path d="M296.53,365.45c0,8.42-4.68,18.17-10.93,23.56,0,0,0,0,0,0a20.35,20.35,0,0,1-3.08,2.21c-7.75,4.47-14,.18-14-9.58,0-7.37,3.59-15.77,8.68-21.36l0-.05a22.61,22.61,0,0,1,5.31-4.37C290.24,351.41,296.53,355.69,296.53,365.45Z" style="fill:#37474f"></path><path d="M282.49,361.77c4.93-2.85,8.93.12,8.93,6.63s-4,14.1-8.93,16.94-8.93-.12-8.93-6.62S277.56,364.62,282.49,361.77Z" style="fill:#455a64"></path><path d="M286.53,371.76c-.34,3.23-2.43,6.67-4.65,7.66a2.16,2.16,0,0,1-2.43-.21c-.78-.66-1.18-2-1-3.85.34-3.24,2.41-6.67,4.65-7.66a2.5,2.5,0,0,1,1.63-.22h0C286,367.8,286.77,369.4,286.53,371.76Z" style="fill:#fafafa"></path><path d="M285.73,371.34c-.34,3.24-2.42,6.67-4.65,7.66a2.48,2.48,0,0,1-1.63.21c-.78-.66-1.18-2-1-3.85.34-3.24,2.41-6.67,4.65-7.66a2.5,2.5,0,0,1,1.63-.22h0C285.52,368.16,285.92,369.53,285.73,371.34Z" style="fill:#f0f0f0"></path><path d="M296.53,365.45c0,8.42-4.68,18.17-10.93,23.56a40,40,0,0,0,8.9-17.23c1.18-5.63.74-13.71-4.09-15.75s-11.21,2.26-13.23,4.22a22.61,22.61,0,0,1,5.31-4.37C290.24,351.41,296.53,355.69,296.53,365.45Z" style="fill:#455a64"></path><path d="M392.67,225.73h0a1.08,1.08,0,0,1,1.22.07,5.08,5.08,0,0,1,2.13,3.35,1.37,1.37,0,0,1-.34,1.32h0l-9.78,7.82-3-4.74Z" style="fill:#BA68C8"></path><path d="M382.94,231.71a1.58,1.58,0,0,1,1.79.11,7.62,7.62,0,0,1,3.19,5,2.12,2.12,0,0,1-.46,1.92l-.73.55a1.6,1.6,0,0,1-1.72-.16,7.57,7.57,0,0,1-3.2-5,2.15,2.15,0,0,1,.45-1.91Z" style="fill:#BA68C8"></path><path d="M382.94,231.71a1.58,1.58,0,0,1,1.79.11,7.62,7.62,0,0,1,3.19,5,2.12,2.12,0,0,1-.46,1.92l-.73.55a1.6,1.6,0,0,1-1.72-.16,7.57,7.57,0,0,1-3.2-5,2.15,2.15,0,0,1,.45-1.91Z" style="opacity:0.15"></path><path d="M387.28,237.31a7.54,7.54,0,0,0-3.18-5c-1.51-.87-2.53,0-2.29,1.83a7.63,7.63,0,0,0,3.18,5C386.5,240,387.53,239.19,387.28,237.31Z" style="fill:#BA68C8"></path><path d="M265.41,384.56a13.76,13.76,0,0,0,7.2-2.34l48.19-34.57c1.87-1.34,4.47-.61,5.92,1.66l4.47,7c3.19,5,8.84,6.63,12.58,3.62s6.53-9.85,6.63-16l.5-31.49A9.15,9.15,0,0,1,352,308l25.35-64.6a7.35,7.35,0,0,1,1.76-2.1l5.55-4.43c.36-.29-.69-1.94-1.06-1.65l-5.54,4.43a8.87,8.87,0,0,0-2.14,2.55l-25.36,64.6a11.27,11.27,0,0,0-1.38,5.34l-.5,31.49c-.09,5.58-2.72,12-6,14.64-3,2.43-7.61,1.07-10.22-3l-4.48-7c-2-3.16-5.62-4.17-8.21-2.31l-48.19,34.57a13.39,13.39,0,0,1-13.33.61,4.71,4.71,0,0,1-.8-8.22,1.06,1.06,0,0,0,.08-1.36.8.8,0,0,0-1.19-.24,7.09,7.09,0,0,0-2.54,6.32,7.35,7.35,0,0,0,3.84,5.23A14.23,14.23,0,0,0,265.41,384.56Z" style="fill:#ebebeb"></path><polygon points="275.93 379.67 290.74 341.57 289.19 340.61 274.39 378.71 275.93 379.67" style="fill:#ebebeb"></polygon><path d="M241,304.36l16,19.26a38.09,38.09,0,0,0,4.41,4.39l53-51.49a7.1,7.1,0,0,1,4.2-2h0l-2.64-20.2Z" style="fill:#BA68C8"></path><path d="M241,304.36l16,19.26a38.09,38.09,0,0,0,4.41,4.39l53-51.49a7.1,7.1,0,0,1,4.2-2h0l-2.64-20.2Z" style="opacity:0.1"></path><path d="M318.58,274.52a7.92,7.92,0,0,1,4.85,1.09L357,295a23.61,23.61,0,0,0,.58-8.16l-1.2-9.17-40.39-23.33Z" style="fill:#BA68C8"></path><path d="M318.58,274.52a7.92,7.92,0,0,1,4.85,1.09L357,295a23.61,23.61,0,0,0,.58-8.16l-1.2-9.17-40.39-23.33Z" style="opacity:0.2"></path><path d="M314.38,276.52a7.35,7.35,0,0,1,9.05-.91L357,295a22.62,22.62,0,0,1-3.4,8L320.9,347.18c-4.93,6.66-13.39,8.28-20.85,4l-33.49-19.34a36.35,36.35,0,0,1-5.17-3.81Z" style="fill:#BA68C8"></path><path d="M356.33,277.64l1.21,9.27c.64,5.06-1.14,12.24-4,16.08L320.9,347.18A15.16,15.16,0,0,1,309,353.53l-12.88-17.37Z" style="fill:#BA68C8"></path><path d="M356.33,277.64l1.21,9.27c.64,5.06-1.14,12.24-4,16.08L320.9,347.18A15.16,15.16,0,0,1,309,353.53l-12.88-17.37Z" style="opacity:0.35000000000000003"></path><path d="M296.11,336.16,309,353.53a17.08,17.08,0,0,1-8.94-2.37l-33.49-19.34a42.79,42.79,0,0,1-9.59-8.19l-16-19.27Z" style="fill:#BA68C8"></path><path d="M296.11,336.16,309,353.53a17.08,17.08,0,0,1-8.94-2.37l-33.49-19.34a42.79,42.79,0,0,1-9.59-8.19l-16-19.27Z" style="opacity:0.45"></path><path d="M242.2,309.27l50.6,29.22a6.21,6.21,0,0,0,7-.68l57.57-55.05c3.15-3,2.44-7.37-1.58-9.68L319.25,252a7.6,7.6,0,0,0-7.36.08L241.25,300C237.42,302.57,237.84,306.76,242.2,309.27Zm2.29-7.23,68-45.41a7.62,7.62,0,0,1,7.37-.05l32.57,18.8c2.16,1.25,2.55,3.58.87,5.22l-54.13,52.6a6.14,6.14,0,0,1-7,.7l-47.26-27.28C242.78,305.37,242.57,303.32,244.49,302Z" style="fill:#BA68C8"></path><path d="M242.2,309.27l50.6,29.22a6.21,6.21,0,0,0,7-.68l57.57-55.05c3.15-3,2.44-7.37-1.58-9.68L319.25,252a7.6,7.6,0,0,0-7.36.08L241.25,300C237.42,302.57,237.84,306.76,242.2,309.27Zm2.29-7.23,68-45.41a7.62,7.62,0,0,1,7.37-.05l32.57,18.8c2.16,1.25,2.55,3.58.87,5.22l-54.13,52.6a6.14,6.14,0,0,1-7,.7l-47.26-27.28C242.78,305.37,242.57,303.32,244.49,302Z" style="fill:#fff;opacity:0.2"></path><path d="M254.35,304.63a6.06,6.06,0,0,1,5.06,2.64,12.74,12.74,0,0,1,8.92-7.7c-.09-3.33,2-6,4.88-6.18a5.66,5.66,0,0,1,4.05,1.55,12.39,12.39,0,0,1,10.58-7.47c5.6-.29,10.94,3.28,14,8.71a3.73,3.73,0,0,1,.83-1.66c1.32-1.47,3.54-1.27,5,.45a4.92,4.92,0,0,1,1.06,2.6,11.58,11.58,0,0,1,3.29-.65c4.6-.24,9,2.13,12.14,6a3.81,3.81,0,0,1,.89-2c1.33-1.47,3.55-1.27,5,.45a4.43,4.43,0,0,1,.7,1.18L299.16,333.2a6.14,6.14,0,0,1-7,.7l-42.62-24.6A5.28,5.28,0,0,1,254.35,304.63Z" style="fill:#b16668"></path><path d="M297.73,309.23a4,4,0,0,1,5.76-1.87,5.73,5.73,0,0,1,4.73-3.07c2.87-.15,5.58,1.86,6.91,4.81a7,7,0,0,0-5.88-3.06,5.63,5.63,0,0,0-4.34,2.45,8.55,8.55,0,0,0-.53.88c-.11-.09-.22-.19-.34-.27a5.07,5.07,0,0,0-1.06-.59,4,4,0,0,0-5.24,2.13,5.43,5.43,0,0,0-.48,1.73A5.71,5.71,0,0,1,297.73,309.23Z" style="fill:#9a4a4d"></path><path d="M286.63,303.32a3.32,3.32,0,0,0-4.69-1,5.23,5.23,0,0,0-4.15-1.93,4.68,4.68,0,0,0-4.22,4.13,4.38,4.38,0,0,1,3.79-2.74,5.06,5.06,0,0,1,3.74,1.5,6.63,6.63,0,0,1,.57.61l.21-.23a3,3,0,0,1,.67-.52,3.39,3.39,0,0,1,4.35,1.19,4.72,4.72,0,0,1,.7,1.26A4.82,4.82,0,0,0,286.63,303.32Z" style="fill:#9a4a4d"></path><path d="M295.37,320.67c-1.28-1.65-3.3-2-4.69-1a5.26,5.26,0,0,0-4.15-1.93,4.68,4.68,0,0,0-4.23,4.14,4.43,4.43,0,0,1,3.8-2.75,5.11,5.11,0,0,1,3.74,1.5,6.76,6.76,0,0,1,.57.62,2.2,2.2,0,0,1,.2-.23,3.17,3.17,0,0,1,5,.66,4.88,4.88,0,0,1,.7,1.26A5,5,0,0,0,295.37,320.67Z" style="fill:#9a4a4d"></path></g><path d="M353.88,203.75a15.18,15.18,0,0,1,3.13-5c-2.52-4.35-5.62-7.83-11.12-9-2.21,3.27-4.73,5.7-5.79,8-2,4.36-2.2,13-2.2,13l5.23-4.17c3.09-1.71,5.05,6.66,5.1,8.73s-.57,3.26-.2,4.57,2.2,2.62,3.12.69,2.7-4.53,2.92-7.75S353.44,205.81,353.88,203.75Z" style="fill:#ffa8a7"></path><g id="freepik--Arm--inject-584"><g id="freepik--arm--inject-584"><path d="M438.82,164.34c-1,10.63-.89,10.36-1.6,16.72-.58,5.17-.9,7.09-6.93,15.71-3.73,5.34-11.52,15.9-15.35,20.65-4-.79-8.78-4.83-11.35-7.48,4.56-6.19,14.3-28,14.3-28l2.42-26.42s1.3-19.21,8.15-24.3c8.25,3.16,10.31,6.47,11.22,11.2S440,152.25,438.82,164.34Z" style="fill:#ffa8a7"></path><path d="M415.84,216.33l.15-.47c-4.17-1.71-8.37-5.43-10.88-8h0a42.14,42.14,0,0,1-6.52,7.36c-2.13,2.08-7.13,4.46-10.33,7.34s-1.39,7.83-1.39,7.83l2.6-2.13c2.08-1.12,4.1,2.72,3.52,4.37l-4.29,3.44c2.68,1.9,8.45.91,10.15-.32s2.83-1.07,6.3-3.3,5-6.66,7-10.39A33.87,33.87,0,0,1,415.84,216.33Z" style="fill:#ffa8a7"></path></g><path d="M427.83,129.34c7.13,2.67,9.87,4.75,12,8.59s1.84,10.48,1.09,19.18S439.53,171,439.53,171s-3.27,2-9.26,1.59-11.45-4.31-11.45-4.31,1.07-13.65,1.82-19.36S422.59,135.23,427.83,129.34Z" style="fill:#455a64"></path></g></g></g><g id="freepik--character-1--inject-584"><g id="freepik--character--inject-584"><g id="freepik--bottom--inject-584"><path d="M70.8,345.69c1.07-11.55.1-24.21,1.42-42.25h0c.18-4.63.44-9.59.84-14,1.34-14.8,3.73-19.82,4-22.68,0,0,1.68-28.39,3.3-60.81.76-15.25,5.27-19.78,9-27.81l42,.83c4.3,20.08,4.77,63.7,4.22,84.29-.28,10.5-5.64,66.6-5.75,67.89-.39,4.58,0,6.4,1.73,8.36,3.68,4.11,9.06,8.06,13.71,11.68-.72,1.79-6.39,1.61-9.17.18a71.22,71.22,0,0,1-10.33-6.88c-3.82-2.95-8.73-5.35-8.7-9.71a4,4,0,0,0-.12-.78c0-2.55-5.21-40.25-5.54-49-.27-7.51.89-20.21.89-20.21L108.06,233s-4.19,24-7.47,36.8c-2.66,10.38-7.06,28.11-10.08,40.89h0c-3,14.74-7.05,29.05-7.87,36.44-.24,1.77-2.58,19.08-3.49,23s-9.57,3.89-10-3C68.88,362.61,70.6,347.87,70.8,345.69Z" style="fill:#ffbda7"></path><path d="M153.16,356c.24,0,.58,2.65-.74,3.76-1.51,1.28-5.95,3.37-11.77,2.56s-9-2.64-11.28-4.61-5.56-4.76-8.2-5.37c-2.44-.56-5.09-1.69-5.87-2.46s-.64-4.13-.64-4.13Z" style="fill:#263238"></path><path d="M116.81,332.77s-.44,0-.59.79-.41,3.62-.81,5.14a27.27,27.27,0,0,0-.65,8.18c.31,1.73,4.29,3,6.83,4a32.55,32.55,0,0,1,8.23,5.3,24.07,24.07,0,0,0,12.26,4.69c5.8.14,9.58-1.4,10.76-3.47,1.45-2.57.34-4.07-6.3-7.23-1.25-.59-5.66-3.26-7.17-4.22a34.64,34.64,0,0,1-4.5-3.42,25.79,25.79,0,0,1-2-2,9.23,9.23,0,0,1-1.67-2.18c-.07-.17-.12-.38-.19-.56a9.58,9.58,0,0,1-.42-1.57c-.1-.56-.16-1.36-.69-1.7a4.37,4.37,0,0,0-2.38-.3,15.87,15.87,0,0,0-2.57.34c-1,.21-2.12.28-2.71,1.2a4.87,4.87,0,0,0-.57,2.41c0,.39,0,.78,0,1.17,0,.17.07.47-.16.4s-.47-.66-.55-.85c-.18-.44-.29-.91-.49-1.34a7.39,7.39,0,0,0-.82-1.42,6.31,6.31,0,0,0-1-1.08,12.39,12.39,0,0,1-1.13-.76A2.74,2.74,0,0,1,116.81,332.77Z" style="fill:#37474f"></path><path d="M147.61,350.65c-8.4.5-11.1,5.67-11.48,8.88a19.89,19.89,0,0,0,6,1.3c5.8.14,9.81-1.39,11-3.47C154.45,354.94,153.55,353,147.61,350.65Z" style="fill:#fafafa"></path><path d="M135,350.62a.43.43,0,0,1-.26-.09.41.41,0,0,1,0-.58,9.87,9.87,0,0,1,7.62-2.93.41.41,0,0,1,.36.46.4.4,0,0,1-.45.36,9.14,9.14,0,0,0-6.9,2.64A.43.43,0,0,1,135,350.62Z" style="fill:#f0f0f0"></path><path d="M131.42,348.48a.43.43,0,0,1-.26-.09.41.41,0,0,1,0-.58,9.87,9.87,0,0,1,7.62-2.93.41.41,0,0,1-.09.82,9.18,9.18,0,0,0-6.9,2.63A.41.41,0,0,1,131.42,348.48Z" style="fill:#f0f0f0"></path><path d="M128.09,346a.43.43,0,0,1-.26-.09.41.41,0,0,1,0-.58,9.9,9.9,0,0,1,7.62-2.93.41.41,0,0,1,.36.46.41.41,0,0,1-.45.36,9.14,9.14,0,0,0-6.9,2.64A.43.43,0,0,1,128.09,346Z" style="fill:#f0f0f0"></path><path d="M124.83,343.61a.52.52,0,0,1-.26-.1.41.41,0,0,1-.06-.57c1.63-2,5.28-3.32,8.33-3a.41.41,0,1,1-.1.81c-2.74-.32-6.14.87-7.59,2.66A.42.42,0,0,1,124.83,343.61Z" style="fill:#f0f0f0"></path><path d="M81.81,372.67c-.31,4.17-1,6.92-2.43,9.34s-4.12,3.13-6.79,2.36-6.08-2.76-6.78-6.38-1.1-6.09-.42-9.95Z" style="fill:#263238"></path><path d="M71.06,342.21c-1.11.07-1.51,5.66-2.26,11.26-.79,6-2.54,8.46-3.25,13.37-.8,5.62,0,8.16,1.84,11.6s8.38,6.93,11.74,2.12c2.74-3.92,2.94-8.33,2.8-14a131.89,131.89,0,0,1,.63-14.25c.29-4.21,1.67-8.68.72-9.17-.09.61-.35,1.59-.51,2.41a11.55,11.55,0,0,1-.57,2.07c-.11.31-.37.64-.46.13a3.69,3.69,0,0,1,0-1.05c.19-1.55-.55-1.7-1-1.82A47.12,47.12,0,0,0,75.7,344c-.85-.08-3.76-.27-4.15.23a3.58,3.58,0,0,0-.41,1.62c-.11.84-.3,1.46-.32,1.19,0-.6.1-2.18.12-2.56S71,342.65,71.06,342.21Z" style="fill:#37474f"></path><path d="M65.18,370.1a14.7,14.7,0,0,0,1.91,8.61c1.81,3.44,8.91,7,12.28,2.14,1.67-2.4,2.16-5.26,2.44-8.18C79.92,368.87,68.33,367,65.18,370.1Z" style="fill:#fafafa"></path><path d="M79.51,366.49l-.14,0s-5.12-2.36-10.13-1.25a.41.41,0,0,1-.48-.34.43.43,0,0,1,.32-.51,18.44,18.44,0,0,1,10.66,1.32.46.46,0,0,1,.19.59A.42.42,0,0,1,79.51,366.49Z" style="fill:#f0f0f0"></path><path d="M69.57,361a.42.42,0,0,1-.34-.29.44.44,0,0,1,.27-.55c5-1.66,10.45,1.11,10.65,1.23a.43.43,0,0,1,.16.58.4.4,0,0,1-.55.17c-.05,0-5.37-2.71-10-1.15A.32.32,0,0,1,69.57,361Z" style="fill:#f0f0f0"></path><path d="M69.82,357.05a.42.42,0,0,1-.34-.29.44.44,0,0,1,.26-.55c5.49-1.95,10.67,1.07,10.86,1.2a.43.43,0,0,1,.12.59.4.4,0,0,1-.56.14s-5-2.92-10.16-1.11A.37.37,0,0,1,69.82,357.05Z" style="fill:#f0f0f0"></path><path d="M70.17,353.16a.42.42,0,0,1-.34-.29.43.43,0,0,1,.25-.55c5.15-1.91,10.72,1.18,10.93,1.32a.45.45,0,0,1,.14.59.4.4,0,0,1-.57.15s-5.45-3-10.23-1.25A.38.38,0,0,1,70.17,353.16Z" style="fill:#ebebeb"></path><path d="M88.2,178.26c-5.16,9-9,16.32-10,43.29s-1.94,39.85-2.11,43.1-2.18,9-4.16,25-.83,34.79-.83,34.79,1.53,2.94,7.64,3.61c5.65.62,8.49-1.45,8.49-1.45S95.56,295.57,97.9,286s10-46.55,10-46.55l3.18,25.82s-1.9,8.8-.45,22.89,4.2,28.54,4.2,28.54a25.39,25.39,0,0,0,8.65,1.59,14.64,14.64,0,0,0,7.66-1.84s5.63-41.71,6-57.64-.24-55.77-4.78-79.45Z" style="fill:#455a64"></path><path d="M99.74,269.7s-2.36-3.56-8.33-4.4-9.13,2.34-9.13,2.34S93.4,266.69,99.74,269.7ZM81.57,270c7.67,1.68,11.19,1.44,14.72.81C96.29,270.79,85.24,269.17,81.57,270Z" style="fill:#ffbda7"></path><path d="M137,262.92l.09-1.72c-5.14-.79-13.36.71-15.59,1.93A76.19,76.19,0,0,1,137,262.92Zm-11.88,2.29c3.43,1,11.63,1.57,11.63,1.57l.11-1.62S131,264.87,125.07,265.21Z" style="fill:#ffbda7"></path><path d="M72.53,326a6.81,6.81,0,0,0,.82.56c-1.06-25.21,2.36-39.61,4.64-49.21.22-.92.43-1.8.62-2.64,1.73-7.5,2.74-22.61,3-35,.07-3.73.14-7.58.26-11.67.13-4.79.38-9.74.86-14.64,8.8-.87,10.88-9.51,13.5-20.41.36-1.49.73-3,1.13-4.61l-.78-.2c-.4,1.59-.77,3.13-1.13,4.63-2.62,10.92-4.55,18.85-12.63,19.76C84,201.42,86.47,190.67,92.09,183l-.65-.47C83.08,194,81.49,211.92,81,228c-.12,4.09-.19,7.95-.26,11.68-.22,12.34-1.23,27.41-2.94,34.84-.19.83-.4,1.7-.62,2.62C74.94,286.7,71.54,301,72.53,326Zm41.06-117.09-5.66,30.53,3.18,25.82v-25l3.81-18.92q.13,2.84.27,5.8c.79,16.31,1.69,34.79.76,38.66-2.55,10.6-2,17.33-1,29.55.1,1.24.21,2.54.31,3.9.55,6.9,1.18,13.67,1.6,18.12l.82.21c-.42-4.43-1.06-11.35-1.62-18.4-.11-1.36-.21-2.65-.31-3.9-1-12.13-1.55-18.82,1-29.3,1-4,.09-21.72-.74-38.88-.15-3.11-.29-6.12-.42-9l1.08-5.37c3.86-.85,12.4-5.14,13.63-10.42C124.25,208.33,113.59,208.88,113.59,208.88Z" style="fill:#37474f"></path></g><g id="freepik--top--inject-584"><g id="freepik--arm--inject-584"><g id="freepik--Shovel--inject-584"><g id="freepik--shovel--inject-584"><g id="freepik--shovel--inject-584"><path d="M169.77,323.79s3.34,16.33,7.1,24.73a27,27,0,0,0,1.31,2.59q1.13,0,2.4,0c6-.05,14.25-.92,20.13-4.72,1.63-6.27,2.33-10.88.45-16.35l-8.59-25-2.14-.44Z" style="fill:#e0e0e0"></path><polygon points="190.44 304.65 192.57 305.09 171.9 324.23 169.77 323.79 190.44 304.65" style="fill:#ebebeb"></polygon><path d="M171.9,324.23s4,17.46,7.7,25.08c.32.66.65,1.27,1,1.83,6-.05,14.25-.92,20.13-4.72.32-.21.63-.41.92-.64,1.41-6.62,1.45-10.14-.47-15.71l-8.59-25Z" style="fill:#fafafa"></path><path d="M185,313.67,180.48,318c.72,5,5.4,18,7.06,19.82s3.08.32,2.58-1.56S185.15,319.66,185,313.67Z" style="fill:#e0e0e0"></path><path d="M182.88,302.66a1.56,1.56,0,0,0-1.16-1,4.86,4.86,0,0,0-4.28,1,1.54,1.54,0,0,0-.61,1.44c.08.32,3.1,13.67,3.17,14a1.56,1.56,0,0,0,1.17,1,4.83,4.83,0,0,0,4.28-1,1.53,1.53,0,0,0,.6-1.44C186,316.33,183,303,182.88,302.66Z" style="fill:#f0f0f0"></path><path d="M181.72,301.63a1.56,1.56,0,0,1,1.16,1,1.52,1.52,0,0,1-.6,1.44,4.83,4.83,0,0,1-4.28,1,1.52,1.52,0,0,1-1.17-1,1.54,1.54,0,0,1,.61-1.44A4.86,4.86,0,0,1,181.72,301.63Z" style="opacity:0.2"></path><path d="M165.27,224.59a1.56,1.56,0,0,0-1.17-1,4.84,4.84,0,0,0-4.28,1,1.55,1.55,0,0,0-.61,1.43c.08.32,18.2,80.63,18.27,81a1.52,1.52,0,0,0,1.17,1,4.81,4.81,0,0,0,4.27-1,1.54,1.54,0,0,0,.61-1.44Z" style="fill:#BA68C8"></path><path d="M164.1,223.55a1.56,1.56,0,0,1,1.17,1,1.55,1.55,0,0,1-.61,1.43,4.87,4.87,0,0,1-4.28,1,1.56,1.56,0,0,1-1.17-1,1.55,1.55,0,0,1,.61-1.43A4.84,4.84,0,0,1,164.1,223.55Z" style="opacity:0.2"></path><path d="M164.43,220.94a1.56,1.56,0,0,0-1.16-1,4.85,4.85,0,0,0-4.29,1,1.53,1.53,0,0,0-.6,1.44c.07.32,2.1,9.27,2.18,9.59a1.53,1.53,0,0,0,1.16,1,4.89,4.89,0,0,0,4.29-1,1.52,1.52,0,0,0,.6-1.44C166.54,230.21,164.51,221.26,164.43,220.94Z" style="fill:#37474f"></path><path d="M159,220.88a1.53,1.53,0,0,0-.6,1.44c.07.32,2.1,9.27,2.18,9.59h0l16.92,75h0c.92,4,2.47,10.88,2.52,11.11a1.54,1.54,0,0,0,1.17,1,4.1,4.1,0,0,0,1.37.13c-7.83-34.68-17.59-78-22.34-99A4,4,0,0,0,159,220.88Z" style="opacity:0.2"></path><path d="M163.27,219.91a1.56,1.56,0,0,1,1.16,1,1.52,1.52,0,0,1-.6,1.44,4.89,4.89,0,0,1-4.29,1,1.35,1.35,0,0,1-.56-2.48A4.85,4.85,0,0,1,163.27,219.91Z" style="fill:#263238"></path><path d="M165.92,198.08a2.24,2.24,0,0,0-.25-.63h0a1.22,1.22,0,0,0-1.48-.61,24.82,24.82,0,0,0-6.88,3.78,36.27,36.27,0,0,0-6.28,6.29,4,4,0,0,0-.77,2.32h0a3.19,3.19,0,0,0,.09.77l1.51,6.23c.94,3.86,3.07,6.59,5.85,7.5l3.5,1.14c1.23.4,2.67-.7,3.35-2.56l1.93-5.29a22.56,22.56,0,0,0,.94-12.71Zm-12.2,16.72-.83-3.44c3.54-4.61,7.52-7.66,11.84-9.07l.84,3.45a18.41,18.41,0,0,1-.77,10.36l-1.93,5.29c-.18.49-.56.78-.88.67l-3.49-1.13C156.23,220.18,154.49,218,153.72,214.8Z" style="fill:#263238"></path></g></g><path d="M205.61,339.13a3.45,3.45,0,0,1,1.33,4.47,4.93,4.93,0,0,1,2.69-.39,1.7,1.7,0,0,1,1.37,2,2.8,2.8,0,0,1,2.12-.2,1.69,1.69,0,0,1,.92,1,.3.3,0,0,0,.08.16.36.36,0,0,0,.29.05,2.81,2.81,0,0,1,2.46,1c.21.27.37.67.17.94a.79.79,0,0,1-.31.23,4.94,4.94,0,0,1-4.07.2,1.26,1.26,0,0,0-.65-.14,1.48,1.48,0,0,0-.44.21,4.19,4.19,0,0,1-2.72.65,4.25,4.25,0,0,1-2.52-1.23.33.33,0,0,0-.17-.12.31.31,0,0,0-.21.07c-1.14.71-1.53,1-3.94,1.09a4.71,4.71,0,0,1-3.44-.89,16.26,16.26,0,0,1-5.4,1.32,9.38,9.38,0,0,0,4.18-3.77c.59-1.08.94-2.28,1.5-3.38C199.94,340.33,203.11,337.74,205.61,339.13Z" style="fill:#b16668"></path></g><path d="M124.44,171.43c-2.67-11.32-4.22-18.49-4.22-18.49l3.55-18.65c8,1.18,9.56,6.06,12.45,17.48,2.8,11.09,4.89,20.5,4.89,20.5s14.31,17.18,18.74,20.15,7.57,3.7,8.19,5.31a34,34,0,0,1,1.44,5.61,9.85,9.85,0,0,1,.29,2.59,2.26,2.26,0,0,1-.42,1.2c-.38.5-1,.49-1.47.91a1.26,1.26,0,0,0-.26.45A2.67,2.67,0,0,1,165,210a1.69,1.69,0,0,0-.87,0,1.41,1.41,0,0,0-.46.51,3.62,3.62,0,0,1-1.25,1.24,2.1,2.1,0,0,1-1.71.17,3.32,3.32,0,0,0-.93-.36,1.72,1.72,0,0,0-.55.1,4,4,0,0,1-2.66.13,4,4,0,0,1-1.8-1.45s.73-1,1.17-1.44a3.71,3.71,0,0,0,1.17-2.87c-.15-2.6-2.14-2.54-2.14-2.54a24.16,24.16,0,0,0-2.34,2.83c-2.82-3-1.87-5.42-4.57-7.86-4-3.58-10.34-8.49-16.84-14C125.77,180,126,178.21,124.44,171.43Z" style="fill:#ffbda7"></path></g><path d="M79.54,196.79c2.06-8.57,3.57-15.31,3.69-20.79.26-11.34-2.15-18.3-2.77-23.11A20.34,20.34,0,0,1,88,134.23s1.71-.29,5.48-.81c1.85-.25,4.71-.6,7.49-.94a48.57,48.57,0,0,1,11.78-.37c1.13.13,6.48,1.17,6.48,1.17,1.61.41,4.57,1,4.57,1a34.3,34.3,0,0,1,7,9.37c2.55,4.79,4,8.77,4.24,18.92.34,12.92.71,25.94.53,34.95C124.72,203.89,92.74,208.52,79.54,196.79Z" style="fill:#263238"></path><g id="freepik--head--inject-584"><path d="M85.6,87.38A9.7,9.7,0,0,0,79.86,95c-.22,2.36.53,4.9-.53,7s-3.66,3.09-5.56,4.61a7.62,7.62,0,0,0-2.64,3.8,5.33,5.33,0,0,0,.7,4.5,3.21,3.21,0,0,1,1-3,9.64,9.64,0,0,1,2.81-1.73c-2.23,1-2.82,5.12-2.47,7.19.47,2.71,3.33,4.43,2.69,7.29A19.29,19.29,0,0,1,74,128.78a11.31,11.31,0,0,0-1.07,7.39c1,4.27,5,6.34,9,7.26a24.59,24.59,0,0,0,9.89-.07,16.08,16.08,0,0,0,6.4-2.36,11.34,11.34,0,0,0,4.43-7.41c.48-3-.29-5.46-1-8.28-.33-1.2.23-2.11.52-3.3a31.52,31.52,0,0,0,.62-4c.87-7.69,1-15.56-.78-23.08-1.51-6.2-8.36-9.66-14.39-8.22A10.77,10.77,0,0,0,85.6,87.38Z" style="fill:#263238"></path><path d="M88.44,94.06a2.39,2.39,0,0,0,.17,1.38,2.72,2.72,0,0,0,2.2,1,5.35,5.35,0,0,0,2.61-.13A4.16,4.16,0,0,0,95.09,95c1.42-1.79,4.13-8.42-.17-8.57C91.42,86.25,88.74,91.12,88.44,94.06Z" style="fill:#BA68C8"></path><path d="M98.83,123.17c.31.81,1.08-.09,1.84.41a2.64,2.64,0,0,0,2,0,10.45,10.45,0,0,0,1.09-.32A17.19,17.19,0,0,0,109,120.2c2.79-2.29,5-5.32,8.09-7.15,2.18-1.3,4.12-3.43,6.61-4.13a20.68,20.68,0,0,0,3.23-.83,4.32,4.32,0,0,0,1.59-6.57,7.33,7.33,0,0,0,2.8-5.18,7.14,7.14,0,0,0-2-5.51c-1.9-1.91-4.61-2.53-7-3.46A13.63,13.63,0,0,1,119,85.51a13.83,13.83,0,0,0-4.21-1.81c-7-2.06-15.95-.27-20.92,5.29a16.77,16.77,0,0,0-4.08,8.7,43.89,43.89,0,0,0,0,7.25,18.53,18.53,0,0,0,1.92,7C93.49,116,97.19,118.91,98.83,123.17Z" style="fill:#263238"></path><path d="M98.7,128c0-1.68,0-12.66,0-12.66-.07.63-2.65,3.34-5.87.92a6.3,6.3,0,0,1-1.37-8.87c1.78-2.45,6.51-2.45,7,1.64,2.35-.12,3.47-1.15,2.49-5,.15-1.94,1.88-1.29,2.52-3.08.52-1.42.25-3.05.78-4.4a5.31,5.31,0,0,1,3.45-2.87,8.2,8.2,0,0,1,5,.31c.92.33,1.93.78,2.81.37a9.62,9.62,0,0,0,1.26-1,5,5,0,0,1,4-.32,5.33,5.33,0,0,1,2.62,1.81c1.59,2,1.84,4,2.24,6.4a48.16,48.16,0,0,1,.7,9.36c-.21,8.93-1.79,12.19-4.48,14-1.81,1.19-3.72,1.9-7.68,1.89l0,2.79c.08,1.4,0,2.7,1.33,3.14.92.3,3.1.78,3.1.78s3.25,5.1-5.5,5.71c-14,1-19.63-5.45-19.63-5.45a9,9,0,0,0,3.07-1C98.53,131.14,98.71,129.64,98.7,128Z" style="fill:#ffbda7"></path><path d="M111.14,114.16l5.3,1.62a2.73,2.73,0,0,1-3.42,1.94A2.9,2.9,0,0,1,111.14,114.16Z" style="fill:#b16668"></path><path d="M111.49,115.38a3,3,0,0,1,3.07,2.34,2.69,2.69,0,0,1-1.54,0,2.84,2.84,0,0,1-1.94-2.29A2.55,2.55,0,0,1,111.49,115.38Z" style="fill:#f0997a"></path><path d="M124,103l-3.34-1.79a1.82,1.82,0,0,1,2.51-.82A2,2,0,0,1,124,103Z" style="fill:#263238"></path><path d="M106.36,103.49l3.39-1.78a1.83,1.83,0,0,0-2.53-.85A2,2,0,0,0,106.36,103.49Z" style="fill:#263238"></path><path d="M120.22,106a1.61,1.61,0,0,0,1.47,1.7,1.52,1.52,0,0,0,1.68-1.41,1.61,1.61,0,0,0-1.47-1.7A1.52,1.52,0,0,0,120.22,106Z" style="fill:#263238"></path><path d="M108.07,106.4a1.61,1.61,0,0,0,1.47,1.7,1.51,1.51,0,0,0,1.67-1.41,1.61,1.61,0,0,0-1.47-1.7A1.51,1.51,0,0,0,108.07,106.4Z" style="fill:#263238"></path><polygon points="121.42 110.26 116.45 112.69 114.84 103.1 121.42 110.26" style="fill:#f0997a"></polygon><path d="M114.18,126.45c-5.57,0-12.09-2.66-14.44-6.59a8.51,8.51,0,0,0,2.59,4.85c5.12,4.25,11.83,3.73,11.83,3.73Z" style="fill:#f0997a"></path></g><g id="freepik--arm--inject-584"><path d="M76.53,211.1c-2.59.68-5.83-2.59-6.71-3.73s.33-3.76.93-6,.09-6,2.86-4.91S82,205.18,76.53,211.1Z" style="fill:#f0997a"></path><path d="M88,134.23c-7.19.92-10.55,2.58-14.66,10.44-4.79,9.16-12.49,21.87-13.72,25.87-1.14,3.71-3.33,6.33.64,12.1,3.64,5.27,15.12,19.12,16.81,21.15,1.49,1.8.55,6.85-4.69,6,0,0,3.93,3.62,6.13,3.27,1.9-.31,4.92-1.9,7.76-7.6,1.8-3.59.41-6.47-2.13-10.56-3-4.88-9.54-18.46-9.54-18.46l12.54-21.28S94,140.73,88,134.23Z" style="fill:#ffbda7"></path></g></g></g></g></svg>
