<svg xmlns="http://www.w3.org/2000/svg" viewBox="0 0 500 500"><g id="freepik--Floor--inject-685"><ellipse cx="250" cy="368.03" rx="204.43" ry="118.03" style="fill:#f5f5f5"></ellipse></g><g id="freepik--Shadows--inject-685"><polygon points="259.49 324.74 129.48 400.45 66.61 364.12 196.58 288.59 259.49 324.74" style="fill:#e0e0e0"></polygon><ellipse cx="367.44" cy="334.38" rx="31.34" ry="18.1" style="fill:#e0e0e0"></ellipse><ellipse cx="410.45" cy="363.22" rx="27.19" ry="15.7" style="fill:#e0e0e0"></ellipse><ellipse cx="288.18" cy="391.09" rx="55.98" ry="32.32" style="fill:#e0e0e0"></ellipse></g><g id="freepik--Bricks--inject-685"><path d="M63.72,270.09a.45.45,0,0,1-.25-.07.48.48,0,0,1-.25-.43V256.12a.48.48,0,0,1,.25-.43L83.68,244a.5.5,0,0,1,.5,0,.48.48,0,0,1,.25.43v13.47a.48.48,0,0,1-.25.43L64,270A.45.45,0,0,1,63.72,270.09Zm.5-13.68v12.31l19.21-11.09V245.32Z" style="fill:#e0e0e0"></path><path d="M48.22,297.06A.51.51,0,0,1,48,297a.5.5,0,0,1-.25-.44V283.1a.5.5,0,0,1,.25-.44L68.18,271a.5.5,0,0,1,.75.44v13.46a.5.5,0,0,1-.25.44L48.47,297A.57.57,0,0,1,48.22,297.06Zm.5-13.67V295.7l19.21-11.1V272.29Z" style="fill:#e0e0e0"></path><path d="M48.22,257.2a.51.51,0,0,1-.25-.06.5.5,0,0,1-.25-.44V243.24a.5.5,0,0,1,.25-.44l20.21-11.67a.5.5,0,0,1,.75.44V245a.5.5,0,0,1-.25.44L48.47,257.14A.57.57,0,0,1,48.22,257.2Zm.5-13.67v12.31l19.21-11.1V232.43Z" style="fill:#e0e0e0"></path><path d="M436.28,227.76a.54.54,0,0,1-.25-.06L415.82,216a.47.47,0,0,1-.25-.43V202.12a.5.5,0,0,1,.75-.43l20.21,11.67a.5.5,0,0,1,.25.44v13.46a.5.5,0,0,1-.25.44A.54.54,0,0,1,436.28,227.76ZM416.57,215.3l19.21,11.1V214.08L416.57,203Z" style="fill:#e0e0e0"></path><path d="M420.78,236.84a.55.55,0,0,1-.25-.07L400.31,225.1a.52.52,0,0,1-.25-.43V211.2a.5.5,0,0,1,.75-.43L421,222.44a.5.5,0,0,1,.25.43v13.47a.52.52,0,0,1-.25.43A.59.59,0,0,1,420.78,236.84Zm-19.72-12.46,19.22,11.09V223.16l-19.22-11.1Z" style="fill:#e0e0e0"></path><path d="M451.78,254.74a.59.59,0,0,1-.25-.07L431.32,243a.5.5,0,0,1-.25-.43V229.1a.48.48,0,0,1,.25-.43.5.5,0,0,1,.5,0L452,240.34a.48.48,0,0,1,.25.43v13.47a.5.5,0,0,1-.25.43A.52.52,0,0,1,451.78,254.74Zm-19.71-12.46,19.21,11.09V241.06L432.07,230Z" style="fill:#e0e0e0"></path></g><g id="freepik--Lamp--inject-685"><circle cx="367.44" cy="139.61" r="57.43" transform="translate(145.45 463.99) rotate(-76.42)" style="fill:#BA68C8;opacity:0.1"></circle><circle cx="367.44" cy="140.56" r="48.78" style="fill:#BA68C8;opacity:0.1"></circle><circle cx="367.44" cy="141.05" r="38.74" transform="translate(7.88 301.13) rotate(-45)" style="fill:#BA68C8;opacity:0.1"></circle><path d="M385.75,330.12a12.07,12.07,0,0,0-4.78-4.6c-7.47-4.31-19.59-4.31-27.07,0a12,12,0,0,0-4.77,4.6h-.84v3.22h0c0,2.83,1.87,5.65,5.61,7.81,7.48,4.32,19.6,4.32,27.07,0,3.74-2.16,5.61-5,5.61-7.81h0v-3.22Z" style="fill:#263238"></path><ellipse cx="367.44" cy="330.12" rx="19.14" ry="11.05" style="fill:#37474f"></ellipse><path d="M363.29,127h8.3a0,0,0,0,1,0,0V326.59a3.53,3.53,0,0,1-3.53,3.53h-1.23a3.53,3.53,0,0,1-3.53-3.53V127a0,0,0,0,1,0,0Z" style="fill:#455a64"></path><path d="M395.82,153.53h0c-.09-.36-.21-.7-.33-1.05l-9-28.56H348.36l-9,28.56a9.76,9.76,0,0,0-.32,1.05h0c-1.24,5,1.46,10.24,8.11,14.08,11.2,6.47,29.35,6.47,40.55,0C394.36,163.77,397.07,158.52,395.82,153.53Z" style="fill:#BA68C8"></path><path d="M395.82,153.53h0c-.09-.36-.21-.7-.33-1.05l-9-28.56H348.36l-9,28.56a9.76,9.76,0,0,0-.32,1.05h0c-1.24,5,1.46,10.24,8.11,14.08,11.2,6.47,29.35,6.47,40.55,0C394.36,163.77,397.07,158.52,395.82,153.53Z" style="fill:#fff;opacity:0.4"></path><ellipse cx="367.44" cy="125.52" rx="19.27" ry="11.13" style="fill:#BA68C8"></ellipse><path d="M367.44,114.4v2.26a25.49,25.49,0,0,1,12.49,3c2.91,1.68,4.51,3.78,4.51,5.91s-1.6,4.23-4.51,5.91a27.94,27.94,0,0,1-25,0c-2.91-1.68-4.51-3.78-4.51-5.91s1.6-4.23,4.51-5.91a25.5,25.5,0,0,1,12.5-3V114.4m0,0a27.86,27.86,0,0,0-13.63,3.25c-7.53,4.35-7.53,11.39,0,15.74a30.1,30.1,0,0,0,27.25,0c7.53-4.35,7.53-11.39,0-15.74a27.85,27.85,0,0,0-13.62-3.25Z" style="fill:#BA68C8"></path><path d="M367.44,114.4v2.26a25.49,25.49,0,0,1,12.49,3c2.91,1.68,4.51,3.78,4.51,5.91s-1.6,4.23-4.51,5.91a27.94,27.94,0,0,1-25,0c-2.91-1.68-4.51-3.78-4.51-5.91s1.6-4.23,4.51-5.91a25.5,25.5,0,0,1,12.5-3V114.4m0,0a27.86,27.86,0,0,0-13.63,3.25c-7.53,4.35-7.53,11.39,0,15.74a30.1,30.1,0,0,0,27.25,0c7.53-4.35,7.53-11.39,0-15.74a27.85,27.85,0,0,0-13.62-3.25Z" style="fill:#fff;opacity:0.2"></path></g><g id="freepik--Plant--inject-685"><path d="M411.79,326.43s-15.67-15.3-6.75-40.94c5-14.36,21.55-24.91,31-25.9,0,0-5.12,5.89-7.37,12.42l-11.88,7.9,10.92-3.42-2.33,9.35s-10.15,6.14-11.66,7.48l11-2.86S423.82,316.92,411.79,326.43Z" style="fill:#BA68C8"></path><path d="M411.79,326.43s-15.67-15.3-6.75-40.94c5-14.36,21.55-24.91,31-25.9,0,0-5.12,5.89-7.37,12.42l-11.88,7.9,10.92-3.42-2.33,9.35s-10.15,6.14-11.66,7.48l11-2.86S423.82,316.92,411.79,326.43Z" style="opacity:0.4"></path><path d="M411.79,326.43s-8.12-32,3.89-50.7C415.68,275.73,401.61,292.21,411.79,326.43Z" style="fill:#fff"></path><path d="M429.72,330.76l-19.17-.24h-.2l-19.17.24S391,354.38,398.24,364h0c2,2.56,6.72,4.35,12.21,4.35s10.22-1.8,12.22-4.36C429.93,354.36,429.72,330.76,429.72,330.76Z" style="fill:#37474f"></path><ellipse cx="410.45" cy="330.76" rx="19.27" ry="10.35" style="fill:#455a64"></ellipse><path d="M410.45,328c6.63,0,12.25,2.13,14.22,5.07a4.08,4.08,0,0,0,.77-2.33c0-4.08-6.71-7.4-15-7.4s-15,3.32-15,7.4a4.16,4.16,0,0,0,.77,2.33C398.21,330.15,403.82,328,410.45,328Z" style="fill:#263238"></path><ellipse cx="410.45" cy="333.09" rx="14.22" ry="5.07" style="fill:#e0e0e0"></ellipse><path d="M410.69,334.37s-7.43-.29-13.8-10.15C394.26,320.15,393,318,393,318l10.34-.77-11.59-2.9L386.27,306l9.63-.71s-7.17-2.51-12.29-2.55c0,0-8.88-15.68-11.48-17.91a50.36,50.36,0,0,1,35.08,17.42C421.8,319.47,412.85,334.81,410.69,334.37Z" style="fill:#BA68C8"></path><path d="M410.69,334.37s4.64-28-25-44.81C385.69,289.56,416.45,304.34,410.69,334.37Z" style="fill:#fff"></path><path d="M410.69,334.37s6.72.44,13.4-7.86c2.75-3.42,4.1-5.23,4.1-5.23l-9.27-1.67,10.74-1.53,5.73-7-8.62-1.55s6.7-1.59,11.33-1.14c0,0,9.48-13.31,12-15.09a45.68,45.68,0,0,0-33.28,12.42C402.06,319.88,408.69,334.56,410.69,334.37Z" style="fill:#BA68C8"></path><path d="M410.69,334.37s6.72.44,13.4-7.86c2.75-3.42,4.1-5.23,4.1-5.23l-9.27-1.67,10.74-1.53,5.73-7-8.62-1.55s6.7-1.59,11.33-1.14c0,0,9.48-13.31,12-15.09a45.68,45.68,0,0,0-33.28,12.42C402.06,319.88,408.69,334.56,410.69,334.37Z" style="opacity:0.2"></path><path d="M410.69,334.37s-1.56-25.68,26.77-38.07C437.46,296.3,408.31,306.73,410.69,334.37Z" style="fill:#fff"></path></g><g id="freepik--Furniture--inject-685"><path d="M188.71,248.44h0l60.88-35.15-35.87-20.61-60.88,35L92,262.79V373.38l35.86,20.71,60.8-35.1.08,0,60.9-35.15,0-110.49Zm-60.89,35.05,25-14.44v0l-25,14.4Z" style="fill:#37474f"></path><polygon points="188.71 248.34 188.69 359.04 152.84 338.32 152.84 227.73 188.71 248.34" style="fill:#ebebeb"></polygon><polygon points="249.59 323.88 188.69 359.04 188.69 248.45 249.57 213.39 249.59 323.88" style="fill:#455a64"></polygon><polygon points="249.59 213.29 188.69 248.45 152.84 227.73 213.72 192.68 249.59 213.29" style="fill:#37474f"></polygon><path d="M241.8,227.53l0,90.6a1,1,0,0,1-.51.87l-44.85,25.9V254.22a1,1,0,0,1,.5-.87l44.84-25.82m.95-3a1.34,1.34,0,0,0-.66.18l-46.26,26.64a3.29,3.29,0,0,0-1.65,2.85v92.32a1.33,1.33,0,0,0,1.33,1.33,1.4,1.4,0,0,0,.67-.18L242.45,321a3.24,3.24,0,0,0,1.64-2.84V225.89a1.33,1.33,0,0,0-1.33-1.34Z" style="fill:#37474f"></path><polygon points="127.82 283.4 127.81 394.09 91.95 373.38 91.95 262.79 127.82 283.4" style="fill:#263238"></polygon><polygon points="188.71 358.93 127.81 394.09 127.81 283.5 188.69 248.45 188.71 358.93" style="fill:#455a64"></polygon><polygon points="188.71 248.34 127.81 283.5 91.95 262.79 152.84 227.73 188.71 248.34" style="fill:#37474f"></polygon><path d="M180.92,262.58v90.61a1,1,0,0,1-.5.87L135.58,380V289.27a1,1,0,0,1,.5-.87l44.84-25.82m1-3a1.34,1.34,0,0,0-.66.18l-46.27,26.64a3.28,3.28,0,0,0-1.64,2.84V381.6a1.32,1.32,0,0,0,2,1.15L181.57,356a3.28,3.28,0,0,0,1.64-2.84V260.94a1.34,1.34,0,0,0-1.33-1.33Z" style="fill:#37474f"></path><path d="M179,328a8.12,8.12,0,0,1-4-1.18,2.28,2.28,0,1,1,2.27-3.95,1.75,1.75,0,0,0,3-1.73v-10A11.87,11.87,0,0,0,175,302a2.28,2.28,0,1,1,2.27-3.95,16.49,16.49,0,0,1,7.56,13.1v10c0,2.79-1.1,5-3,6.13A5.55,5.55,0,0,1,179,328Z" style="fill:#37474f"></path><path d="M204.09,315.17a8.15,8.15,0,0,1-4-1.18,2.28,2.28,0,0,1,2.28-3.95,2.53,2.53,0,0,0,2.26.45c.46-.26.74-1.1.74-2.18v-10a11.84,11.84,0,0,0-5.28-9.15,2.28,2.28,0,0,1,2.28-3.95,16.49,16.49,0,0,1,7.56,13.1v10c0,2.79-1.1,5-3,6.13A5.49,5.49,0,0,1,204.09,315.17Z" style="fill:#37474f"></path></g><g id="freepik--Switches--inject-685"><path d="M211,172,103.44,234.13a4.67,4.67,0,0,1-7-4V98.91a9.53,9.53,0,0,1,4.77-8.25L208.75,28.57a4.67,4.67,0,0,1,7,4V163.79A9.52,9.52,0,0,1,211,172Z" style="fill:#BA68C8"></path><path d="M211,172,103.44,234.13a4.67,4.67,0,0,1-7-4V98.91a9.53,9.53,0,0,1,4.77-8.25L208.75,28.57a4.67,4.67,0,0,1,7,4V163.79A9.52,9.52,0,0,1,211,172Z" style="fill:#fff;opacity:0.30000000000000004"></path><path d="M148.76,194.87,112.24,216a2,2,0,0,1-3.08-1.77V103.74a5.36,5.36,0,0,1,2.68-4.64L148.36,78a2.05,2.05,0,0,1,3.08,1.78V190.23A5.36,5.36,0,0,1,148.76,194.87Z" style="fill:#BA68C8"></path><path d="M199.88,165.55l-36.53,21.09a2.05,2.05,0,0,1-3.08-1.78V74.42A5.36,5.36,0,0,1,163,69.78L199.47,48.7a2.06,2.06,0,0,1,3.09,1.78V160.91A5.36,5.36,0,0,1,199.88,165.55Z" style="fill:#BA68C8"></path><path d="M213.82,28.84h0l-.23-.15Z" style="fill:#BA68C8"></path><path d="M96.44,230.09V98.91a9.53,9.53,0,0,1,4.77-8.25L208.75,28.57a4.62,4.62,0,0,1,4.66,0L209.5,26a4.85,4.85,0,0,0-.71-.47h0a4.63,4.63,0,0,0-4.53.07L96.72,87.71A9.55,9.55,0,0,0,92,96V227.14a4.62,4.62,0,0,0,2.21,4h0l.14.09,3.84,2.49A4.59,4.59,0,0,1,96.44,230.09Z" style="fill:#BA68C8"></path><g style="opacity:0.2"><path d="M213.82,28.84h0l-.23-.15Z" style="fill:#fff"></path><path d="M96.44,230.09V98.91a9.53,9.53,0,0,1,4.77-8.25L208.75,28.57a4.62,4.62,0,0,1,4.66,0L209.5,26a4.85,4.85,0,0,0-.71-.47h0a4.63,4.63,0,0,0-4.53.07L96.72,87.71A9.55,9.55,0,0,0,92,96V227.14a4.62,4.62,0,0,0,2.21,4h0l.14.09,3.84,2.49A4.59,4.59,0,0,1,96.44,230.09Z" style="fill:#fff"></path></g><g style="opacity:0.30000000000000004"><path d="M213.82,28.84h0l-.23-.15Z" style="fill:#fff"></path></g><polygon points="162.25 184.5 166.95 187.22 166.95 135.26 178.01 81.46 162.25 72.25 162.25 184.5" style="fill:#BA68C8"></polygon><polygon points="162.25 184.5 166.95 187.22 166.95 135.26 178.01 81.46 162.25 72.25 162.25 184.5" style="fill:#fff;opacity:0.5"></polygon><polygon points="201.4 49.64 162.25 72.25 178.01 81.46 217.16 58.86 201.4 49.64" style="fill:#BA68C8"></polygon><g style="opacity:0.6000000000000001"><polygon points="201.4 49.64 162.25 72.25 178.01 81.46 217.16 58.86 201.4 49.64" style="fill:#fff"></polygon></g><polygon points="166.95 187.22 206.1 164.62 206.1 112.66 166.95 135.26 166.95 187.22" style="fill:#BA68C8"></polygon><polygon points="166.95 187.22 206.1 164.62 206.1 112.66 166.95 135.26 166.95 187.22" style="fill:#fff;opacity:0.6000000000000001"></polygon><polygon points="178.01 81.46 217.16 58.86 206.1 112.66 166.95 135.26 178.01 81.46" style="fill:#BA68C8"></polygon><polygon points="178.01 81.46 217.16 58.86 206.1 112.66 166.95 135.26 178.01 81.46" style="fill:#fff;opacity:0.7000000000000001"></polygon><polygon points="150.1 79.25 110.95 101.86 115.65 104.57 154.81 81.97 150.1 79.25" style="fill:#BA68C8"></polygon><g style="opacity:0.6000000000000001"><polygon points="150.1 79.25 110.95 101.86 115.65 104.57 154.81 81.97 150.1 79.25" style="fill:#fff"></polygon></g><polygon points="154.81 81.97 115.65 104.57 115.65 164.87 154.81 142.27 154.81 81.97" style="fill:#BA68C8"></polygon><g style="opacity:0.7000000000000001"><polygon points="154.81 81.97 115.65 104.57 115.65 164.87 154.81 142.27 154.81 81.97" style="fill:#fff"></polygon></g><polygon points="154.81 142.27 115.65 164.87 126.71 223.22 165.86 200.62 154.81 142.27" style="fill:#BA68C8"></polygon><g style="opacity:0.6000000000000001"><polygon points="154.81 142.27 115.65 164.87 126.71 223.22 165.86 200.62 154.81 142.27" style="fill:#fff"></polygon></g><polygon points="110.95 101.86 115.65 104.57 115.65 164.87 126.71 223.22 110.95 214.12 110.95 101.86" style="fill:#BA68C8"></polygon><polygon points="110.95 101.86 115.65 104.57 115.65 164.87 126.71 223.22 110.95 214.12 110.95 101.86" style="fill:#fff;opacity:0.5"></polygon><text transform="matrix(0.87, -0.5, 0, 1, 126.37, 132.55)" style="font-size:13.669705390930176px;fill:#fff;font-family:Montserrat-ExtraBold, Montserrat;font-weight:800"><tspan style="letter-spacing:-0.009001302903784755em">o</tspan><tspan x="8.67" y="0" style="letter-spacing:0.0010001447670871949em">f</tspan><tspan x="14.27" y="0">f</tspan></text><text transform="matrix(0.87, -0.5, 0, 1, 178.53, 160.78)" style="font-size:13.669705390930176px;fill:#fff;font-family:Montserrat-ExtraBold, Montserrat;font-weight:800">on</text></g><g id="freepik--Character--inject-685"><path d="M265.07,157.82a24.74,24.74,0,0,0-13.34,6.75c-6.19,6-17.07,16.47-17.07,16.47s-15.94-15.9-19.41-21.07l-7.9,7.61s17.85,32.87,27.47,31.58c7.15-1,26-19.59,26-19.59Z" style="fill:#ffa8a7"></path><path d="M278.29,356.87l-1.22,12.59s-1.36,2.59-7.61,2.59-4.88-5.33-4.88-5.33l-.61-9.85Z" style="fill:#ffa8a7"></path><path d="M259.52,229.46c0,6.55.61,70.33.65,74.61,0,.15,0,.3,0,.45.26,3.55,3.35,47.28,3.79,52.35,0,0,7.46,5.68,14.32,0,0,0,1.82-15.43,2.43-20s2.9-25,0-31.67l7.46-38.67V235.49Z" style="fill:#37474f"></path><path d="M268,239.26s1.64,9.77,12.75,15.1l4.92,25.34,2.54-11.79V240.2Z" style="fill:#263238"></path><path d="M326.09,366.72l1.22,9.29s-3.26,8.51-13.2,4.4l-1.83-9.73Z" style="fill:#ffa8a7"></path><path d="M312.28,230.6c.68,7.31,2.7,25.89,3.46,49.94s.76,23.91.76,23.91S321.09,314,322,323s4,43.7,4,43.7-4.79,5.94-13.81,4L293.91,313a33.28,33.28,0,0,1-1.14-4.81l-9-56.72s-15.69-2.13-19.19-22.38Z" style="fill:#37474f"></path><path d="M271.74,153.64a16.89,16.89,0,0,0-11.67,3.54c-5.46,4.34-17,15.76-17,15.76s.68,9.48,11.42,12.79l11.3-8.11Z" style="fill:#BA68C8"></path><path d="M294.71,153.75A175.32,175.32,0,0,1,312,159.18l1.53,17.87s-4.1,23.33-4.1,26.68,2.85,26.87,2.85,26.87-8,5.26-31.41,5.26c-11.64,0-21.35-6.4-21.35-6.4V182.83c0-9.09,3.54-23.37,12.22-29.19h7.14Z" style="fill:#BA68C8"></path><path d="M294.71,153.75A175.32,175.32,0,0,1,312,159.18l1.53,17.87s-4.1,23.33-4.1,26.68,2.85,26.87,2.85,26.87-8,5.26-31.41,5.26c-11.64,0-21.35-6.4-21.35-6.4V182.83c0-9.09,3.54-23.37,12.22-29.19h7.14Z" style="opacity:0.2"></path><path d="M264.7,109.5s-9.1,8-1.19,25.78l9.24-24Z" style="fill:#263238"></path><path d="M294.71,153.75s-3.14,8.34-11.82,8.34-4-8.45-4-8.45Z" style="fill:#ffa8a7"></path><polygon points="294.71 153.75 278.88 153.64 278.88 129.45 294.71 129.45 294.71 153.75" style="fill:#ffa8a7"></polygon><path d="M278.88,152.66c5.84-2.25,13.25-6,13.25-9.56l1.92-12H278.88Z" style="fill:#f28f8f"></path><path d="M282.52,104.57c-5.58,0-17.44,3.11-18.81,17.71s.76,27,7.49,27c13.19,0,25.86-1.68,26-23.27C297.26,107,288,104.57,282.52,104.57Z" style="fill:#ffa8a7"></path><path d="M294.69,138.82l-2.15-6.6a1.1,1.1,0,0,1-1.82-.84V119.61s-5.49-1.55-4.91-6.16c0,0-2.8,2.5-13.57,2.5s-13.38-9.12-12.3-14.2c0,0,2,2.06,7.69,2.06s29.38-7.15,30,7.17c0,0,2-2.93,5.23,0l-4.15,2.47s4.92-.16,4.15,7.07c-.6,5.7-3,16.5-4,20.84a4.84,4.84,0,0,1-2,2.93l-2.19,1.47Z" style="fill:#263238"></path><polygon points="274.13 126.67 274.13 135.28 269.09 133.73 274.13 126.67" style="fill:#f28f8f"></polygon><path d="M283.09,128.16a1.76,1.76,0,1,1-1.76-1.76A1.76,1.76,0,0,1,283.09,128.16Z" style="fill:#263238"></path><path d="M270,126.93a1.76,1.76,0,1,1-1.75-1.75A1.76,1.76,0,0,1,270,126.93Z" style="fill:#263238"></path><path d="M266.07,123.28l3.43-2s-1.32-1.37-2.63-.54A2.39,2.39,0,0,0,266.07,123.28Z" style="fill:#263238"></path><path d="M284.9,124.55l-3.43-2s1.32-1.37,2.63-.55A2.4,2.4,0,0,1,284.9,124.55Z" style="fill:#263238"></path><path d="M271.76,138.77a7.52,7.52,0,0,0,4.73-1.27s.32,2.49-1.76,3S271.76,138.77,271.76,138.77Z" style="fill:#f28f8f"></path><path d="M293.4,129.76c-2,3.44-1.48,7.63,1.29,9.06,1.78.92,7-1.06,9-4.51s.87-6.39-1.83-8S295.38,126.32,293.4,129.76Z" style="fill:#ffa8a7"></path><polygon points="292.39 132.33 298.46 125.74 294.1 123.12 292.39 132.33" style="fill:#253239"></polygon><path d="M327.31,376a8,8,0,0,1-1.59,2.3,1.11,1.11,0,0,1-1.83-.73,2.93,2.93,0,0,0-1.53-2.49c-1.06-.45-9.66-.61-9.74,1.14a18.68,18.68,0,0,0,.37,3.91s-1.37,11.82-4,16.5S302,408.89,311.1,411.1s15.91-2.59,16.21-9,.15-10.89.76-12,3.81-1.68,2.59-7.54-1.39-9.4-3.74-9.53Z" style="fill:#455a64"></path><path d="M321.15,386.77a.67.67,0,0,1-.41-.13h0a8.64,8.64,0,0,0-8.18-.47.7.7,0,0,1-.93-.36.71.71,0,0,1,.36-.94,10.08,10.08,0,0,1,9.57.6.72.72,0,0,1-.41,1.3Z" style="fill:#fff"></path><path d="M319.79,392.5a.66.66,0,0,1-.4-.13,8.64,8.64,0,0,0-8.18-.47.71.71,0,0,1-.94-.36.72.72,0,0,1,.37-.94,10.08,10.08,0,0,1,9.57.6.72.72,0,0,1-.42,1.3Z" style="fill:#fff"></path><path d="M317.69,398.23a.69.69,0,0,1-.41-.13h0a8.64,8.64,0,0,0-8.17-.47.71.71,0,1,1-.58-1.3,10.08,10.08,0,0,1,9.57.6.72.72,0,0,1,.17,1A.73.73,0,0,1,317.69,398.23Z" style="fill:#fff"></path><path d="M277.07,369.46s-3,2-5.48,1.62c0,0,.91-3.6-1.75-4.82s-6.93-2.82-7.77-1.37-1,5.18-1,5.18-6.36,5.76-11.06,7.37-10.84,3.29-10.33,7.63,7.61,10.65,17.13,6.31,11.26-4.49,14.31-4.94,8.75-.23,8.53-5.33.19-13.54-2.34-14.23Z" style="fill:#455a64"></path><path d="M266.13,377.15a.7.7,0,0,1-.66-.47,7.32,7.32,0,0,0-6-4.36.71.71,0,1,1,.16-1.42,8.74,8.74,0,0,1,7.2,5.29.7.7,0,0,1-.42.91A.74.74,0,0,1,266.13,377.15Z" style="fill:#fff"></path><path d="M261.67,380.31a.72.72,0,0,1-.67-.47,7.32,7.32,0,0,0-6-4.36.71.71,0,0,1-.62-.79.72.72,0,0,1,.79-.63,8.76,8.76,0,0,1,7.2,5.29.72.72,0,0,1-.42.91A.79.79,0,0,1,261.67,380.31Z" style="fill:#fff"></path><path d="M256.19,383.21a.71.71,0,0,1-.67-.47,7.34,7.34,0,0,0-6-4.37.71.71,0,1,1,.17-1.41,8.74,8.74,0,0,1,7.19,5.29.7.7,0,0,1-.42.91A.69.69,0,0,1,256.19,383.21Z" style="fill:#fff"></path><path d="M307.55,157.56s-7.54,8.69,0,26.17l10.91,24.06-10.75,28.07,10.75,4.48s14.14-25.18,15.71-30,.64-6.57-2.24-12.83c-2.21-4.78-9.86-23.73-13.35-32.41a10.35,10.35,0,0,0-6.26-5.92Z" style="fill:#ffa8a7"></path><path d="M307.55,183.73l5,11c2.77-.21,10.18-1.39,14.85-7.9-3-7.37-6.69-16.42-8.8-21.69a10.35,10.35,0,0,0-6.26-5.92l-4.77-1.63S300,166.25,307.55,183.73Z" style="fill:#BA68C8"></path><path d="M318.46,207.79a14.5,14.5,0,0,1,7.63,0s-2.88-3.3-8.77-2.51Z" style="fill:#f28f8f"></path><path d="M308.58,235s-2.57-.06-5.43,3.58c-.82,1.05-4.43,2.27-4.52,3.1s1.47,3,6,.65a16.91,16.91,0,0,1-3.43,5.71c-2.39,2.53-5.75,5.61-1.44,7.13S311.39,257.13,314,251c2.56-5.94,4.42-10.55,4.42-10.55Z" style="fill:#ffa8a7"></path><path d="M208.84,168.79s-2.68.09-5.7-3.69c-.87-1.09-4.65-2.33-4.75-3.19s1.5-3.09,6.21-.73a17.79,17.79,0,0,0-3.63-5.94c-2.52-2.62-6.05-5.8-1.57-7.43s12.17-2.14,15,4.27A54.78,54.78,0,0,1,218,163.64Z" style="fill:#ffa8a7"></path></g></svg>